{
DisplayStrings = (

glyphs = (
{
glyphname = C;
lastChange = "2015-08-07 16:01:45 +0000";
layers = (
{
background = {
paths = (
{
closed = 1;
nodes = (
"516 161 OFFCURVE",
"486 234 OFFCURVE",
"403 254 CURVE",
"352 210 OFFCURVE",
"279 168 OFFCURVE",
"187 151 CURVE",
"187 326 OFFCURVE",
"272 565 OFFCURVE",
"336 565 CURVE SMOOTH",
"368 565 OFFCURVE",
"368 514 OFFCURVE",
"365 441 CURVE",
"442 413 OFFCURVE",
"531 435 OFFCURVE",
"530 513 CURVE SMOOTH",
"529 589 OFFCURVE",
"445 700 OFFCURVE",
"332 700 CURVE SMOOTH",
"122 700 OFFCURVE",
"21 387 OFFCURVE",
"21 190 CURVE SMOOTH",
"21 128 OFFCURVE",
"139 0 OFFCURVE",
"228 0 CURVE SMOOTH",
"320 0 OFFCURVE",
"447 62 OFFCURVE",
"487 102 CURVE"
);
}
);
};
layerId = "AF1B7CCB-9C31-456C-8386-1D362D80AEF6";
name = "Bold Italic";
paths = (
{
closed = 1;
nodes = (
"517 161 OFFCURVE",
"488 234 OFFCURVE",
"405 254 CURVE",
"354 210 OFFCURVE",
"280 168 OFFCURVE",
"188 151 CURVE",
"190 326 OFFCURVE",
"277 565 OFFCURVE",
"341 565 CURVE SMOOTH",
"373 565 OFFCURVE",
"372 514 OFFCURVE",
"369 441 CURVE",
"446 413 OFFCURVE",
"535 435 OFFCURVE",
"534 513 CURVE SMOOTH",
"534 589 OFFCURVE",
"451 700 OFFCURVE",
"338 700 CURVE SMOOTH",
"128 700 OFFCURVE",
"24 387 OFFCURVE",
"23 190 CURVE SMOOTH",
"22 128 OFFCURVE",
"139 0 OFFCURVE",
"228 0 CURVE SMOOTH",
"320 0 OFFCURVE",
"448 62 OFFCURVE",
"488 102 CURVE"
);
}
);
width = 540;
}
);
leftMetricsKey = O;
unicode = 0043;
},
{
glyphname = D;
lastChange = "2015-08-08 18:13:30 +0000";
layers = (
{
background = {
paths = (
{
closed = 1;
nodes = (
"72 674 OFFCURVE",
"53 613 OFFCURVE",
"86 547 CURVE",
"127 545 LINE",
"115 487 OFFCURVE",
"93 428 OFFCURVE",
"81 370 CURVE SMOOTH",
"57 255 OFFCURVE",
"26 160 OFFCURVE",
"26 134 CURVE SMOOTH",
"26 95 OFFCURVE",
"130 0 OFFCURVE",
"182 0 CURVE SMOOTH",
"376 0 OFFCURVE",
"574 238 OFFCURVE",
"574 367 CURVE SMOOTH",
"574 537 OFFCURVE",
"375 689 OFFCURVE",
"130 710 CURVE"
);
},
{
closed = 1;
nodes = (
"212 264 OFFCURVE",
"241 380 OFFCURVE",
"270 517 CURVE",
"346 501 OFFCURVE",
"421 445 OFFCURVE",
"421 399 CURVE SMOOTH",
"421 325 OFFCURVE",
"318 199 OFFCURVE",
"186 131 CURVE"
);
}
);
};
layerId = "AF1B7CCB-9C31-456C-8386-1D362D80AEF6";
name = "Bold Italic";
paths = (
{
closed = 1;
nodes = (
"66 674 OFFCURVE",
"48 613 OFFCURVE",
"81 547 CURVE",
"122 545 LINE",
"111 487 OFFCURVE",
"89 428 OFFCURVE",
"78 370 CURVE SMOOTH",
"55 255 OFFCURVE",
"25 160 OFFCURVE",
"25 134 CURVE SMOOTH",
"25 95 OFFCURVE",
"130 0 OFFCURVE",
"182 0 CURVE SMOOTH",
"376 0 OFFCURVE",
"572 238 OFFCURVE",
"571 367 CURVE SMOOTH",
"569 537 OFFCURVE",
"369 689 OFFCURVE",
"124 710 CURVE"
);
},
{
closed = 1;
nodes = (
"210 264 OFFCURVE",
"238 380 OFFCURVE",
"265 517 CURVE",
"342 501 OFFCURVE",
"417 445 OFFCURVE",
"418 399 CURVE SMOOTH",
"418 325 OFFCURVE",
"316 199 OFFCURVE",
"185 131 CURVE"
);
}
);
width = 593;
}
);
rightMetricsKey = O;
unicode = 0044;
},
{
glyphname = G;
lastChange = "2015-08-08 13:57:48 +0000";
layers = (
{
background = {
paths = (
{
closed = 1;
nodes = (
"482 -78 OFFCURVE",
"535 114 OFFCURVE",
"535 254 CURVE SMOOTH",
"535 342 OFFCURVE",
"494 396 OFFCURVE",
"379 396 CURVE SMOOTH",
"331 396 OFFCURVE",
"304 393 OFFCURVE",
"286 370 CURVE SMOOTH",
"273 354 OFFCURVE",
"276 269 OFFCURVE",
"288 254 CURVE SMOOTH",
"299 239 OFFCURVE",
"341 234 OFFCURVE",
"401 236 CURVE",
"403 202 LINE",
"317 172 OFFCURVE",
"227 154 OFFCURVE",
"150 156 CURVE",
"171 142 LINE",
"177 344 OFFCURVE",
"265 565 OFFCURVE",
"343 565 CURVE SMOOTH",
"378 565 OFFCURVE",
"386 538 OFFCURVE",
"380 450 CURVE",
"376 450 LINE",
"457 419 OFFCURVE",
"527 451 OFFCURVE",
"528 522 CURVE SMOOTH",
"530 601 OFFCURVE",
"449 700 OFFCURVE",
"344 700 CURVE SMOOTH",
"145 700 OFFCURVE",
"30 409 OFFCURVE",
"23 210 CURVE SMOOTH",
"22 128 OFFCURVE",
"137 0 OFFCURVE",
"206 0 CURVE SMOOTH",
"237 0 OFFCURVE",
"325 32 OFFCURVE",
"363 54 CURVE",
"354 32 OFFCURVE",
"344 8 OFFCURVE",
"343 -5 CURVE SMOOTH",
"340 -37 OFFCURVE",
"397 -78 OFFCURVE",
"445 -78 CURVE SMOOTH"
);
}
);
};
layerId = "AF1B7CCB-9C31-456C-8386-1D362D80AEF6";
name = "Bold Italic";
paths = (
{
closed = 1;
nodes = (
"454 -78 OFFCURVE",
"526 114 OFFCURVE",
"526 254 CURVE SMOOTH",
"531 342 OFFCURVE",
"493 396 OFFCURVE",
"378 396 CURVE SMOOTH",
"330 396 OFFCURVE",
"303 393 OFFCURVE",
"283 370 CURVE SMOOTH",
"269 354 OFFCURVE",
"268 269 OFFCURVE",
"278 254 CURVE SMOOTH",
"289 239 OFFCURVE",
"331 234 OFFCURVE",
"391 236 CURVE",
"391 202 LINE",
"314 173 OFFCURVE",
"237 155 OFFCURVE",
"150 156 CURVE",
"171 142 LINE",
"177 344 OFFCURVE",
"265 565 OFFCURVE",
"343 565 CURVE SMOOTH",
"378 565 OFFCURVE",
"386 538 OFFCURVE",
"380 450 CURVE",
"376 450 LINE",
"457 419 OFFCURVE",
"527 451 OFFCURVE",
"528 522 CURVE SMOOTH",
"530 601 OFFCURVE",
"449 700 OFFCURVE",
"344 700 CURVE SMOOTH",
"145 700 OFFCURVE",
"30 409 OFFCURVE",
"23 210 CURVE SMOOTH",
"22 128 OFFCURVE",
"137 0 OFFCURVE",
"206 0 CURVE SMOOTH",
"237 0 OFFCURVE",
"309 27 OFFCURVE",
"342 54 CURVE",
"332 32 OFFCURVE",
"321 8 OFFCURVE",
"319 -5 CURVE SMOOTH",
"314 -37 OFFCURVE",
"369 -78 OFFCURVE",
"417 -78 CURVE SMOOTH"
);
}
);
width = 555;
}
);
leftMetricsKey = C;
rightMetricsKey = C;
unicode = 0047;
},
{
glyphname = H;
lastChange = "2015-08-07 16:01:45 +0000";
layers = (
{
background = {
paths = (
{
closed = 1;
nodes = (
"435 420 LINE",
"357 408 OFFCURVE",
"250 398 OFFCURVE",
"183 396 CURVE",
"138 354 OFFCURVE",
"148 289 OFFCURVE",
"191 257 CURVE",
"235 259 OFFCURVE",
"339 271 OFFCURVE",
"406 281 CURVE"
);
},
{
closed = 1;
nodes = (
"516 0 OFFCURVE",
"516 135 OFFCURVE",
"546 303 CURVE SMOOTH",
"573 443 OFFCURVE",
"621 579 OFFCURVE",
"621 603 CURVE SMOOTH",
"621 638 OFFCURVE",
"527 700 OFFCURVE",
"487 700 CURVE SMOOTH",
"456 700 OFFCURVE",
"424 490 OFFCURVE",
"407 401 CURVE SMOOTH",
"381 260 OFFCURVE",
"347 127 OFFCURVE",
"347 94 CURVE SMOOTH",
"347 62 OFFCURVE",
"433 0 OFFCURVE",
"481 0 CURVE SMOOTH"
);
},
{
closed = 1;
nodes = (
"181 0 OFFCURVE",
"181 135 OFFCURVE",
"211 303 CURVE SMOOTH",
"238 443 OFFCURVE",
"286 579 OFFCURVE",
"286 603 CURVE SMOOTH",
"286 638 OFFCURVE",
"192 700 OFFCURVE",
"152 700 CURVE SMOOTH",
"121 700 OFFCURVE",
"89 490 OFFCURVE",
"72 401 CURVE SMOOTH",
"46 260 OFFCURVE",
"12 127 OFFCURVE",
"12 94 CURVE SMOOTH",
"12 62 OFFCURVE",
"98 0 OFFCURVE",
"146 0 CURVE SMOOTH"
);
}
);
};
layerId = "AF1B7CCB-9C31-456C-8386-1D362D80AEF6";
name = "Bold Italic";
paths = (
{
closed = 1;
nodes = (
"431 420 LINE",
"353 408 OFFCURVE",
"247 398 OFFCURVE",
"180 396 CURVE",
"135 354 OFFCURVE",
"145 289 OFFCURVE",
"189 257 CURVE",
"233 259 OFFCURVE",
"337 271 OFFCURVE",
"404 281 CURVE"
);
},
{
closed = 1;
nodes = (
"181 0 OFFCURVE",
"179 135 OFFCURVE",
"208 303 CURVE SMOOTH",
"233 443 OFFCURVE",
"279 579 OFFCURVE",
"279 603 CURVE SMOOTH",
"279 638 OFFCURVE",
"185 700 OFFCURVE",
"146 700 CURVE SMOOTH",
"115 700 OFFCURVE",
"85 490 OFFCURVE",
"69 401 CURVE SMOOTH",
"45 260 OFFCURVE",
"12 127 OFFCURVE",
"13 94 CURVE SMOOTH",
"13 62 OFFCURVE",
"99 0 OFFCURVE",
"146 0 CURVE SMOOTH"
);
},
{
closed = 1;
nodes = (
"517 0 OFFCURVE",
"515 135 OFFCURVE",
"544 303 CURVE SMOOTH",
"569 443 OFFCURVE",
"615 579 OFFCURVE",
"615 603 CURVE SMOOTH",
"615 638 OFFCURVE",
"521 700 OFFCURVE",
"482 700 CURVE SMOOTH",
"451 700 OFFCURVE",
"421 490 OFFCURVE",
"405 401 CURVE SMOOTH",
"381 260 OFFCURVE",
"348 127 OFFCURVE",
"349 94 CURVE SMOOTH",
"349 62 OFFCURVE",
"435 0 OFFCURVE",
"482 0 CURVE SMOOTH"
);
}
);
width = 619;
}
);
unicode = 0048;
},
{
glyphname = I;
lastChange = "2015-08-07 16:01:45 +0000";
layers = (
{
background = {
paths = (
{
closed = 1;
nodes = (
"193 0 OFFCURVE",
"194 136 OFFCURVE",
"225 303 CURVE SMOOTH",
"253 443 OFFCURVE",
"306 579 OFFCURVE",
"306 603 CURVE SMOOTH",
"306 638 OFFCURVE",
"205 700 OFFCURVE",
"161 700 CURVE SMOOTH",
"126 700 OFFCURVE",
"94 490 OFFCURVE",
"76 401 CURVE SMOOTH",
"47 260 OFFCURVE",
"10 127 OFFCURVE",
"10 94 CURVE SMOOTH",
"10 62 OFFCURVE",
"105 0 OFFCURVE",
"155 0 CURVE SMOOTH"
);
}
);
};
layerId = "AF1B7CCB-9C31-456C-8386-1D362D80AEF6";
name = "Bold Italic";
paths = (
{
closed = 1;
nodes = (
"181 0 OFFCURVE",
"179 135 OFFCURVE",
"208 303 CURVE SMOOTH",
"233 443 OFFCURVE",
"279 579 OFFCURVE",
"279 603 CURVE SMOOTH",
"279 638 OFFCURVE",
"185 700 OFFCURVE",
"146 700 CURVE SMOOTH",
"115 700 OFFCURVE",
"85 490 OFFCURVE",
"69 401 CURVE SMOOTH",
"45 260 OFFCURVE",
"12 127 OFFCURVE",
"13 94 CURVE SMOOTH",
"13 62 OFFCURVE",
"99 0 OFFCURVE",
"146 0 CURVE SMOOTH"
);
}
);
width = 283;
}
);
leftMetricsKey = H;
rightMetricsKey = H;
unicode = 0049;
},
{
glyphname = L;
lastChange = "2015-08-08 13:44:01 +0000";
layers = (
{
background = {
paths = (
{
closed = 1;
nodes = (
"323 161 OFFCURVE",
"250 145 OFFCURVE",
"171 137 CURVE",
"185 197 OFFCURVE",
"196 241 OFFCURVE",
"208 303 CURVE SMOOTH",
"236 443 OFFCURVE",
"279 579 OFFCURVE",
"279 603 CURVE SMOOTH",
"279 638 OFFCURVE",
"185 700 OFFCURVE",
"146 700 CURVE SMOOTH",
"115 700 OFFCURVE",
"85 490 OFFCURVE",
"69 401 CURVE SMOOTH",
"45 260 OFFCURVE",
"13 135 OFFCURVE",
"12 102 CURVE SMOOTH",
"10 67 OFFCURVE",
"96 2 OFFCURVE",
"132 0 CURVE SMOOTH",
"206 -4 OFFCURVE",
"330 6 OFFCURVE",
"428 26 CURVE",
"478 76 OFFCURVE",
"463 159 OFFCURVE",
"398 187 CURVE"
);
}
);
};
layerId = "AF1B7CCB-9C31-456C-8386-1D362D80AEF6";
name = "Bold Italic";
paths = (
{
closed = 1;
nodes = (
"325 161 OFFCURVE",
"252 145 OFFCURVE",
"173 137 CURVE",
"188 197 OFFCURVE",
"199 241 OFFCURVE",
"212 303 CURVE SMOOTH",
"242 443 OFFCURVE",
"287 579 OFFCURVE",
"287 603 CURVE SMOOTH",
"287 638 OFFCURVE",
"194 700 OFFCURVE",
"155 700 CURVE SMOOTH",
"124 700 OFFCURVE",
"91 490 OFFCURVE",
"74 401 CURVE SMOOTH",
"48 260 OFFCURVE",
"15 135 OFFCURVE",
"13 102 CURVE SMOOTH",
"11 67 OFFCURVE",
"96 2 OFFCURVE",
"132 0 CURVE SMOOTH",
"206 -4 OFFCURVE",
"330 6 OFFCURVE",
"428 26 CURVE",
"479 76 OFFCURVE",
"465 159 OFFCURVE",
"400 187 CURVE"
);
}
);
width = 493;
}
);
leftMetricsKey = I;
unicode = 004C;
},
{
glyphname = N;
lastChange = "2015-08-07 16:01:45 +0000";
layers = (
{
background = {
paths = (
{
closed = 1;
nodes = (
"181 0 OFFCURVE",
"179 135 OFFCURVE",
"208 303 CURVE SMOOTH",
"233 443 OFFCURVE",
"279 579 OFFCURVE",
"279 603 CURVE SMOOTH",
"279 638 OFFCURVE",
"185 700 OFFCURVE",
"146 700 CURVE SMOOTH",
"115 700 OFFCURVE",
"85 490 OFFCURVE",
"69 401 CURVE SMOOTH",
"45 260 OFFCURVE",
"12 127 OFFCURVE",
"13 94 CURVE SMOOTH",
"13 62 OFFCURVE",
"99 0 OFFCURVE",
"146 0 CURVE SMOOTH"
);
},
{
closed = 1;
nodes = (
"517 0 OFFCURVE",
"515 135 OFFCURVE",
"544 303 CURVE SMOOTH",
"569 443 OFFCURVE",
"615 579 OFFCURVE",
"615 603 CURVE SMOOTH",
"615 638 OFFCURVE",
"521 700 OFFCURVE",
"482 700 CURVE SMOOTH",
"451 700 OFFCURVE",
"421 490 OFFCURVE",
"405 401 CURVE SMOOTH",
"381 260 OFFCURVE",
"348 127 OFFCURVE",
"349 94 CURVE SMOOTH",
"349 62 OFFCURVE",
"435 0 OFFCURVE",
"482 0 CURVE SMOOTH"
);
},
{
closed = 1;
nodes = (
"168 542 LINE",
"207 427 OFFCURVE",
"287 131 OFFCURVE",
"377 51 CURVE",
"440 166 LINE",
"375 317 OFFCURVE",
"305 550 OFFCURVE",
"276 615 CURVE"
);
}
);
};
layerId = "AF1B7CCB-9C31-456C-8386-1D362D80AEF6";
name = "Bold Italic";
paths = (
{
closed = 1;
nodes = (
"451 700 OFFCURVE",
"421 490 OFFCURVE",
"405 401 CURVE",
"393 270 LINE",
"354 392 OFFCURVE",
"305 537 OFFCURVE",
"278 610 CURVE SMOOTH",
"264 649 OFFCURVE",
"181 700 OFFCURVE",
"146 700 CURVE SMOOTH",
"115 700 OFFCURVE",
"85 490 OFFCURVE",
"69 401 CURVE SMOOTH",
"45 260 OFFCURVE",
"12 127 OFFCURVE",
"13 94 CURVE SMOOTH",
"13 62 OFFCURVE",
"99 0 OFFCURVE",
"146 0 CURVE SMOOTH",
"181 0 OFFCURVE",
"179 135 OFFCURVE",
"208 303 CURVE",
"215 429 LINE",
"242 294 OFFCURVE",
"319 122 OFFCURVE",
"348 85 CURVE SMOOTH",
"385 37 OFFCURVE",
"444 0 OFFCURVE",
"482 0 CURVE SMOOTH",
"517 0 OFFCURVE",
"515 135 OFFCURVE",
"544 303 CURVE SMOOTH",
"569 443 OFFCURVE",
"615 579 OFFCURVE",
"615 603 CURVE SMOOTH",
"615 638 OFFCURVE",
"521 700 OFFCURVE",
"482 700 CURVE SMOOTH"
);
}
);
width = 619;
}
);
leftMetricsKey = H;
rightMetricsKey = H;
unicode = 004E;
},
{
glyphname = O;
lastChange = "2015-08-07 16:01:45 +0000";
layers = (
{
background = {
paths = (
{
closed = 1;
nodes = (
"263 575 OFFCURVE",
"214 608 OFFCURVE",
"116 581 CURVE",
"84 498 OFFCURVE",
"25 300 OFFCURVE",
"25 196 CURVE SMOOTH",
"25 109 OFFCURVE",
"161 0 OFFCURVE",
"233 0 CURVE SMOOTH",
"376 0 OFFCURVE",
"557 244 OFFCURVE",
"557 453 CURVE SMOOTH",
"557 577 OFFCURVE",
"450 690 OFFCURVE",
"284 700 CURVE",
"213 676 OFFCURVE",
"191 581 OFFCURVE",
"237 522 CURVE",
"313 526 OFFCURVE",
"392 506 OFFCURVE",
"435 475 CURVE",
"400 314 OFFCURVE",
"311 189 OFFCURVE",
"180 135 CURVE",
"180 295 OFFCURVE",
"212 373 OFFCURVE",
"266 492 CURVE"
);
}
);
};
layerId = "AF1B7CCB-9C31-456C-8386-1D362D80AEF6";
name = "Bold Italic";
paths = (
{
closed = 1;
nodes = (
"265 573 OFFCURVE",
"219 614 OFFCURVE",
"115 583 CURVE",
"80 497 OFFCURVE",
"21 299 OFFCURVE",
"21 196 CURVE SMOOTH",
"21 110 OFFCURVE",
"158 0 OFFCURVE",
"233 0 CURVE SMOOTH",
"379 0 OFFCURVE",
"561 245 OFFCURVE",
"561 453 CURVE SMOOTH",
"561 580 OFFCURVE",
"433 700 OFFCURVE",
"284 700 CURVE",
"208 675 OFFCURVE",
"185 585 OFFCURVE",
"237 522 CURVE",
"319 525 OFFCURVE",
"393 503 OFFCURVE",
"431 475 CURVE",
"402 342 OFFCURVE",
"323 194 OFFCURVE",
"184 137 CURVE",
"183 297 OFFCURVE",
"215 376 OFFCURVE",
"270 492 CURVE"
);
}
);
width = 572;
}
);
unicode = 004F;
},
{
glyphname = T;
lastChange = "2015-08-08 18:14:51 +0000";
layers = (
{
background = {
paths = (
{
closed = 1;
nodes = (
"486 694 OFFCURVE",
"239 692 OFFCURVE",
"106 669 CURVE",
"59 618 OFFCURVE",
"76 548 OFFCURVE",
"123 527 CURVE",
"278 552 LINE",
"263 496 OFFCURVE",
"254 438 OFFCURVE",
"242 371 CURVE SMOOTH",
"223 260 OFFCURVE",
"190 127 OFFCURVE",
"191 94 CURVE SMOOTH",
"191 62 OFFCURVE",
"277 0 OFFCURVE",
"324 0 CURVE SMOOTH",
"359 0 OFFCURVE",
"357 135 OFFCURVE",
"386 303 CURVE SMOOTH",
"405 410 OFFCURVE",
"422 492 OFFCURVE",
"432 563 CURVE",
"498 568 OFFCURVE",
"549 572 OFFCURVE",
"599 572 CURVE",
"636 609 OFFCURVE",
"637 690 OFFCURVE",
"584 717 CURVE"
);
}
);
};
layerId = "AF1B7CCB-9C31-456C-8386-1D362D80AEF6";
name = "Bold Italic";
paths = (
{
closed = 1;
nodes = (
"489 684 OFFCURVE",
"242 692 OFFCURVE",
"108 674 CURVE",
"59 625 OFFCURVE",
"73 554 OFFCURVE",
"119 531 CURVE",
"275 550 LINE",
"266 495 OFFCURVE",
"254 438 OFFCURVE",
"242 371 CURVE SMOOTH",
"223 260 OFFCURVE",
"190 127 OFFCURVE",
"191 94 CURVE SMOOTH",
"191 62 OFFCURVE",
"277 0 OFFCURVE",
"324 0 CURVE SMOOTH",
"359 0 OFFCURVE",
"357 135 OFFCURVE",
"386 303 CURVE SMOOTH",
"405 410 OFFCURVE",
"417 485 OFFCURVE",
"430 555 CURVE",
"496 557 OFFCURVE",
"547 559 OFFCURVE",
"597 557 CURVE",
"635 593 OFFCURVE",
"639 674 OFFCURVE",
"588 703 CURVE"
);
}
);
width = 597;
}
);
unicode = 0054;
},
{
glyphname = G.ss01;
lastChange = "2015-08-08 13:57:44 +0000";
layers = (
{
associatedMasterId = "AF1B7CCB-9C31-456C-8386-1D362D80AEF6";
background = {
paths = (
{
closed = 1;
nodes = (
"495 -75 OFFCURVE",
"551 124 OFFCURVE",
"557 263 CURVE SMOOTH",
"559 354 OFFCURVE",
"504 396 OFFCURVE",
"385 396 CURVE SMOOTH",
"332 396 OFFCURVE",
"304 388 OFFCURVE",
"288 365 CURVE SMOOTH",
"272 342 OFFCURVE",
"278 264 OFFCURVE",
"296 249 CURVE SMOOTH",
"309 237 OFFCURVE",
"359 232 OFFCURVE",
"408 237 CURVE",
"412 203 LINE",
"343 173 OFFCURVE",
"247 154 OFFCURVE",
"154 156 CURVE",
"185 142 LINE",
"191 345 OFFCURVE",
"281 565 OFFCURVE",
"350 565 CURVE SMOOTH",
"379 565 OFFCURVE",
"385 529 OFFCURVE",
"380 450 CURVE",
"458 420 OFFCURVE",
"541 448 OFFCURVE",
"542 522 CURVE SMOOTH",
"544 599 OFFCURVE",
"461 700 OFFCURVE",
"351 700 CURVE SMOOTH",
"145 700 OFFCURVE",
"30 408 OFFCURVE",
"23 210 CURVE SMOOTH",
"22 129 OFFCURVE",
"139 0 OFFCURVE",
"216 0 CURVE SMOOTH",
"264 0 OFFCURVE",
"318 27 OFFCURVE",
"363 52 CURVE",
"355 28 OFFCURVE",
"346 3 OFFCURVE",
"346 -8 CURVE SMOOTH",
"346 -38 OFFCURVE",
"414 -75 OFFCURVE",
"464 -75 CURVE SMOOTH"
);
}
);
};
layerId = "87D3CB61-04AB-46CE-9A04-9D7AFE3B704D";
name = "Bold Italic Aug 8 15, 18:43";
paths = (
{
closed = 1;
nodes = (
"493 -75 OFFCURVE",
"547 104 OFFCURVE",
"553 250 CURVE SMOOTH",
"556 348 OFFCURVE",
"503 396 OFFCURVE",
"382 396 CURVE SMOOTH",
"329 396 OFFCURVE",
"301 388 OFFCURVE",
"285 365 CURVE SMOOTH",
"271 345 OFFCURVE",
"277 262 OFFCURVE",
"293 249 CURVE SMOOTH",
"306 237 OFFCURVE",
"356 232 OFFCURVE",
"405 237 CURVE",
"409 203 LINE",
"340 173 OFFCURVE",
"247 154 OFFCURVE",
"154 156 CURVE",
"185 142 LINE",
"191 345 OFFCURVE",
"281 565 OFFCURVE",
"350 565 CURVE SMOOTH",
"379 565 OFFCURVE",
"385 529 OFFCURVE",
"380 450 CURVE",
"458 420 OFFCURVE",
"541 448 OFFCURVE",
"542 522 CURVE SMOOTH",
"544 599 OFFCURVE",
"461 700 OFFCURVE",
"351 700 CURVE SMOOTH",
"145 700 OFFCURVE",
"30 408 OFFCURVE",
"23 210 CURVE SMOOTH",
"22 129 OFFCURVE",
"139 0 OFFCURVE",
"216 0 CURVE SMOOTH",
"264 0 OFFCURVE",
"321 25 OFFCURVE",
"364 52 CURVE",
"356 28 OFFCURVE",
"347 3 OFFCURVE",
"347 -8 CURVE SMOOTH",
"347 -38 OFFCURVE",
"411 -75 OFFCURVE",
"461 -75 CURVE SMOOTH"
);
}
);
width = 648;
},
{
associatedMasterId = "AF1B7CCB-9C31-456C-8386-1D362D80AEF6";
background = {
paths = (
{
closed = 1;
nodes = (
"551 598 OFFCURVE",
"470 700 OFFCURVE",
"357 700 CURVE SMOOTH",
"147 700 OFFCURVE",
"35 407 OFFCURVE",
"28 210 CURVE SMOOTH",
"27 142 OFFCURVE",
"139 20 OFFCURVE",
"201 20 CURVE SMOOTH",
"261 20 OFFCURVE",
"324 46 OFFCURVE",
"364 75 CURVE",
"347 -8 OFFCURVE",
"326 -169 OFFCURVE",
"282 -169 CURVE SMOOTH",
"255 -169 OFFCURVE",
"238 -118 OFFCURVE",
"220 -59 CURVE",
"147 -26 OFFCURVE",
"79 -78 OFFCURVE",
"78 -135 CURVE SMOOTH",
"78 -204 OFFCURVE",
"179 -280 OFFCURVE",
"269 -280 CURVE SMOOTH",
"335 -280 OFFCURVE",
"403 -256 OFFCURVE",
"438 -215 CURVE SMOOTH",
"472 -174 OFFCURVE",
"533 213 OFFCURVE",
"533 277 CURVE SMOOTH",
"533 312 OFFCURVE",
"445 363 OFFCURVE",
"406 363 CURVE SMOOTH",
"390 363 OFFCURVE",
"377 306 OFFCURVE",
"369 239 CURVE",
"316 206 OFFCURVE",
"266 182 OFFCURVE",
"193 171 CURVE",
"199 346 OFFCURVE",
"292 565 OFFCURVE",
"356 565 CURVE SMOOTH",
"382 565 OFFCURVE",
"390 523 OFFCURVE",
"385 450 CURVE",
"460 422 OFFCURVE",
"548 444 OFFCURVE",
"549 522 CURVE SMOOTH"
);
}
);
};
layerId = "6FDC454D-CFF7-413A-B78F-E0023CDDCC76";
name = "Bold Italic Aug 8 15, 18:56";
paths = (
{
closed = 1;
nodes = (
"338 -111 OFFCURVE",
"307 -192 OFFCURVE",
"267 -239 CURVE",
"236 -229 OFFCURVE",
"199 -211 OFFCURVE",
"198 -186 CURVE SMOOTH",
"196 -144 OFFCURVE",
"286 -73 OFFCURVE",
"356 -29 CURVE"
);
},
{
closed = 1;
nodes = (
"214 51 OFFCURVE",
"307 102 OFFCURVE",
"345 130 CURVE",
"365 100 LINE",
"210 6 OFFCURVE",
"56 -81 OFFCURVE",
"56 -190 CURVE SMOOTH",
"56 -250 OFFCURVE",
"174 -341 OFFCURVE",
"246 -341 CURVE SMOOTH",
"319 -340 OFFCURVE",
"405 -284 OFFCURVE",
"432 -239 CURVE SMOOTH",
"470 -176 OFFCURVE",
"533 204 OFFCURVE",
"533 277 CURVE SMOOTH",
"533 312 OFFCURVE",
"445 363 OFFCURVE",
"406 363 CURVE SMOOTH",
"390 363 OFFCURVE",
"377 306 OFFCURVE",
"369 239 CURVE",
"316 218 OFFCURVE",
"245 204 OFFCURVE",
"193 204 CURVE",
"203 363 OFFCURVE",
"294 565 OFFCURVE",
"356 565 CURVE SMOOTH",
"382 565 OFFCURVE",
"390 523 OFFCURVE",
"385 450 CURVE",
"460 422 OFFCURVE",
"548 444 OFFCURVE",
"549 522 CURVE SMOOTH",
"551 598 OFFCURVE",
"470 700 OFFCURVE",
"357 700 CURVE SMOOTH",
"166 700 OFFCURVE",
"35 441 OFFCURVE",
"28 243 CURVE SMOOTH",
"27 175 OFFCURVE",
"123 52 OFFCURVE",
"165 52 CURVE SMOOTH"
);
}
);
width = 593;
},
{
background = {
paths = (
{
closed = 1;
nodes = (
"544 599 OFFCURVE",
"461 700 OFFCURVE",
"351 700 CURVE SMOOTH",
"145 700 OFFCURVE",
"30 408 OFFCURVE",
"23 210 CURVE SMOOTH",
"22 141 OFFCURVE",
"136 20 OFFCURVE",
"195 20 CURVE SMOOTH",
"245 20 OFFCURVE",
"319 40 OFFCURVE",
"359 57 CURVE",
"338 -4 OFFCURVE",
"311 -165 OFFCURVE",
"263 -163 CURVE SMOOTH",
"237 -162 OFFCURVE",
"218 -104 OFFCURVE",
"203 -51 CURVE",
"135 -22 OFFCURVE",
"66 -60 OFFCURVE",
"62 -121 CURVE SMOOTH",
"59 -191 OFFCURVE",
"157 -270 OFFCURVE",
"245 -274 CURVE SMOOTH",
"310 -276 OFFCURVE",
"376 -256 OFFCURVE",
"414 -216 CURVE SMOOTH",
"448 -177 OFFCURVE",
"526 208 OFFCURVE",
"529 278 CURVE SMOOTH",
"530 305 OFFCURVE",
"449 361 OFFCURVE",
"417 363 CURVE SMOOTH",
"400 363 OFFCURVE",
"383 314 OFFCURVE",
"371 221 CURVE",
"313 195 OFFCURVE",
"253 181 OFFCURVE",
"185 171 CURVE",
"191 345 OFFCURVE",
"281 565 OFFCURVE",
"350 565 CURVE SMOOTH",
"379 565 OFFCURVE",
"385 529 OFFCURVE",
"380 450 CURVE",
"458 420 OFFCURVE",
"541 448 OFFCURVE",
"542 522 CURVE SMOOTH"
);
}
);
};
layerId = "AF1B7CCB-9C31-456C-8386-1D362D80AEF6";
name = "Bold Italic";
paths = (
{
closed = 1;
nodes = (
"544 599 OFFCURVE",
"461 700 OFFCURVE",
"351 700 CURVE SMOOTH",
"145 700 OFFCURVE",
"30 408 OFFCURVE",
"23 210 CURVE SMOOTH",
"22 148 OFFCURVE",
"124 20 OFFCURVE",
"184 20 CURVE SMOOTH",
"245 20 OFFCURVE",
"306 46 OFFCURVE",
"359 77 CURVE",
"345 -15 OFFCURVE",
"311 -165 OFFCURVE",
"263 -163 CURVE SMOOTH",
"237 -162 OFFCURVE",
"218 -104 OFFCURVE",
"203 -51 CURVE",
"135 -22 OFFCURVE",
"66 -60 OFFCURVE",
"62 -121 CURVE SMOOTH",
"59 -191 OFFCURVE",
"157 -270 OFFCURVE",
"245 -274 CURVE SMOOTH",
"310 -276 OFFCURVE",
"376 -256 OFFCURVE",
"414 -216 CURVE SMOOTH",
"448 -177 OFFCURVE",
"526 208 OFFCURVE",
"529 278 CURVE SMOOTH",
"530 305 OFFCURVE",
"449 361 OFFCURVE",
"417 363 CURVE SMOOTH",
"400 363 OFFCURVE",
"383 302 OFFCURVE",
"371 241 CURVE",
"322 209 OFFCURVE",
"253 181 OFFCURVE",
"185 171 CURVE",
"191 345 OFFCURVE",
"281 565 OFFCURVE",
"350 565 CURVE SMOOTH",
"379 565 OFFCURVE",
"385 529 OFFCURVE",
"380 450 CURVE",
"458 420 OFFCURVE",
"541 448 OFFCURVE",
"542 522 CURVE SMOOTH"
);
}
);
width = 585;
}
);
leftMetricsKey = C;
},
{
glyphname = a;
lastChange = "2015-08-07 16:01:45 +0000";
layers = (
{
background = {
paths = (
{
closed = 1;
nodes = (
"529 171 OFFCURVE",
"507 159 OFFCURVE",
"457 140 CURVE",
"487 227 OFFCURVE",
"548 377 OFFCURVE",
"549 416 CURVE SMOOTH",
"549 442 OFFCURVE",
"475 511 OFFCURVE",
"422 511 CURVE SMOOTH",
"407 511 OFFCURVE",
"394 483 OFFCURVE",
"389 459 CURVE",
"378 493 OFFCURVE",
"331 537 OFFCURVE",
"292 537 CURVE SMOOTH",
"124 537 OFFCURVE",
"15 324 OFFCURVE",
"15 159 CURVE SMOOTH",
"15 99 OFFCURVE",
"96 0 OFFCURVE",
"160 0 CURVE SMOOTH",
"226 0 OFFCURVE",
"293 95 OFFCURVE",
"348 184 CURVE",
"371 170 LINE",
"353 138 OFFCURVE",
"333 105 OFFCURVE",
"333 87 CURVE SMOOTH",
"333 64 OFFCURVE",
"409 0 OFFCURVE",
"453 0 CURVE SMOOTH",
"503 0 OFFCURVE",
"638 44 OFFCURVE",
"639 92 CURVE SMOOTH",
"641 141 OFFCURVE",
"618 175 OFFCURVE",
"564 198 CURVE"
);
},
{
closed = 1;
nodes = (
"177 275 OFFCURVE",
"234 416 OFFCURVE",
"329 416 CURVE SMOOTH",
"344 416 OFFCURVE",
"360 412 OFFCURVE",
"377 405 CURVE",
"355 296 OFFCURVE",
"262 196 OFFCURVE",
"165 132 CURVE"
);
}
);
};
layerId = "AF1B7CCB-9C31-456C-8386-1D362D80AEF6";
name = "Bold Italic";
paths = (
{
closed = 1;
nodes = (
"177 275 OFFCURVE",
"234 416 OFFCURVE",
"329 416 CURVE SMOOTH",
"344 416 OFFCURVE",
"360 412 OFFCURVE",
"377 405 CURVE",
"348 287 OFFCURVE",
"262 192 OFFCURVE",
"165 132 CURVE"
);
},
{
closed = 1;
nodes = (
"487 227 OFFCURVE",
"548 377 OFFCURVE",
"549 416 CURVE SMOOTH",
"549 442 OFFCURVE",
"475 511 OFFCURVE",
"422 511 CURVE SMOOTH",
"407 511 OFFCURVE",
"394 483 OFFCURVE",
"389 459 CURVE",
"378 493 OFFCURVE",
"331 537 OFFCURVE",
"292 537 CURVE SMOOTH",
"124 537 OFFCURVE",
"15 324 OFFCURVE",
"15 159 CURVE SMOOTH",
"15 99 OFFCURVE",
"96 0 OFFCURVE",
"160 0 CURVE SMOOTH",
"226 0 OFFCURVE",
"293 95 OFFCURVE",
"348 184 CURVE",
"371 170 LINE",
"353 138 OFFCURVE",
"333 105 OFFCURVE",
"333 89 CURVE SMOOTH",
"332 63 OFFCURVE",
"407 0 OFFCURVE",
"452 0 CURVE SMOOTH",
"514 0 OFFCURVE",
"638 54 OFFCURVE",
"638 104 CURVE SMOOTH",
"638 146 OFFCURVE",
"612 181 OFFCURVE",
"555 201 CURVE",
"524 175 OFFCURVE",
"494 158 OFFCURVE",
"457 140 CURVE"
);
}
);
width = 646;
}
);
leftMetricsKey = c;
rightMetricsKey = u;
unicode = 0061;
},
{
glyphname = b;
lastChange = "2015-08-07 16:01:45 +0000";
layers = (
{
background = {
paths = (
{
closed = 1;
nodes = (
"228 462 LINE",
"252 513 OFFCURVE",
"284 593 OFFCURVE",
"284 631 CURVE SMOOTH",
"284 665 OFFCURVE",
"203 738 OFFCURVE",
"146 738 CURVE SMOOTH",
"121 738 OFFCURVE",
"102 717 OFFCURVE",
"102 690 CURVE SMOOTH",
"102 632 OFFCURVE",
"83 457 OFFCURVE",
"63 370 CURVE SMOOTH",
"46 295 OFFCURVE",
"22 210 OFFCURVE",
"22 164 CURVE SMOOTH",
"22 106 OFFCURVE",
"108 0 OFFCURVE",
"185 0 CURVE SMOOTH",
"369 0 OFFCURVE",
"502 226 OFFCURVE",
"502 372 CURVE SMOOTH",
"502 459 OFFCURVE",
"446 519 OFFCURVE",
"354 537 CURVE",
"218 474 LINE"
);
},
{
closed = 1;
nodes = (
"132 120 OFFCURVE",
"188 401 OFFCURVE",
"235 425 CURVE SMOOTH",
"263 439 OFFCURVE",
"350 398 OFFCURVE",
"350 373 CURVE SMOOTH",
"350 294 OFFCURVE",
"269 120 OFFCURVE",
"187 120 CURVE SMOOTH"
);
}
);
};
layerId = "AF1B7CCB-9C31-456C-8386-1D362D80AEF6";
name = "Bold Italic";
paths = (
{
closed = 1;
nodes = (
"132 120 OFFCURVE",
"188 390 OFFCURVE",
"235 414 CURVE SMOOTH",
"263 428 OFFCURVE",
"353 386 OFFCURVE",
"353 361 CURVE SMOOTH",
"353 282 OFFCURVE",
"269 120 OFFCURVE",
"187 120 CURVE SMOOTH"
);
},
{
closed = 1;
nodes = (
"24 98 OFFCURVE",
"128 0 OFFCURVE",
"185 0 CURVE SMOOTH",
"369 0 OFFCURVE",
"505 214 OFFCURVE",
"505 360 CURVE SMOOTH",
"505 447 OFFCURVE",
"446 508 OFFCURVE",
"354 526 CURVE",
"218 463 LINE",
"228 443 LINE",
"234 461 OFFCURVE",
"240 477 OFFCURVE",
"245 490 CURVE SMOOTH",
"262 532 OFFCURVE",
"324 597 OFFCURVE",
"324 632 CURVE SMOOTH",
"324 668 OFFCURVE",
"216 738 OFFCURVE",
"183 738 CURVE SMOOTH",
"134 738 OFFCURVE",
"100 521 OFFCURVE",
"80 414 CURVE SMOOTH",
"58 297 OFFCURVE",
"24 211 OFFCURVE",
"24 153 CURVE SMOOTH"
);
}
);
width = 530;
},
{
associatedMasterId = "AF1B7CCB-9C31-456C-8386-1D362D80AEF6";
background = {
paths = (
{
closed = 1;
nodes = (
"255 436 LINE",
"279 497 OFFCURVE",
"305 584 OFFCURVE",
"305 631 CURVE SMOOTH",
"305 665 OFFCURVE",
"206 738 OFFCURVE",
"149 738 CURVE SMOOTH",
"124 738 OFFCURVE",
"105 717 OFFCURVE",
"105 690 CURVE SMOOTH",
"105 632 OFFCURVE",
"103 457 OFFCURVE",
"80 370 CURVE SMOOTH",
"60 295 OFFCURVE",
"42 210 OFFCURVE",
"42 164 CURVE SMOOTH",
"42 103 OFFCURVE",
"156 0 OFFCURVE",
"241 0 CURVE SMOOTH",
"377 0 OFFCURVE",
"524 177 OFFCURVE",
"524 320 CURVE SMOOTH",
"524 419 OFFCURVE",
"449 470 OFFCURVE",
"346 475 CURVE",
"247 456 LINE"
);
},
{
closed = 1;
nodes = (
"169 122 OFFCURVE",
"207 351 OFFCURVE",
"253 375 CURVE SMOOTH",
"281 389 OFFCURVE",
"368 348 OFFCURVE",
"368 323 CURVE SMOOTH",
"368 251 OFFCURVE",
"286 122 OFFCURVE",
"222 122 CURVE SMOOTH"
);
}
);
};
layerId = "897D1DED-CEDC-41F5-84BD-A46E62647F06";
name = "Bold Italic Aug 1 15, 18:41";
paths = (
{
closed = 1;
nodes = (
"255 436 LINE",
"279 497 OFFCURVE",
"322 584 OFFCURVE",
"322 631 CURVE SMOOTH",
"322 665 OFFCURVE",
"223 738 OFFCURVE",
"166 738 CURVE SMOOTH",
"141 738 OFFCURVE",
"122 717 OFFCURVE",
"122 690 CURVE SMOOTH",
"122 632 OFFCURVE",
"103 457 OFFCURVE",
"80 370 CURVE SMOOTH",
"60 295 OFFCURVE",
"42 210 OFFCURVE",
"42 164 CURVE SMOOTH",
"42 112 OFFCURVE",
"132 0 OFFCURVE",
"223 0 CURVE SMOOTH",
"385 0 OFFCURVE",
"533 198 OFFCURVE",
"533 346 CURVE SMOOTH",
"533 445 OFFCURVE",
"458 496 OFFCURVE",
"355 501 CURVE",
"248 468 LINE"
);
},
{
closed = 1;
nodes = (
"167 122 OFFCURVE",
"215 377 OFFCURVE",
"262 401 CURVE SMOOTH",
"290 415 OFFCURVE",
"377 374 OFFCURVE",
"377 349 CURVE SMOOTH",
"377 273 OFFCURVE",
"294 122 OFFCURVE",
"222 122 CURVE SMOOTH"
);
}
);
width = 568;
},
{
associatedMasterId = "AF1B7CCB-9C31-456C-8386-1D362D80AEF6";
background = {
paths = (
{
closed = 1;
nodes = (
"217 436 LINE",
"241 487 OFFCURVE",
"284 593 OFFCURVE",
"284 631 CURVE SMOOTH",
"284 665 OFFCURVE",
"203 738 OFFCURVE",
"146 738 CURVE SMOOTH",
"121 738 OFFCURVE",
"102 717 OFFCURVE",
"102 690 CURVE SMOOTH",
"102 632 OFFCURVE",
"83 457 OFFCURVE",
"63 370 CURVE SMOOTH",
"46 295 OFFCURVE",
"22 210 OFFCURVE",
"22 164 CURVE SMOOTH",
"22 106 OFFCURVE",
"108 0 OFFCURVE",
"185 0 CURVE SMOOTH",
"347 0 OFFCURVE",
"494 198 OFFCURVE",
"494 346 CURVE SMOOTH",
"494 445 OFFCURVE",
"423 496 OFFCURVE",
"317 501 CURVE",
"210 468 LINE"
);
},
{
closed = 1;
nodes = (
"132 120 OFFCURVE",
"180 375 OFFCURVE",
"227 399 CURVE SMOOTH",
"255 413 OFFCURVE",
"342 372 OFFCURVE",
"342 347 CURVE SMOOTH",
"342 271 OFFCURVE",
"259 120 OFFCURVE",
"187 120 CURVE SMOOTH"
);
}
);
};
layerId = "24251565-7769-4E4E-8D5D-CA25AB8DFF0C";
name = "Bold Italic Aug 4 15, 14:39";
paths = (
{
closed = 1;
nodes = (
"228 462 LINE",
"252 513 OFFCURVE",
"284 593 OFFCURVE",
"284 631 CURVE SMOOTH",
"284 665 OFFCURVE",
"203 738 OFFCURVE",
"146 738 CURVE SMOOTH",
"121 738 OFFCURVE",
"102 717 OFFCURVE",
"102 690 CURVE SMOOTH",
"102 632 OFFCURVE",
"83 457 OFFCURVE",
"63 370 CURVE SMOOTH",
"46 295 OFFCURVE",
"22 210 OFFCURVE",
"22 164 CURVE SMOOTH",
"22 106 OFFCURVE",
"108 0 OFFCURVE",
"185 0 CURVE SMOOTH",
"369 0 OFFCURVE",
"502 226 OFFCURVE",
"502 372 CURVE SMOOTH",
"502 459 OFFCURVE",
"446 519 OFFCURVE",
"354 537 CURVE",
"218 474 LINE"
);
},
{
closed = 1;
nodes = (
"132 120 OFFCURVE",
"188 401 OFFCURVE",
"235 425 CURVE SMOOTH",
"263 439 OFFCURVE",
"350 398 OFFCURVE",
"350 373 CURVE SMOOTH",
"350 294 OFFCURVE",
"269 120 OFFCURVE",
"187 120 CURVE SMOOTH"
);
}
);
width = 525;
}
);
rightMetricsKey = o;
unicode = 0062;
},
{
glyphname = c;
lastChange = "2015-08-07 16:01:45 +0000";
layers = (
{
background = {
paths = (
{
closed = 1;
nodes = (
"168 223 OFFCURVE",
"194 358 OFFCURVE",
"296 415 CURVE",
"316 395 OFFCURVE",
"334 372 OFFCURVE",
"342 341 CURVE",
"416 317 OFFCURVE",
"475 355 OFFCURVE",
"473 410 CURVE SMOOTH",
"472 466 OFFCURVE",
"386 537 OFFCURVE",
"273 537 CURVE SMOOTH",
"117 537 OFFCURVE",
"18 318 OFFCURVE",
"18 187 CURVE SMOOTH",
"18 108 OFFCURVE",
"132 0 OFFCURVE",
"228 0 CURVE SMOOTH",
"321 0 OFFCURVE",
"445 54 OFFCURVE",
"443 117 CURVE SMOOTH",
"442 172 OFFCURVE",
"400 207 OFFCURVE",
"340 218 CURVE",
"292 163 OFFCURVE",
"237 129 OFFCURVE",
"174 126 CURVE"
);
}
);
};
layerId = "AF1B7CCB-9C31-456C-8386-1D362D80AEF6";
name = "Bold Italic";
paths = (
{
closed = 1;
nodes = (
"164 225 OFFCURVE",
"199 358 OFFCURVE",
"300 424 CURVE",
"322 406 OFFCURVE",
"340 372 OFFCURVE",
"352 342 CURVE",
"428 328 OFFCURVE",
"473 372 OFFCURVE",
"473 415 CURVE SMOOTH",
"473 478 OFFCURVE",
"386 537 OFFCURVE",
"289 537 CURVE SMOOTH",
"126 537 OFFCURVE",
"18 332 OFFCURVE",
"18 187 CURVE SMOOTH",
"18 108 OFFCURVE",
"132 0 OFFCURVE",
"228 0 CURVE SMOOTH",
"321 0 OFFCURVE",
"445 54 OFFCURVE",
"443 117 CURVE SMOOTH",
"442 172 OFFCURVE",
"400 207 OFFCURVE",
"340 218 CURVE",
"292 163 OFFCURVE",
"237 129 OFFCURVE",
"174 126 CURVE"
);
}
);
width = 494;
},
{
associatedMasterId = "AF1B7CCB-9C31-456C-8386-1D362D80AEF6";
background = {
paths = (
{
closed = 1;
nodes = (
"145 125 OFFCURVE",
"167 358 OFFCURVE",
"297 415 CURVE",
"316 395 OFFCURVE",
"334 372 OFFCURVE",
"341 341 CURVE",
"414 317 OFFCURVE",
"474 355 OFFCURVE",
"474 410 CURVE SMOOTH",
"474 466 OFFCURVE",
"390 537 OFFCURVE",
"277 537 CURVE SMOOTH",
"111 537 OFFCURVE",
"8 304 OFFCURVE",
"8 187 CURVE SMOOTH",
"8 105 OFFCURVE",
"130 0 OFFCURVE",
"213 0 CURVE SMOOTH",
"306 0 OFFCURVE",
"431 54 OFFCURVE",
"431 117 CURVE SMOOTH",
"431 172 OFFCURVE",
"390 207 OFFCURVE",
"331 218 CURVE",
"281 163 OFFCURVE",
"225 125 OFFCURVE",
"182 125 CURVE SMOOTH"
);
}
);
};
layerId = "2B4D29C4-F824-467E-B199-CB74C1A12E33";
name = "Bold Italic Aug 4 15, 13:46";
paths = (
{
closed = 1;
nodes = (
"168 223 OFFCURVE",
"194 358 OFFCURVE",
"296 415 CURVE",
"316 395 OFFCURVE",
"334 372 OFFCURVE",
"342 341 CURVE",
"416 317 OFFCURVE",
"475 355 OFFCURVE",
"473 410 CURVE SMOOTH",
"472 466 OFFCURVE",
"386 537 OFFCURVE",
"273 537 CURVE SMOOTH",
"117 537 OFFCURVE",
"18 318 OFFCURVE",
"18 187 CURVE SMOOTH",
"18 108 OFFCURVE",
"132 0 OFFCURVE",
"228 0 CURVE SMOOTH",
"321 0 OFFCURVE",
"445 54 OFFCURVE",
"443 117 CURVE SMOOTH",
"442 172 OFFCURVE",
"400 207 OFFCURVE",
"340 218 CURVE",
"292 163 OFFCURVE",
"237 129 OFFCURVE",
"174 126 CURVE"
);
}
);
width = 494;
}
);
leftMetricsKey = o;
unicode = 0063;
},
{
glyphname = d;
lastChange = "2015-08-07 16:01:45 +0000";
layers = (
{
background = {
paths = (
{
closed = 1;
nodes = (
"319 258 OFFCURVE",
"235 185 OFFCURVE",
"165 132 CURVE",
"177 275 OFFCURVE",
"234 416 OFFCURVE",
"329 416 CURVE SMOOTH",
"354 416 OFFCURVE",
"382 406 OFFCURVE",
"414 384 CURVE",
"444 416 LINE",
"410 478 OFFCURVE",
"344 537 OFFCURVE",
"281 537 CURVE SMOOTH",
"139 537 OFFCURVE",
"15 337 OFFCURVE",
"15 159 CURVE SMOOTH",
"15 99 OFFCURVE",
"103 0 OFFCURVE",
"166 0 CURVE SMOOTH",
"226 0 OFFCURVE",
"293 95 OFFCURVE",
"348 184 CURVE",
"371 170 LINE",
"353 138 OFFCURVE",
"333 105 OFFCURVE",
"333 87 CURVE SMOOTH",
"333 64 OFFCURVE",
"409 0 OFFCURVE",
"453 0 CURVE SMOOTH",
"503 0 OFFCURVE",
"638 44 OFFCURVE",
"639 92 CURVE SMOOTH",
"641 141 OFFCURVE",
"618 175 OFFCURVE",
"564 198 CURVE",
"529 171 OFFCURVE",
"507 159 OFFCURVE",
"457 140 CURVE",
"466 192 OFFCURVE",
"483 272 OFFCURVE",
"496 327 CURVE SMOOTH",
"519 425 OFFCURVE",
"583 574 OFFCURVE",
"583 631 CURVE SMOOTH",
"583 665 OFFCURVE",
"502 738 OFFCURVE",
"445 738 CURVE SMOOTH",
"420 738 OFFCURVE",
"401 717 OFFCURVE",
"401 690 CURVE SMOOTH",
"401 632 OFFCURVE",
"399 458 OFFCURVE",
"372 366 CURVE"
);
}
);
};
layerId = "AF1B7CCB-9C31-456C-8386-1D362D80AEF6";
name = "Bold Italic";
paths = (
{
closed = 1;
nodes = (
"371 170 LINE",
"353 138 OFFCURVE",
"333 105 OFFCURVE",
"333 89 CURVE SMOOTH",
"332 63 OFFCURVE",
"407 0 OFFCURVE",
"452 0 CURVE SMOOTH",
"514 0 OFFCURVE",
"638 54 OFFCURVE",
"638 104 CURVE SMOOTH",
"638 146 OFFCURVE",
"612 181 OFFCURVE",
"555 201 CURVE",
"524 175 OFFCURVE",
"494 158 OFFCURVE",
"457 140 CURVE",
"466 192 OFFCURVE",
"483 272 OFFCURVE",
"496 327 CURVE SMOOTH",
"519 425 OFFCURVE",
"583 574 OFFCURVE",
"583 631 CURVE SMOOTH",
"583 665 OFFCURVE",
"502 738 OFFCURVE",
"445 738 CURVE SMOOTH",
"420 738 OFFCURVE",
"401 717 OFFCURVE",
"401 690 CURVE SMOOTH",
"401 632 OFFCURVE",
"399 458 OFFCURVE",
"372 366 CURVE",
"319 258 OFFCURVE",
"235 185 OFFCURVE",
"165 132 CURVE",
"177 275 OFFCURVE",
"234 416 OFFCURVE",
"329 416 CURVE SMOOTH",
"354 416 OFFCURVE",
"382 406 OFFCURVE",
"414 384 CURVE",
"444 416 LINE",
"410 478 OFFCURVE",
"344 537 OFFCURVE",
"281 537 CURVE SMOOTH",
"139 537 OFFCURVE",
"15 337 OFFCURVE",
"15 159 CURVE SMOOTH",
"15 99 OFFCURVE",
"103 0 OFFCURVE",
"166 0 CURVE SMOOTH",
"226 0 OFFCURVE",
"293 95 OFFCURVE",
"348 184 CURVE"
);
}
);
width = 646;
}
);
leftMetricsKey = a;
rightMetricsKey = u;
unicode = 0064;
},
{
glyphname = e;
lastChange = "2015-08-07 16:01:45 +0000";
layers = (
{
background = {
paths = (
{
closed = 1;
nodes = (
"157 199 LINE",
"336 222 OFFCURVE",
"458 308 OFFCURVE",
"458 390 CURVE SMOOTH",
"458 455 OFFCURVE",
"386 537 OFFCURVE",
"273 537 CURVE SMOOTH",
"117 537 OFFCURVE",
"18 318 OFFCURVE",
"18 187 CURVE SMOOTH",
"18 108 OFFCURVE",
"132 0 OFFCURVE",
"228 0 CURVE SMOOTH",
"318 0 OFFCURVE",
"446 54 OFFCURVE",
"446 115 CURVE SMOOTH",
"446 161 OFFCURVE",
"420 195 OFFCURVE",
"370 210 CURVE",
"302 164 OFFCURVE",
"241 132 OFFCURVE",
"174 126 CURVE",
"164 248 OFFCURVE",
"207 360 OFFCURVE",
"296 415 CURVE",
"312 407 OFFCURVE",
"312 394 OFFCURVE",
"312 381 CURVE SMOOTH",
"312 346 OFFCURVE",
"253 288 OFFCURVE",
"151 261 CURVE"
);
}
);
};
layerId = "AF1B7CCB-9C31-456C-8386-1D362D80AEF6";
name = "Bold Italic";
paths = (
{
closed = 1;
nodes = (
"318 0 OFFCURVE",
"446 54 OFFCURVE",
"446 115 CURVE SMOOTH",
"446 161 OFFCURVE",
"420 195 OFFCURVE",
"370 210 CURVE",
"302 164 OFFCURVE",
"241 132 OFFCURVE",
"174 126 CURVE",
"171 152 OFFCURVE",
"171 177 OFFCURVE",
"173 203 CURVE",
"344 228 OFFCURVE",
"458 311 OFFCURVE",
"458 390 CURVE SMOOTH",
"458 454 OFFCURVE",
"385 537 OFFCURVE",
"273 537 CURVE SMOOTH",
"117 537 OFFCURVE",
"18 318 OFFCURVE",
"18 187 CURVE SMOOTH",
"18 108 OFFCURVE",
"132 0 OFFCURVE",
"228 0 CURVE SMOOTH"
);
},
{
closed = 1;
nodes = (
"204 333 OFFCURVE",
"239 384 OFFCURVE",
"287 419 CURVE",
"312 412 OFFCURVE",
"324 399 OFFCURVE",
"324 383 CURVE SMOOTH",
"324 353 OFFCURVE",
"268 303 OFFCURVE",
"188 274 CURVE"
);
}
);
width = 497;
},
{
associatedMasterId = "AF1B7CCB-9C31-456C-8386-1D362D80AEF6";
background = {
paths = (
{
closed = 1;
nodes = (
"175 223 OFFCURVE",
"201 358 OFFCURVE",
"303 415 CURVE",
"323 395 OFFCURVE",
"341 372 OFFCURVE",
"349 341 CURVE",
"423 317 OFFCURVE",
"482 355 OFFCURVE",
"480 410 CURVE SMOOTH",
"479 466 OFFCURVE",
"393 537 OFFCURVE",
"280 537 CURVE SMOOTH",
"124 537 OFFCURVE",
"25 318 OFFCURVE",
"25 187 CURVE SMOOTH",
"25 108 OFFCURVE",
"139 0 OFFCURVE",
"235 0 CURVE SMOOTH",
"328 0 OFFCURVE",
"452 54 OFFCURVE",
"450 117 CURVE SMOOTH",
"449 172 OFFCURVE",
"407 207 OFFCURVE",
"347 218 CURVE",
"299 163 OFFCURVE",
"244 129 OFFCURVE",
"181 126 CURVE"
);
}
);
};
components = (
{
name = o.alt;
}
);
layerId = "E2877D9A-1F86-44E4-ABDB-975C1FAF2422";
name = "Bold Italic Aug 1 15, 19:07";
width = 507;
}
);
leftMetricsKey = c;
rightMetricsKey = c;
unicode = 0065;
},
{
glyphname = f;
lastChange = "2015-08-07 16:01:45 +0000";
layers = (
{
background = {
paths = (
{
closed = 1;
nodes = (
"110 594 OFFCURVE",
"141 459 OFFCURVE",
"124 371 CURVE SMOOTH",
"100 256 OFFCURVE",
"39 148 OFFCURVE",
"43 94 CURVE SMOOTH",
"44 62 OFFCURVE",
"129 1 OFFCURVE",
"179 1 CURVE SMOOTH",
"218 1 OFFCURVE",
"229 226 OFFCURVE",
"247 354 CURVE SMOOTH",
"261 451 OFFCURVE",
"265 624 OFFCURVE",
"294 624 CURVE SMOOTH",
"321 624 OFFCURVE",
"330 566 OFFCURVE",
"330 525 CURVE",
"394 485 OFFCURVE",
"474 521 OFFCURVE",
"474 584 CURVE SMOOTH",
"474 649 OFFCURVE",
"405 738 OFFCURVE",
"275 738 CURVE SMOOTH",
"219 738 OFFCURVE",
"139 694 OFFCURVE",
"127 650 CURVE SMOOTH"
);
},
{
closed = 1;
nodes = (
"162 302 OFFCURVE",
"280 309 OFFCURVE",
"392 317 CURVE",
"425 360 OFFCURVE",
"419 413 OFFCURVE",
"377 445 CURVE",
"250 413 OFFCURVE",
"173 409 OFFCURVE",
"37 409 CURVE",
"-4 373 OFFCURVE",
"3 305 OFFCURVE",
"47 283 CURVE"
);
}
);
};
layerId = "AF1B7CCB-9C31-456C-8386-1D362D80AEF6";
name = "Bold Italic";
paths = (
{
closed = 1;
nodes = (
"217 0 OFFCURVE",
"226 177 OFFCURVE",
"238 306 CURVE",
"292 310 OFFCURVE",
"343 313 OFFCURVE",
"392 317 CURVE",
"425 360 OFFCURVE",
"419 413 OFFCURVE",
"377 445 CURVE",
"331 434 OFFCURVE",
"292 426 OFFCURVE",
"252 420 CURVE",
"252 509 OFFCURVE",
"267 566 OFFCURVE",
"281 624 CURVE",
"308 602 OFFCURVE",
"322 570 OFFCURVE",
"330 522 CURVE",
"406 504 OFFCURVE",
"459 539 OFFCURVE",
"459 597 CURVE SMOOTH",
"459 664 OFFCURVE",
"377 738 OFFCURVE",
"272 738 CURVE SMOOTH",
"212 738 OFFCURVE",
"135 685 OFFCURVE",
"125 650 CURVE SMOOTH",
"112 601 OFFCURVE",
"125 495 OFFCURVE",
"135 410 CURVE",
"100 409 OFFCURVE",
"71 409 OFFCURVE",
"37 409 CURVE",
"-4 373 OFFCURVE",
"3 305 OFFCURVE",
"47 283 CURVE",
"65 286 OFFCURVE",
"84 289 OFFCURVE",
"112 293 CURVE",
"87 224 OFFCURVE",
"43 126 OFFCURVE",
"43 90 CURVE SMOOTH",
"43 57 OFFCURVE",
"127 0 OFFCURVE",
"183 0 CURVE SMOOTH"
);
}
);
width = 420;
},
{
associatedMasterId = "AF1B7CCB-9C31-456C-8386-1D362D80AEF6";
background = {
paths = (
{
closed = 1;
nodes = (
"239 441 OFFCURVE",
"303 574 OFFCURVE",
"303 631 CURVE SMOOTH",
"303 665 OFFCURVE",
"222 738 OFFCURVE",
"165 738 CURVE SMOOTH",
"140 738 OFFCURVE",
"121 717 OFFCURVE",
"121 690 CURVE SMOOTH",
"121 632 OFFCURVE",
"119 458 OFFCURVE",
"96 370 CURVE SMOOTH",
"65 255 OFFCURVE",
"9 147 OFFCURVE",
"9 93 CURVE SMOOTH",
"9 61 OFFCURVE",
"91 0 OFFCURVE",
"141 0 CURVE SMOOTH",
"171 0 OFFCURVE",
"176 119 OFFCURVE",
"215 318 CURVE SMOOTH"
);
},
{
closed = 1;
nodes = (
"132 292 OFFCURVE",
"234 295 OFFCURVE",
"346 300 CURVE",
"379 343 OFFCURVE",
"373 396 OFFCURVE",
"331 428 CURVE",
"204 403 OFFCURVE",
"143 401 OFFCURVE",
"7 409 CURVE",
"-34 373 OFFCURVE",
"-27 305 OFFCURVE",
"17 283 CURVE"
);
},
{
closed = 0;
nodes = (
"186 326 LINE",
"180 423 OFFCURVE",
"206 558 OFFCURVE",
"308 615 CURVE",
"328 595 OFFCURVE",
"346 572 OFFCURVE",
"354 541 CURVE",
"428 517 OFFCURVE",
"487 555 OFFCURVE",
"485 610 CURVE SMOOTH",
"484 666 OFFCURVE",
"398 737 OFFCURVE",
"285 737 CURVE SMOOTH",
"129 737 OFFCURVE",
"30 518 OFFCURVE",
"30 387 CURVE SMOOTH"
);
}
);
};
layerId = "0804A6C1-86BA-4921-8D28-FEC66EB55315";
name = "Bold Italic Aug 4 15, 15:09";
paths = (
{
closed = 1;
nodes = (
"112 593 OFFCURVE",
"119 458 OFFCURVE",
"96 370 CURVE SMOOTH",
"65 255 OFFCURVE",
"9 147 OFFCURVE",
"9 93 CURVE SMOOTH",
"9 61 OFFCURVE",
"91 0 OFFCURVE",
"141 0 CURVE SMOOTH",
"171 0 OFFCURVE",
"176 119 OFFCURVE",
"215 318 CURVE SMOOTH",
"239 441 OFFCURVE",
"258 627 OFFCURVE",
"296 627 CURVE SMOOTH",
"319 627 OFFCURVE",
"346 581 OFFCURVE",
"354 541 CURVE",
"428 517 OFFCURVE",
"487 555 OFFCURVE",
"485 610 CURVE SMOOTH",
"484 666 OFFCURVE",
"398 737 OFFCURVE",
"285 737 CURVE SMOOTH",
"228 737 OFFCURVE",
"147 693 OFFCURVE",
"132 649 CURVE SMOOTH"
);
},
{
closed = 1;
nodes = (
"132 292 OFFCURVE",
"234 295 OFFCURVE",
"346 300 CURVE",
"379 343 OFFCURVE",
"373 396 OFFCURVE",
"331 428 CURVE",
"204 403 OFFCURVE",
"143 401 OFFCURVE",
"7 409 CURVE",
"-34 373 OFFCURVE",
"-27 305 OFFCURVE",
"17 283 CURVE"
);
}
);
width = 384;
},
{
associatedMasterId = "AF1B7CCB-9C31-456C-8386-1D362D80AEF6";
background = {
paths = (
{
closed = 1;
nodes = (
"239 -170 OFFCURVE",
"363 28 OFFCURVE",
"363 152 CURVE SMOOTH",
"363 227 OFFCURVE",
"271 273 OFFCURVE",
"158 300 CURVE",
"145 246 LINE",
"170 224 OFFCURVE",
"217 188 OFFCURVE",
"217 151 CURVE SMOOTH",
"217 86 OFFCURVE",
"176 -2 OFFCURVE",
"128 -45 CURVE",
"129 86 OFFCURVE",
"194 381 OFFCURVE",
"225 484 CURVE SMOOTH",
"241 535 OFFCURVE",
"306 597 OFFCURVE",
"306 632 CURVE SMOOTH",
"306 668 OFFCURVE",
"210 738 OFFCURVE",
"177 738 CURVE SMOOTH",
"128 738 OFFCURVE",
"100 509 OFFCURVE",
"80 402 CURVE SMOOTH",
"54 260 OFFCURVE",
"-9 -20 OFFCURVE",
"-9 -76 CURVE SMOOTH",
"-9 -115 OFFCURVE",
"87 -170 OFFCURVE",
"134 -170 CURVE SMOOTH"
);
},
{
closed = 1;
nodes = (
"242 289 OFFCURVE",
"306 297 OFFCURVE",
"375 306 CURVE",
"404 352 OFFCURVE",
"393 404 OFFCURVE",
"349 433 CURVE",
"276 411 OFFCURVE",
"226 400 OFFCURVE",
"169 393 CURVE",
"177 280 LINE"
);
}
);
};
layerId = "41E7C882-ADC3-4916-9EE7-2DA9B5810278";
name = "Bold Italic Aug 4 15, 16:23";
paths = (
{
closed = 1;
nodes = (
"237 -170 OFFCURVE",
"363 34 OFFCURVE",
"363 136 CURVE SMOOTH",
"363 197 OFFCURVE",
"306 256 OFFCURVE",
"212 293 CURVE",
"375 294 LINE",
"416 334 OFFCURVE",
"414 402 OFFCURVE",
"363 435 CURVE",
"302 417 OFFCURVE",
"257 405 OFFCURVE",
"202 398 CURVE",
"211 433 OFFCURVE",
"219 463 OFFCURVE",
"225 484 CURVE SMOOTH",
"241 535 OFFCURVE",
"306 597 OFFCURVE",
"306 632 CURVE SMOOTH",
"306 668 OFFCURVE",
"210 738 OFFCURVE",
"177 738 CURVE SMOOTH",
"128 738 OFFCURVE",
"100 509 OFFCURVE",
"80 402 CURVE SMOOTH",
"54 260 OFFCURVE",
"-9 -20 OFFCURVE",
"-9 -76 CURVE SMOOTH",
"-9 -115 OFFCURVE",
"87 -170 OFFCURVE",
"134 -170 CURVE SMOOTH"
);
},
{
closed = 1;
nodes = (
"131 41 OFFCURVE",
"148 136 OFFCURVE",
"168 239 CURVE",
"197 210 OFFCURVE",
"219 176 OFFCURVE",
"219 141 CURVE SMOOTH",
"219 78 OFFCURVE",
"180 3 OFFCURVE",
"120 -51 CURVE"
);
}
);
width = 422;
}
);
unicode = 0066;
},
{
glyphname = g;
lastChange = "2015-08-07 16:01:45 +0000";
layers = (
{
background = {
paths = (
{
closed = 1;
nodes = (
"305 416 OFFCURVE",
"329 400 OFFCURVE",
"344 385 CURVE",
"335 294 OFFCURVE",
"261 195 OFFCURVE",
"137 144 CURVE",
"153 258 OFFCURVE",
"211 416 OFFCURVE",
"282 416 CURVE SMOOTH"
);
},
{
closed = 1;
nodes = (
"271 -110 OFFCURVE",
"237 -190 OFFCURVE",
"197 -237 CURVE",
"166 -227 OFFCURVE",
"139 -209 OFFCURVE",
"139 -184 CURVE SMOOTH",
"139 -142 OFFCURVE",
"221 -71 OFFCURVE",
"292 -28 CURVE"
);
},
{
closed = 1;
nodes = (
"317 101 LINE",
"161 6 OFFCURVE",
"-3 -120 OFFCURVE",
"-3 -186 CURVE SMOOTH",
"-3 -246 OFFCURVE",
"85 -338 OFFCURVE",
"171 -338 CURVE SMOOTH",
"230 -338 OFFCURVE",
"301 -299 OFFCURVE",
"331 -253 CURVE SMOOTH",
"363 -204 OFFCURVE",
"491 357 OFFCURVE",
"491 416 CURVE SMOOTH",
"491 440 OFFCURVE",
"402 511 OFFCURVE",
"372 511 CURVE SMOOTH",
"361 511 OFFCURVE",
"346 493 OFFCURVE",
"339 462 CURVE",
"324 495 OFFCURVE",
"289 537 OFFCURVE",
"251 537 CURVE SMOOTH",
"110 537 OFFCURVE",
"5 284 OFFCURVE",
"5 141 CURVE SMOOTH",
"5 105 OFFCURVE",
"58 38 OFFCURVE",
"110 38 CURVE SMOOTH",
"166 38 OFFCURVE",
"261 102 OFFCURVE",
"299 130 CURVE"
);
}
);
};
layerId = "AF1B7CCB-9C31-456C-8386-1D362D80AEF6";
name = "Bold Italic";
paths = (
{
closed = 1;
nodes = (
"308 416 OFFCURVE",
"333 400 OFFCURVE",
"348 385 CURVE",
"341 294 OFFCURVE",
"270 195 OFFCURVE",
"147 144 CURVE",
"160 258 OFFCURVE",
"214 416 OFFCURVE",
"285 416 CURVE SMOOTH"
);
},
{
closed = 1;
nodes = (
"292 -111 OFFCURVE",
"262 -192 OFFCURVE",
"222 -239 CURVE",
"191 -229 OFFCURVE",
"164 -211 OFFCURVE",
"163 -186 CURVE SMOOTH",
"161 -144 OFFCURVE",
"240 -73 OFFCURVE",
"310 -29 CURVE"
);
},
{
closed = 1;
nodes = (
"330 100 LINE",
"175 6 OFFCURVE",
"18 -124 OFFCURVE",
"21 -190 CURVE SMOOTH",
"22 -250 OFFCURVE",
"114 -341 OFFCURVE",
"200 -340 CURVE SMOOTH",
"259 -340 OFFCURVE",
"329 -300 OFFCURVE",
"357 -254 CURVE SMOOTH",
"387 -204 OFFCURVE",
"493 344 OFFCURVE",
"493 417 CURVE SMOOTH",
"493 441 OFFCURVE",
"402 511 OFFCURVE",
"372 511 CURVE SMOOTH",
"361 511 OFFCURVE",
"347 493 OFFCURVE",
"341 462 CURVE",
"325 495 OFFCURVE",
"289 537 OFFCURVE",
"251 537 CURVE SMOOTH",
"112 537 OFFCURVE",
"12 293 OFFCURVE",
"12 141 CURVE SMOOTH",
"12 98 OFFCURVE",
"77 38 OFFCURVE",
"123 38 CURVE SMOOTH",
"179 38 OFFCURVE",
"272 102 OFFCURVE",
"310 130 CURVE"
);
}
);
width = 510;
},
{
associatedMasterId = "AF1B7CCB-9C31-456C-8386-1D362D80AEF6";
background = {
paths = (
{
closed = 1;
nodes = (
"187 305 OFFCURVE",
"244 416 OFFCURVE",
"329 416 CURVE SMOOTH",
"344 416 OFFCURVE",
"360 412 OFFCURVE",
"377 405 CURVE",
"351 291 OFFCURVE",
"272 206 OFFCURVE",
"169 162 CURVE"
);
},
{
closed = 1;
nodes = (
"200 -117 OFFCURVE",
"157 -74 OFFCURVE",
"109 -8 CURVE",
"47 -2 OFFCURVE",
"-2 -43 OFFCURVE",
"-2 -94 CURVE SMOOTH",
"-2 -182 OFFCURVE",
"180 -257 OFFCURVE",
"284 -257 CURVE SMOOTH",
"342 -257 OFFCURVE",
"416 -199 OFFCURVE",
"429 -160 CURVE SMOOTH",
"436 -139 OFFCURVE",
"454 -7 OFFCURVE",
"476 115 CURVE SMOOTH",
"499 242 OFFCURVE",
"540 376 OFFCURVE",
"540 416 CURVE SMOOTH",
"540 440 OFFCURVE",
"452 511 OFFCURVE",
"422 511 CURVE SMOOTH",
"411 511 OFFCURVE",
"396 493 OFFCURVE",
"388 462 CURVE",
"375 495 OFFCURVE",
"330 537 OFFCURVE",
"292 537 CURVE SMOOTH",
"123 537 OFFCURVE",
"16 316 OFFCURVE",
"16 177 CURVE SMOOTH",
"16 131 OFFCURVE",
"99 30 OFFCURVE",
"154 30 CURVE SMOOTH",
"236 30 OFFCURVE",
"293 95 OFFCURVE",
"348 184 CURVE",
"371 170 LINE",
"352 139 OFFCURVE",
"333 104 OFFCURVE",
"333 89 CURVE SMOOTH",
"333 27 OFFCURVE",
"303 -67 OFFCURVE",
"271 -141 CURVE"
);
}
);
};
layerId = "0F23DDD8-9456-4F28-B383-AA986EE3E014";
name = "Bold Italic Aug 4 15, 15:16";
paths = (
{
closed = 1;
nodes = (
"187 305 OFFCURVE",
"244 416 OFFCURVE",
"329 416 CURVE SMOOTH",
"344 416 OFFCURVE",
"360 412 OFFCURVE",
"377 405 CURVE",
"351 291 OFFCURVE",
"272 206 OFFCURVE",
"169 162 CURVE"
);
},
{
closed = 1;
nodes = (
"200 -117 OFFCURVE",
"157 -74 OFFCURVE",
"109 -8 CURVE",
"47 -2 OFFCURVE",
"-2 -43 OFFCURVE",
"-2 -94 CURVE SMOOTH",
"-2 -182 OFFCURVE",
"180 -257 OFFCURVE",
"284 -257 CURVE SMOOTH",
"342 -257 OFFCURVE",
"416 -199 OFFCURVE",
"429 -160 CURVE SMOOTH",
"436 -139 OFFCURVE",
"454 -7 OFFCURVE",
"476 115 CURVE SMOOTH",
"499 242 OFFCURVE",
"540 376 OFFCURVE",
"540 416 CURVE SMOOTH",
"540 440 OFFCURVE",
"452 511 OFFCURVE",
"422 511 CURVE SMOOTH",
"411 511 OFFCURVE",
"396 493 OFFCURVE",
"388 462 CURVE",
"375 495 OFFCURVE",
"330 537 OFFCURVE",
"292 537 CURVE SMOOTH",
"123 537 OFFCURVE",
"16 316 OFFCURVE",
"16 177 CURVE SMOOTH",
"16 131 OFFCURVE",
"99 30 OFFCURVE",
"154 30 CURVE SMOOTH",
"236 30 OFFCURVE",
"293 95 OFFCURVE",
"348 184 CURVE",
"371 170 LINE",
"352 139 OFFCURVE",
"333 104 OFFCURVE",
"333 89 CURVE SMOOTH",
"333 27 OFFCURVE",
"303 -67 OFFCURVE",
"271 -141 CURVE"
);
}
);
width = 563;
}
);
leftMetricsKey = a;
unicode = 0067;
},
{
glyphname = h;
lastChange = "2015-08-07 16:01:45 +0000";
layers = (
{
background = {
paths = (
{
closed = 1;
nodes = (
"206 339 LINE",
"251 420 OFFCURVE",
"311 574 OFFCURVE",
"311 631 CURVE SMOOTH",
"311 665 OFFCURVE",
"230 738 OFFCURVE",
"173 738 CURVE SMOOTH",
"148 738 OFFCURVE",
"129 717 OFFCURVE",
"129 690 CURVE SMOOTH",
"129 632 OFFCURVE",
"127 458 OFFCURVE",
"104 370 CURVE SMOOTH",
"73 255 OFFCURVE",
"17 147 OFFCURVE",
"17 93 CURVE SMOOTH",
"17 61 OFFCURVE",
"99 0 OFFCURVE",
"149 0 CURVE SMOOTH",
"179 0 OFFCURVE",
"188 118 OFFCURVE",
"199 194 CURVE",
"247 250 OFFCURVE",
"307 320 OFFCURVE",
"340 320 CURVE SMOOTH",
"366 320 OFFCURVE",
"288 118 OFFCURVE",
"287 91 CURVE SMOOTH",
"286 68 OFFCURVE",
"360 0 OFFCURVE",
"407 0 CURVE SMOOTH",
"457 0 OFFCURVE",
"592 44 OFFCURVE",
"593 92 CURVE SMOOTH",
"595 141 OFFCURVE",
"572 175 OFFCURVE",
"518 198 CURVE",
"483 171 OFFCURVE",
"461 159 OFFCURVE",
"422 144 CURVE",
"465 274 OFFCURVE",
"510 377 OFFCURVE",
"511 416 CURVE SMOOTH",
"512 442 OFFCURVE",
"443 511 OFFCURVE",
"404 511 CURVE SMOOTH",
"365 511 OFFCURVE",
"288 412 OFFCURVE",
"224 327 CURVE"
);
}
);
};
layerId = "AF1B7CCB-9C31-456C-8386-1D362D80AEF6";
name = "Bold Italic";
paths = (
{
closed = 1;
nodes = (
"240 252 OFFCURVE",
"309 320 OFFCURVE",
"340 320 CURVE SMOOTH",
"366 320 OFFCURVE",
"288 118 OFFCURVE",
"287 91 CURVE SMOOTH",
"286 68 OFFCURVE",
"360 0 OFFCURVE",
"407 0 CURVE SMOOTH",
"457 0 OFFCURVE",
"592 44 OFFCURVE",
"593 92 CURVE SMOOTH",
"595 141 OFFCURVE",
"572 175 OFFCURVE",
"518 198 CURVE",
"483 171 OFFCURVE",
"461 159 OFFCURVE",
"422 144 CURVE",
"465 274 OFFCURVE",
"510 377 OFFCURVE",
"511 416 CURVE SMOOTH",
"512 442 OFFCURVE",
"443 511 OFFCURVE",
"404 511 CURVE SMOOTH",
"365 511 OFFCURVE",
"288 412 OFFCURVE",
"224 327 CURVE",
"207 336 LINE",
"220 391 OFFCURVE",
"240 454 OFFCURVE",
"255 490 CURVE SMOOTH",
"272 532 OFFCURVE",
"334 597 OFFCURVE",
"334 632 CURVE SMOOTH",
"334 668 OFFCURVE",
"238 738 OFFCURVE",
"205 738 CURVE SMOOTH",
"143 738 OFFCURVE",
"132 559 OFFCURVE",
"101 413 CURVE SMOOTH",
"66 249 OFFCURVE",
"17 130 OFFCURVE",
"17 93 CURVE SMOOTH",
"17 61 OFFCURVE",
"99 0 OFFCURVE",
"149 0 CURVE SMOOTH",
"179 0 OFFCURVE",
"191 125 OFFCURVE",
"194 200 CURVE"
);
}
);
width = 603;
},
{
associatedMasterId = "AF1B7CCB-9C31-456C-8386-1D362D80AEF6";
background = {
paths = (
{
closed = 1;
nodes = (
"206 339 LINE",
"246 420 OFFCURVE",
"311 554 OFFCURVE",
"311 611 CURVE SMOOTH",
"311 645 OFFCURVE",
"230 718 OFFCURVE",
"173 718 CURVE SMOOTH",
"148 718 OFFCURVE",
"129 697 OFFCURVE",
"129 670 CURVE SMOOTH",
"129 612 OFFCURVE",
"127 458 OFFCURVE",
"104 370 CURVE SMOOTH",
"73 255 OFFCURVE",
"17 147 OFFCURVE",
"17 93 CURVE SMOOTH",
"17 61 OFFCURVE",
"99 0 OFFCURVE",
"149 0 CURVE SMOOTH",
"179 0 OFFCURVE",
"188 118 OFFCURVE",
"198 187 CURVE",
"248 250 OFFCURVE",
"308 320 OFFCURVE",
"341 320 CURVE SMOOTH",
"367 320 OFFCURVE",
"289 118 OFFCURVE",
"288 91 CURVE SMOOTH",
"287 67 OFFCURVE",
"363 0 OFFCURVE",
"408 0 CURVE SMOOTH",
"470 0 OFFCURVE",
"594 54 OFFCURVE",
"594 104 CURVE SMOOTH",
"594 146 OFFCURVE",
"568 181 OFFCURVE",
"511 201 CURVE",
"480 175 OFFCURVE",
"464 165 OFFCURVE",
"424 144 CURVE",
"446 220 OFFCURVE",
"511 375 OFFCURVE",
"512 416 CURVE SMOOTH",
"513 442 OFFCURVE",
"444 511 OFFCURVE",
"405 511 CURVE SMOOTH",
"366 511 OFFCURVE",
"289 412 OFFCURVE",
"224 327 CURVE"
);
}
);
};
layerId = "364ED78F-44CE-4B6C-B49B-044D0000B9F5";
name = "Bold Italic Aug 4 15, 14:41";
paths = (
{
closed = 1;
nodes = (
"206 339 LINE",
"251 420 OFFCURVE",
"311 574 OFFCURVE",
"311 631 CURVE SMOOTH",
"311 665 OFFCURVE",
"230 738 OFFCURVE",
"173 738 CURVE SMOOTH",
"148 738 OFFCURVE",
"129 717 OFFCURVE",
"129 690 CURVE SMOOTH",
"129 632 OFFCURVE",
"127 458 OFFCURVE",
"104 370 CURVE SMOOTH",
"73 255 OFFCURVE",
"17 147 OFFCURVE",
"17 93 CURVE SMOOTH",
"17 61 OFFCURVE",
"99 0 OFFCURVE",
"149 0 CURVE SMOOTH",
"179 0 OFFCURVE",
"188 118 OFFCURVE",
"199 194 CURVE",
"247 250 OFFCURVE",
"307 320 OFFCURVE",
"340 320 CURVE SMOOTH",
"366 320 OFFCURVE",
"288 118 OFFCURVE",
"287 91 CURVE SMOOTH",
"286 68 OFFCURVE",
"360 0 OFFCURVE",
"407 0 CURVE SMOOTH",
"457 0 OFFCURVE",
"592 44 OFFCURVE",
"593 92 CURVE SMOOTH",
"595 141 OFFCURVE",
"572 175 OFFCURVE",
"518 198 CURVE",
"483 171 OFFCURVE",
"461 159 OFFCURVE",
"422 144 CURVE",
"465 274 OFFCURVE",
"510 377 OFFCURVE",
"511 416 CURVE SMOOTH",
"512 442 OFFCURVE",
"443 511 OFFCURVE",
"404 511 CURVE SMOOTH",
"365 511 OFFCURVE",
"288 412 OFFCURVE",
"224 327 CURVE"
);
}
);
width = 603;
}
);
rightMetricsKey = n;
unicode = 0068;
},
{
glyphname = i;
lastChange = "2015-08-07 16:01:45 +0000";
layers = (
{
background = {
paths = (
{
closed = 1;
nodes = (
"295 558 OFFCURVE",
"380 626 OFFCURVE",
"374 667 CURVE SMOOTH",
"369 702 OFFCURVE",
"320 766 OFFCURVE",
"280 760 CURVE SMOOTH",
"226 751 OFFCURVE",
"144 689 OFFCURVE",
"150 651 CURVE SMOOTH",
"156 611 OFFCURVE",
"214 546 OFFCURVE",
"250 551 CURVE SMOOTH"
);
},
{
closed = 1;
nodes = (
"177 358 LINE",
"132 301 LINE",
"108 247 OFFCURVE",
"71 124 OFFCURVE",
"71 88 CURVE SMOOTH",
"71 62 OFFCURVE",
"154 0 OFFCURVE",
"193 0 CURVE SMOOTH",
"263 0 OFFCURVE",
"383 52 OFFCURVE",
"383 104 CURVE SMOOTH",
"383 141 OFFCURVE",
"361 181 OFFCURVE",
"300 201 CURVE",
"267 175 OFFCURVE",
"246 159 OFFCURVE",
"213 144 CURVE",
"256 253 OFFCURVE",
"300 389 OFFCURVE",
"300 442 CURVE SMOOTH",
"300 463 OFFCURVE",
"238 537 OFFCURVE",
"191 537 CURVE SMOOTH",
"110 537 OFFCURVE",
"-3 478 OFFCURVE",
"-3 422 CURVE SMOOTH",
"-3 377 OFFCURVE",
"20 351 OFFCURVE",
"58 327 CURVE",
"93 348 OFFCURVE",
"124 367 OFFCURVE",
"158 381 CURVE"
);
}
);
};
layerId = "AF1B7CCB-9C31-456C-8386-1D362D80AEF6";
name = "Bold Italic";
paths = (
{
closed = 1;
nodes = (
"295 558 OFFCURVE",
"380 626 OFFCURVE",
"374 667 CURVE SMOOTH",
"369 702 OFFCURVE",
"320 766 OFFCURVE",
"280 760 CURVE SMOOTH",
"226 751 OFFCURVE",
"144 689 OFFCURVE",
"150 651 CURVE SMOOTH",
"156 611 OFFCURVE",
"214 546 OFFCURVE",
"250 551 CURVE SMOOTH"
);
},
{
closed = 1;
nodes = (
"177 358 LINE",
"132 301 LINE",
"108 247 OFFCURVE",
"71 124 OFFCURVE",
"71 88 CURVE SMOOTH",
"71 62 OFFCURVE",
"154 0 OFFCURVE",
"193 0 CURVE SMOOTH",
"263 0 OFFCURVE",
"383 52 OFFCURVE",
"383 104 CURVE SMOOTH",
"383 141 OFFCURVE",
"361 181 OFFCURVE",
"300 201 CURVE",
"267 175 OFFCURVE",
"246 159 OFFCURVE",
"213 144 CURVE",
"254 253 OFFCURVE",
"297 396 OFFCURVE",
"297 449 CURVE SMOOTH",
"297 470 OFFCURVE",
"238 537 OFFCURVE",
"191 537 CURVE SMOOTH",
"110 537 OFFCURVE",
"-3 478 OFFCURVE",
"-3 422 CURVE SMOOTH",
"-3 377 OFFCURVE",
"20 351 OFFCURVE",
"58 327 CURVE",
"93 348 OFFCURVE",
"124 367 OFFCURVE",
"158 381 CURVE"
);
}
);
width = 391;
},
{
associatedMasterId = "AF1B7CCB-9C31-456C-8386-1D362D80AEF6";
background = {
paths = (
{
closed = 1;
nodes = (
"274 522 OFFCURVE",
"302 580 OFFCURVE",
"302 614 CURVE SMOOTH",
"302 655 OFFCURVE",
"224 700 OFFCURVE",
"176 700 CURVE SMOOTH",
"139 700 OFFCURVE",
"108 637 OFFCURVE",
"108 599 CURVE SMOOTH",
"108 561 OFFCURVE",
"190 522 OFFCURVE",
"233 522 CURVE SMOOTH"
);
},
{
closed = 1;
nodes = (
"22 63 OFFCURVE",
"96 0 OFFCURVE",
"141 0 CURVE SMOOTH",
"203 0 OFFCURVE",
"327 54 OFFCURVE",
"327 104 CURVE SMOOTH",
"327 146 OFFCURVE",
"301 181 OFFCURVE",
"244 201 CURVE",
"213 175 OFFCURVE",
"183 158 OFFCURVE",
"146 140 CURVE",
"176 227 OFFCURVE",
"237 377 OFFCURVE",
"238 416 CURVE SMOOTH",
"238 442 OFFCURVE",
"164 511 OFFCURVE",
"111 511 CURVE SMOOTH",
"68 511 OFFCURVE",
"22 158 OFFCURVE",
"22 89 CURVE SMOOTH"
);
}
);
};
layerId = "342AA3BA-9274-4559-A130-F078A779D30C";
name = "Bold Italic Aug 4 15, 17:37";
paths = (
{
closed = 1;
nodes = (
"22 63 OFFCURVE",
"96 0 OFFCURVE",
"141 0 CURVE SMOOTH",
"203 0 OFFCURVE",
"327 54 OFFCURVE",
"327 104 CURVE SMOOTH",
"327 146 OFFCURVE",
"301 181 OFFCURVE",
"244 201 CURVE",
"213 175 OFFCURVE",
"183 158 OFFCURVE",
"146 140 CURVE",
"176 227 OFFCURVE",
"237 377 OFFCURVE",
"238 416 CURVE SMOOTH",
"238 442 OFFCURVE",
"164 511 OFFCURVE",
"111 511 CURVE SMOOTH",
"68 511 OFFCURVE",
"22 158 OFFCURVE",
"22 89 CURVE SMOOTH"
);
},
{
closed = 1;
nodes = (
"201 537 OFFCURVE",
"277 580 OFFCURVE",
"277 613 CURVE SMOOTH",
"277 641 OFFCURVE",
"247 698 OFFCURVE",
"215 698 CURVE SMOOTH",
"171 698 OFFCURVE",
"98 659 OFFCURVE",
"98 629 CURVE SMOOTH",
"98 596 OFFCURVE",
"135 537 OFFCURVE",
"165 537 CURVE SMOOTH"
);
}
);
width = 335;
},
{
associatedMasterId = "AF1B7CCB-9C31-456C-8386-1D362D80AEF6";
background = {
paths = (
{
closed = 1;
nodes = (
"295 558 OFFCURVE",
"380 626 OFFCURVE",
"374 667 CURVE SMOOTH",
"369 702 OFFCURVE",
"320 766 OFFCURVE",
"280 760 CURVE SMOOTH",
"226 751 OFFCURVE",
"144 689 OFFCURVE",
"150 651 CURVE SMOOTH",
"156 611 OFFCURVE",
"214 546 OFFCURVE",
"250 551 CURVE SMOOTH"
);
},
{
closed = 1;
nodes = (
"300 463 OFFCURVE",
"233 537 OFFCURVE",
"186 537 CURVE SMOOTH",
"105 537 OFFCURVE",
"-3 478 OFFCURVE",
"-3 422 CURVE SMOOTH",
"-3 376 OFFCURVE",
"26 339 OFFCURVE",
"75 318 CURVE",
"105 341 OFFCURVE",
"138 361 OFFCURVE",
"175 380 CURVE",
"193 357 LINE",
"135 291 LINE",
"111 237 OFFCURVE",
"71 124 OFFCURVE",
"71 88 CURVE SMOOTH",
"71 62 OFFCURVE",
"154 0 OFFCURVE",
"193 0 CURVE SMOOTH",
"263 0 OFFCURVE",
"386 52 OFFCURVE",
"386 104 CURVE SMOOTH",
"386 141 OFFCURVE",
"364 181 OFFCURVE",
"303 201 CURVE",
"270 175 OFFCURVE",
"249 159 OFFCURVE",
"216 144 CURVE",
"254 243 OFFCURVE",
"300 376 OFFCURVE",
"300 442 CURVE SMOOTH"
);
}
);
};
layerId = "F01EF8D3-C8B2-448F-BDA6-42551C7427AF";
name = "Bold Italic Aug 6 15, 21:15";
paths = (
{
closed = 1;
nodes = (
"295 558 OFFCURVE",
"380 626 OFFCURVE",
"374 667 CURVE SMOOTH",
"369 702 OFFCURVE",
"320 766 OFFCURVE",
"280 760 CURVE SMOOTH",
"226 751 OFFCURVE",
"144 689 OFFCURVE",
"150 651 CURVE SMOOTH",
"156 611 OFFCURVE",
"214 546 OFFCURVE",
"250 551 CURVE SMOOTH"
);
},
{
closed = 1;
nodes = (
"177 358 LINE",
"129 301 LINE",
"105 247 OFFCURVE",
"71 124 OFFCURVE",
"71 88 CURVE SMOOTH",
"71 62 OFFCURVE",
"154 0 OFFCURVE",
"193 0 CURVE SMOOTH",
"263 0 OFFCURVE",
"386 52 OFFCURVE",
"386 104 CURVE SMOOTH",
"386 141 OFFCURVE",
"364 181 OFFCURVE",
"303 201 CURVE",
"270 175 OFFCURVE",
"249 159 OFFCURVE",
"216 144 CURVE",
"254 243 OFFCURVE",
"300 376 OFFCURVE",
"300 442 CURVE SMOOTH",
"300 463 OFFCURVE",
"233 537 OFFCURVE",
"186 537 CURVE SMOOTH",
"105 537 OFFCURVE",
"-3 478 OFFCURVE",
"-3 422 CURVE SMOOTH",
"-3 377 OFFCURVE",
"20 351 OFFCURVE",
"58 327 CURVE",
"93 348 OFFCURVE",
"124 367 OFFCURVE",
"158 381 CURVE"
);
}
);
width = 394;
}
);
leftMetricsKey = n;
rightMetricsKey = u;
unicode = 0069;
},
{
glyphname = j;
lastChange = "2015-08-07 16:01:45 +0000";
layers = (
{
background = {
paths = (
{
closed = 1;
nodes = (
"295 558 OFFCURVE",
"380 626 OFFCURVE",
"374 667 CURVE SMOOTH",
"369 702 OFFCURVE",
"320 766 OFFCURVE",
"280 760 CURVE SMOOTH",
"226 751 OFFCURVE",
"144 689 OFFCURVE",
"150 651 CURVE SMOOTH",
"156 611 OFFCURVE",
"214 546 OFFCURVE",
"250 551 CURVE SMOOTH"
);
},
{
closed = 1;
nodes = (
"247 258 OFFCURVE",
"300 376 OFFCURVE",
"300 442 CURVE SMOOTH",
"300 463 OFFCURVE",
"233 537 OFFCURVE",
"186 537 CURVE SMOOTH",
"105 537 OFFCURVE",
"-3 478 OFFCURVE",
"-3 422 CURVE SMOOTH",
"-3 377 OFFCURVE",
"20 351 OFFCURVE",
"58 327 CURVE",
"93 348 OFFCURVE",
"124 367 OFFCURVE",
"158 381 CURVE",
"177 358 LINE",
"129 301 LINE",
"105 247 OFFCURVE",
"86 141 OFFCURVE",
"74 55 CURVE SMOOTH",
"65 -8 OFFCURVE",
"47 -151 OFFCURVE",
"-4 -151 CURVE SMOOTH",
"-38 -151 OFFCURVE",
"-54 -104 OFFCURVE",
"-81 -36 CURVE",
"-143 -19 OFFCURVE",
"-201 -55 OFFCURVE",
"-202 -112 CURVE SMOOTH",
"-203 -181 OFFCURVE",
"-103 -256 OFFCURVE",
"-12 -256 CURVE SMOOTH",
"53 -256 OFFCURVE",
"102 -233 OFFCURVE",
"137 -192 CURVE SMOOTH",
"164 -159 OFFCURVE",
"183 -115 OFFCURVE",
"225 132 CURVE SMOOTH"
);
}
);
};
layerId = "AF1B7CCB-9C31-456C-8386-1D362D80AEF6";
name = "Bold Italic";
paths = (
{
closed = 1;
nodes = (
"295 558 OFFCURVE",
"380 626 OFFCURVE",
"374 667 CURVE SMOOTH",
"369 702 OFFCURVE",
"320 766 OFFCURVE",
"280 760 CURVE SMOOTH",
"226 751 OFFCURVE",
"144 689 OFFCURVE",
"150 651 CURVE SMOOTH",
"156 611 OFFCURVE",
"214 546 OFFCURVE",
"250 551 CURVE SMOOTH"
);
},
{
closed = 1;
nodes = (
"254 258 OFFCURVE",
"304 376 OFFCURVE",
"302 442 CURVE SMOOTH",
"302 463 OFFCURVE",
"233 537 OFFCURVE",
"186 537 CURVE SMOOTH",
"105 537 OFFCURVE",
"-4 478 OFFCURVE",
"-3 422 CURVE SMOOTH",
"-2 377 OFFCURVE",
"22 351 OFFCURVE",
"60 327 CURVE",
"95 348 OFFCURVE",
"128 367 OFFCURVE",
"162 381 CURVE",
"182 358 LINE",
"135 301 LINE",
"113 247 OFFCURVE",
"97 141 OFFCURVE",
"87 55 CURVE SMOOTH",
"79 -8 OFFCURVE",
"65 -151 OFFCURVE",
"14 -151 CURVE SMOOTH",
"-20 -151 OFFCURVE",
"-37 -104 OFFCURVE",
"-66 -36 CURVE",
"-128 -19 OFFCURVE",
"-185 -55 OFFCURVE",
"-185 -112 CURVE SMOOTH",
"-184 -181 OFFCURVE",
"-82 -256 OFFCURVE",
"8 -256 CURVE SMOOTH",
"74 -256 OFFCURVE",
"122 -233 OFFCURVE",
"156 -192 CURVE SMOOTH",
"183 -159 OFFCURVE",
"200 -115 OFFCURVE",
"236 132 CURVE SMOOTH"
);
}
);
width = 338;
},
{
associatedMasterId = "AF1B7CCB-9C31-456C-8386-1D362D80AEF6";
background = {
paths = (
{
closed = 1;
nodes = (
"103 511 OFFCURVE",
"110 164 OFFCURVE",
"53 -137 CURVE",
"10 -104 OFFCURVE",
"-11 -79 OFFCURVE",
"-57 -19 CURVE",
"-120 -13 OFFCURVE",
"-167 -54 OFFCURVE",
"-167 -105 CURVE SMOOTH",
"-167 -174 OFFCURVE",
"-20 -252 OFFCURVE",
"69 -252 CURVE SMOOTH",
"123 -252 OFFCURVE",
"171 -223 OFFCURVE",
"182 -193 CURVE SMOOTH",
"191 -170 OFFCURVE",
"197 -64 OFFCURVE",
"218 92 CURVE SMOOTH",
"235 217 OFFCURVE",
"280 374 OFFCURVE",
"278 416 CURVE SMOOTH",
"276 441 OFFCURVE",
"186 511 OFFCURVE",
"151 511 CURVE SMOOTH"
);
},
{
closed = 1;
nodes = (
"239 537 OFFCURVE",
"315 580 OFFCURVE",
"315 613 CURVE SMOOTH",
"315 641 OFFCURVE",
"285 698 OFFCURVE",
"253 698 CURVE SMOOTH",
"209 698 OFFCURVE",
"136 659 OFFCURVE",
"136 629 CURVE SMOOTH",
"136 596 OFFCURVE",
"173 537 OFFCURVE",
"203 537 CURVE SMOOTH"
);
}
);
};
layerId = "F1829D89-4525-465C-B289-DEDDE985A5FB";
name = "Bold Italic Aug 4 15, 18:28";
paths = (
{
closed = 1;
nodes = (
"107 511 OFFCURVE",
"104 164 OFFCURVE",
"42 -137 CURVE",
"-1 -104 OFFCURVE",
"-16 -82 OFFCURVE",
"-61 -22 CURVE",
"-123 -16 OFFCURVE",
"-171 -57 OFFCURVE",
"-172 -108 CURVE SMOOTH",
"-173 -177 OFFCURVE",
"-33 -252 OFFCURVE",
"56 -252 CURVE SMOOTH",
"110 -252 OFFCURVE",
"158 -223 OFFCURVE",
"170 -193 CURVE SMOOTH",
"179 -170 OFFCURVE",
"187 -64 OFFCURVE",
"211 92 CURVE SMOOTH",
"230 217 OFFCURVE",
"282 374 OFFCURVE",
"280 416 CURVE SMOOTH",
"279 441 OFFCURVE",
"190 511 OFFCURVE",
"155 511 CURVE SMOOTH"
);
},
{
closed = 1;
nodes = (
"247 537 OFFCURVE",
"323 580 OFFCURVE",
"323 613 CURVE SMOOTH",
"323 641 OFFCURVE",
"293 698 OFFCURVE",
"261 698 CURVE SMOOTH",
"217 698 OFFCURVE",
"144 659 OFFCURVE",
"144 629 CURVE SMOOTH",
"144 596 OFFCURVE",
"181 537 OFFCURVE",
"211 537 CURVE SMOOTH"
);
}
);
width = 312;
}
);
unicode = 006A;
},
{
glyphname = k;
lastChange = "2015-08-07 16:01:45 +0000";
layers = (
{
background = {
paths = (
{
closed = 1;
nodes = (
"252 192 LINE",
"268 90 OFFCURVE",
"335 0 OFFCURVE",
"429 0 CURVE SMOOTH",
"500 0 OFFCURVE",
"555 39 OFFCURVE",
"555 92 CURVE SMOOTH",
"555 122 OFFCURVE",
"536 154 OFFCURVE",
"496 178 CURVE",
"473 165 OFFCURVE",
"450 152 OFFCURVE",
"422 144 CURVE",
"399 152 OFFCURVE",
"382 168 OFFCURVE",
"361 187 CURVE",
"441 239 OFFCURVE",
"511 315 OFFCURVE",
"511 391 CURVE SMOOTH",
"511 431 OFFCURVE",
"458 511 OFFCURVE",
"412 511 CURVE SMOOTH",
"364 511 OFFCURVE",
"288 412 OFFCURVE",
"224 327 CURVE",
"206 339 LINE",
"251 420 OFFCURVE",
"311 574 OFFCURVE",
"311 631 CURVE SMOOTH",
"311 665 OFFCURVE",
"230 738 OFFCURVE",
"173 738 CURVE SMOOTH",
"148 738 OFFCURVE",
"129 717 OFFCURVE",
"129 690 CURVE SMOOTH",
"129 632 OFFCURVE",
"127 458 OFFCURVE",
"104 370 CURVE SMOOTH",
"73 255 OFFCURVE",
"17 147 OFFCURVE",
"17 93 CURVE SMOOTH",
"17 61 OFFCURVE",
"99 0 OFFCURVE",
"149 0 CURVE SMOOTH",
"179 0 OFFCURVE",
"188 118 OFFCURVE",
"199 194 CURVE",
"254 262 OFFCURVE",
"320 340 OFFCURVE",
"357 340 CURVE SMOOTH",
"369 340 OFFCURVE",
"376 332 OFFCURVE",
"376 320 CURVE SMOOTH",
"376 295 OFFCURVE",
"346 252 OFFCURVE",
"270 222 CURVE"
);
}
);
};
layerId = "AF1B7CCB-9C31-456C-8386-1D362D80AEF6";
name = "Bold Italic";
paths = (
{
closed = 1;
nodes = (
"207 336 LINE",
"220 391 OFFCURVE",
"240 454 OFFCURVE",
"255 490 CURVE SMOOTH",
"272 532 OFFCURVE",
"334 597 OFFCURVE",
"334 632 CURVE SMOOTH",
"334 668 OFFCURVE",
"238 738 OFFCURVE",
"205 738 CURVE SMOOTH",
"143 738 OFFCURVE",
"132 559 OFFCURVE",
"101 413 CURVE SMOOTH",
"66 249 OFFCURVE",
"17 130 OFFCURVE",
"17 93 CURVE SMOOTH",
"17 61 OFFCURVE",
"99 0 OFFCURVE",
"149 0 CURVE SMOOTH",
"179 0 OFFCURVE",
"191 125 OFFCURVE",
"194 200 CURVE",
"254 266 OFFCURVE",
"316 340 OFFCURVE",
"352 340 CURVE SMOOTH",
"364 340 OFFCURVE",
"371 332 OFFCURVE",
"371 320 CURVE SMOOTH",
"371 295 OFFCURVE",
"341 252 OFFCURVE",
"265 222 CURVE",
"247 192 LINE",
"263 90 OFFCURVE",
"330 0 OFFCURVE",
"424 0 CURVE SMOOTH",
"495 0 OFFCURVE",
"550 39 OFFCURVE",
"550 92 CURVE SMOOTH",
"550 122 OFFCURVE",
"531 154 OFFCURVE",
"491 178 CURVE",
"468 165 OFFCURVE",
"445 152 OFFCURVE",
"417 144 CURVE",
"394 152 OFFCURVE",
"377 168 OFFCURVE",
"356 187 CURVE",
"436 239 OFFCURVE",
"506 315 OFFCURVE",
"506 391 CURVE SMOOTH",
"506 431 OFFCURVE",
"453 511 OFFCURVE",
"407 511 CURVE SMOOTH",
"359 511 OFFCURVE",
"288 412 OFFCURVE",
"224 327 CURVE"
);
}
);
width = 580;
},
{
associatedMasterId = "AF1B7CCB-9C31-456C-8386-1D362D80AEF6";
background = {
paths = (
{
closed = 1;
nodes = (
"252 192 LINE",
"269 89 OFFCURVE",
"332 0 OFFCURVE",
"432 0 CURVE SMOOTH",
"507 0 OFFCURVE",
"550 46 OFFCURVE",
"550 95 CURVE SMOOTH",
"550 127 OFFCURVE",
"531 160 OFFCURVE",
"489 182 CURVE",
"466 167 OFFCURVE",
"444 153 OFFCURVE",
"417 143 CURVE",
"399 152 OFFCURVE",
"382 168 OFFCURVE",
"361 187 CURVE",
"441 239 OFFCURVE",
"511 315 OFFCURVE",
"511 391 CURVE SMOOTH",
"511 431 OFFCURVE",
"458 511 OFFCURVE",
"412 511 CURVE SMOOTH",
"364 511 OFFCURVE",
"288 412 OFFCURVE",
"224 327 CURVE",
"206 339 LINE",
"250 425 OFFCURVE",
"311 556 OFFCURVE",
"311 611 CURVE SMOOTH",
"311 645 OFFCURVE",
"230 718 OFFCURVE",
"173 718 CURVE SMOOTH",
"148 718 OFFCURVE",
"129 697 OFFCURVE",
"129 670 CURVE SMOOTH",
"129 612 OFFCURVE",
"127 458 OFFCURVE",
"104 370 CURVE SMOOTH",
"73 255 OFFCURVE",
"17 147 OFFCURVE",
"17 93 CURVE SMOOTH",
"17 61 OFFCURVE",
"99 0 OFFCURVE",
"149 0 CURVE SMOOTH",
"179 0 OFFCURVE",
"188 118 OFFCURVE",
"199 194 CURVE",
"254 262 OFFCURVE",
"320 340 OFFCURVE",
"357 340 CURVE SMOOTH",
"369 340 OFFCURVE",
"376 332 OFFCURVE",
"376 320 CURVE SMOOTH",
"376 295 OFFCURVE",
"346 252 OFFCURVE",
"270 222 CURVE"
);
}
);
};
layerId = "F2B4037D-3382-4A9C-993E-8EFF8C37D6B8";
name = "Bold Italic Aug 4 15, 15:01";
paths = (
{
closed = 1;
nodes = (
"252 192 LINE",
"268 90 OFFCURVE",
"335 0 OFFCURVE",
"429 0 CURVE SMOOTH",
"500 0 OFFCURVE",
"555 39 OFFCURVE",
"555 92 CURVE SMOOTH",
"555 122 OFFCURVE",
"536 154 OFFCURVE",
"496 178 CURVE",
"473 165 OFFCURVE",
"450 152 OFFCURVE",
"422 144 CURVE",
"399 152 OFFCURVE",
"382 168 OFFCURVE",
"361 187 CURVE",
"441 239 OFFCURVE",
"511 315 OFFCURVE",
"511 391 CURVE SMOOTH",
"511 431 OFFCURVE",
"458 511 OFFCURVE",
"412 511 CURVE SMOOTH",
"364 511 OFFCURVE",
"288 412 OFFCURVE",
"224 327 CURVE",
"206 339 LINE",
"251 420 OFFCURVE",
"311 574 OFFCURVE",
"311 631 CURVE SMOOTH",
"311 665 OFFCURVE",
"230 738 OFFCURVE",
"173 738 CURVE SMOOTH",
"148 738 OFFCURVE",
"129 717 OFFCURVE",
"129 690 CURVE SMOOTH",
"129 632 OFFCURVE",
"127 458 OFFCURVE",
"104 370 CURVE SMOOTH",
"73 255 OFFCURVE",
"17 147 OFFCURVE",
"17 93 CURVE SMOOTH",
"17 61 OFFCURVE",
"99 0 OFFCURVE",
"149 0 CURVE SMOOTH",
"179 0 OFFCURVE",
"188 118 OFFCURVE",
"199 194 CURVE",
"254 262 OFFCURVE",
"320 340 OFFCURVE",
"357 340 CURVE SMOOTH",
"369 340 OFFCURVE",
"376 332 OFFCURVE",
"376 320 CURVE SMOOTH",
"376 295 OFFCURVE",
"346 252 OFFCURVE",
"270 222 CURVE"
);
}
);
width = 585;
}
);
leftMetricsKey = h;
unicode = 006B;
},
{
glyphname = l;
lastChange = "2015-08-07 16:01:45 +0000";
layers = (
{
background = {
paths = (
{
closed = 1;
nodes = (
"209 407 OFFCURVE",
"234 491 CURVE SMOOTH",
"247 535 OFFCURVE",
"293 593 OFFCURVE",
"293 640 CURVE SMOOTH",
"293 675 OFFCURVE",
"207 737 OFFCURVE",
"166 737 CURVE SMOOTH",
"134 737 OFFCURVE",
"103 527 OFFCURVE",
"86 438 CURVE SMOOTH",
"59 297 OFFCURVE",
"17 127 OFFCURVE",
"17 94 CURVE SMOOTH",
"17 62 OFFCURVE",
"101 0 OFFCURVE",
"160 0 CURVE SMOOTH",
"222 0 OFFCURVE",
"346 54 OFFCURVE",
"346 104 CURVE SMOOTH",
"346 146 OFFCURVE",
"320 181 OFFCURVE",
"263 201 CURVE",
"232 175 OFFCURVE",
"202 158 OFFCURVE",
"165 140 CURVE",
"178 240 OFFCURVE"
);
}
);
};
layerId = "AF1B7CCB-9C31-456C-8386-1D362D80AEF6";
name = "Bold Italic";
paths = (
{
closed = 1;
nodes = (
"222 0 OFFCURVE",
"346 54 OFFCURVE",
"346 104 CURVE SMOOTH",
"346 146 OFFCURVE",
"320 181 OFFCURVE",
"263 201 CURVE",
"232 175 OFFCURVE",
"216 165 OFFCURVE",
"175 145 CURVE",
"191 254 OFFCURVE",
"221 413 OFFCURVE",
"248 494 CURVE SMOOTH",
"263 538 OFFCURVE",
"301 587 OFFCURVE",
"301 640 CURVE SMOOTH",
"301 675 OFFCURVE",
"207 737 OFFCURVE",
"166 737 CURVE SMOOTH",
"134 737 OFFCURVE",
"103 527 OFFCURVE",
"86 438 CURVE SMOOTH",
"59 297 OFFCURVE",
"17 127 OFFCURVE",
"17 94 CURVE SMOOTH",
"17 62 OFFCURVE",
"101 0 OFFCURVE",
"160 0 CURVE SMOOTH"
);
}
);
width = 354;
},
{
associatedMasterId = "AF1B7CCB-9C31-456C-8386-1D362D80AEF6";
background = {
paths = (
{
closed = 1;
nodes = (
"193 177 OFFCURVE",
"230 344 CURVE SMOOTH",
"259 479 OFFCURVE",
"297 607 OFFCURVE",
"297 631 CURVE SMOOTH",
"297 665 OFFCURVE",
"216 738 OFFCURVE",
"159 738 CURVE SMOOTH",
"134 738 OFFCURVE",
"115 717 OFFCURVE",
"115 690 CURVE SMOOTH",
"115 632 OFFCURVE",
"113 458 OFFCURVE",
"90 370 CURVE SMOOTH",
"59 255 OFFCURVE",
"3 147 OFFCURVE",
"3 93 CURVE SMOOTH",
"3 61 OFFCURVE",
"85 0 OFFCURVE",
"135 0 CURVE SMOOTH",
"163 0 OFFCURVE"
);
}
);
};
layerId = "03E1367D-A809-4CA8-B5DB-09A9ABD9DAB2";
name = "Bold Italic Aug 3 15, 13:03";
paths = (
{
closed = 1;
nodes = (
"188 0 OFFCURVE",
"213 177 OFFCURVE",
"244 344 CURVE SMOOTH",
"268 479 OFFCURVE",
"302 607 OFFCURVE",
"301 631 CURVE SMOOTH",
"300 665 OFFCURVE",
"216 738 OFFCURVE",
"159 738 CURVE SMOOTH",
"134 738 OFFCURVE",
"116 717 OFFCURVE",
"117 690 CURVE SMOOTH",
"119 632 OFFCURVE",
"123 458 OFFCURVE",
"103 370 CURVE SMOOTH",
"76 255 OFFCURVE",
"24 147 OFFCURVE",
"26 93 CURVE SMOOTH",
"27 61 OFFCURVE",
"111 0 OFFCURVE",
"161 0 CURVE SMOOTH"
);
}
);
width = 296;
},
{
associatedMasterId = "AF1B7CCB-9C31-456C-8386-1D362D80AEF6";
background = {
paths = (
{
closed = 1;
nodes = (
"72 282 OFFCURVE",
"19 119 OFFCURVE",
"19 94 CURVE SMOOTH",
"19 62 OFFCURVE",
"103 0 OFFCURVE",
"162 0 CURVE SMOOTH",
"224 0 OFFCURVE",
"348 54 OFFCURVE",
"348 104 CURVE SMOOTH",
"348 146 OFFCURVE",
"322 181 OFFCURVE",
"265 201 CURVE",
"234 175 OFFCURVE",
"204 158 OFFCURVE",
"167 140 CURVE",
"180 216 OFFCURVE",
"201 286 OFFCURVE",
"223 369 CURVE SMOOTH",
"243 443 OFFCURVE",
"294 567 OFFCURVE",
"294 611 CURVE SMOOTH",
"294 645 OFFCURVE",
"218 718 OFFCURVE",
"161 718 CURVE SMOOTH",
"136 718 OFFCURVE",
"117 697 OFFCURVE",
"117 670 CURVE SMOOTH",
"117 612 OFFCURVE",
"116 498 OFFCURVE",
"95 396 CURVE SMOOTH"
);
}
);
};
layerId = "9584FDF5-3E14-40B4-9BE7-5FF1D89B11DA";
name = "Bold Italic Aug 4 15, 15:03";
paths = (
{
closed = 1;
nodes = (
"72 282 OFFCURVE",
"19 119 OFFCURVE",
"19 94 CURVE SMOOTH",
"19 62 OFFCURVE",
"103 0 OFFCURVE",
"162 0 CURVE SMOOTH",
"224 0 OFFCURVE",
"348 54 OFFCURVE",
"348 104 CURVE SMOOTH",
"348 146 OFFCURVE",
"322 181 OFFCURVE",
"265 201 CURVE",
"234 175 OFFCURVE",
"204 158 OFFCURVE",
"167 140 CURVE",
"180 216 OFFCURVE",
"197 280 OFFCURVE",
"219 359 CURVE SMOOTH",
"241 437 OFFCURVE",
"299 581 OFFCURVE",
"299 631 CURVE SMOOTH",
"299 665 OFFCURVE",
"218 738 OFFCURVE",
"161 738 CURVE SMOOTH",
"136 738 OFFCURVE",
"117 717 OFFCURVE",
"117 690 CURVE SMOOTH",
"117 632 OFFCURVE",
"116 498 OFFCURVE",
"95 396 CURVE SMOOTH"
);
}
);
width = 356;
}
);
leftMetricsKey = h;
rightMetricsKey = n;
unicode = 006C;
},
{
glyphname = m;
lastChange = "2015-08-07 16:01:45 +0000";
layers = (
{
background = {
paths = (
{
closed = 1;
nodes = (
"531 286 LINE",
"551 355 OFFCURVE",
"561 395 OFFCURVE",
"562 430 CURVE SMOOTH",
"563 453 OFFCURVE",
"500 511 OFFCURVE",
"461 511 CURVE SMOOTH",
"422 511 OFFCURVE",
"348 412 OFFCURVE",
"278 320 CURVE",
"290 365 OFFCURVE",
"297 412 OFFCURVE",
"297 442 CURVE SMOOTH",
"297 467 OFFCURVE",
"223 537 OFFCURVE",
"188 537 CURVE SMOOTH",
"106 537 OFFCURVE",
"-3 479 OFFCURVE",
"-3 422 CURVE SMOOTH",
"-3 376 OFFCURVE",
"24 341 OFFCURVE",
"76 318 CURVE",
"106 341 OFFCURVE",
"139 361 OFFCURVE",
"176 380 CURVE",
"196 355 LINE",
"131 285 LINE",
"107 223 OFFCURVE",
"69 126 OFFCURVE",
"69 93 CURVE SMOOTH",
"69 63 OFFCURVE",
"148 0 OFFCURVE",
"201 0 CURVE SMOOTH",
"231 0 OFFCURVE",
"240 118 OFFCURVE",
"258 187 CURVE",
"307 250 OFFCURVE",
"367 320 OFFCURVE",
"400 320 CURVE SMOOTH",
"426 320 OFFCURVE",
"348 118 OFFCURVE",
"348 93 CURVE SMOOTH",
"348 65 OFFCURVE",
"428 0 OFFCURVE",
"471 0 CURVE SMOOTH",
"501 0 OFFCURVE",
"510 118 OFFCURVE",
"528 187 CURVE",
"577 250 OFFCURVE",
"637 320 OFFCURVE",
"670 320 CURVE SMOOTH",
"696 320 OFFCURVE",
"618 118 OFFCURVE",
"617 91 CURVE SMOOTH",
"616 68 OFFCURVE",
"690 0 OFFCURVE",
"737 0 CURVE SMOOTH",
"787 0 OFFCURVE",
"922 44 OFFCURVE",
"923 92 CURVE SMOOTH",
"925 141 OFFCURVE",
"902 175 OFFCURVE",
"848 198 CURVE",
"813 171 OFFCURVE",
"791 159 OFFCURVE",
"752 144 CURVE",
"795 274 OFFCURVE",
"840 377 OFFCURVE",
"841 416 CURVE SMOOTH",
"842 442 OFFCURVE",
"773 511 OFFCURVE",
"734 511 CURVE SMOOTH",
"686 511 OFFCURVE",
"596 379 OFFCURVE",
"523 293 CURVE"
);
}
);
};
layerId = "AF1B7CCB-9C31-456C-8386-1D362D80AEF6";
name = "Bold Italic";
paths = (
{
closed = 1;
nodes = (
"550 354 OFFCURVE",
"561 395 OFFCURVE",
"562 430 CURVE SMOOTH",
"563 453 OFFCURVE",
"500 511 OFFCURVE",
"461 511 CURVE SMOOTH",
"422 511 OFFCURVE",
"348 412 OFFCURVE",
"278 320 CURVE",
"290 365 OFFCURVE",
"297 412 OFFCURVE",
"297 442 CURVE SMOOTH",
"297 467 OFFCURVE",
"223 537 OFFCURVE",
"188 537 CURVE SMOOTH",
"106 537 OFFCURVE",
"-3 479 OFFCURVE",
"-3 422 CURVE SMOOTH",
"-3 376 OFFCURVE",
"24 341 OFFCURVE",
"76 318 CURVE",
"106 341 OFFCURVE",
"139 361 OFFCURVE",
"176 380 CURVE",
"196 355 LINE",
"131 285 LINE",
"107 223 OFFCURVE",
"69 126 OFFCURVE",
"69 93 CURVE SMOOTH",
"69 63 OFFCURVE",
"148 0 OFFCURVE",
"201 0 CURVE SMOOTH",
"231 0 OFFCURVE",
"240 118 OFFCURVE",
"258 187 CURVE",
"307 250 OFFCURVE",
"367 320 OFFCURVE",
"400 320 CURVE SMOOTH",
"426 320 OFFCURVE",
"348 118 OFFCURVE",
"348 93 CURVE SMOOTH",
"348 65 OFFCURVE",
"428 0 OFFCURVE",
"471 0 CURVE SMOOTH",
"501 0 OFFCURVE",
"510 118 OFFCURVE",
"528 187 CURVE",
"577 250 OFFCURVE",
"637 320 OFFCURVE",
"670 320 CURVE SMOOTH",
"696 320 OFFCURVE",
"618 118 OFFCURVE",
"617 91 CURVE SMOOTH",
"616 67 OFFCURVE",
"692 0 OFFCURVE",
"737 0 CURVE SMOOTH",
"799 0 OFFCURVE",
"923 54 OFFCURVE",
"923 104 CURVE SMOOTH",
"923 146 OFFCURVE",
"897 181 OFFCURVE",
"840 201 CURVE",
"809 175 OFFCURVE",
"793 165 OFFCURVE",
"753 144 CURVE",
"775 220 OFFCURVE",
"840 375 OFFCURVE",
"841 416 CURVE SMOOTH",
"842 442 OFFCURVE",
"773 511 OFFCURVE",
"734 511 CURVE SMOOTH",
"695 511 OFFCURVE",
"618 412 OFFCURVE",
"539 311 CURVE"
);
}
);
width = 931;
}
);
leftMetricsKey = n;
rightMetricsKey = n;
unicode = 006D;
},
{
glyphname = n;
lastChange = "2015-08-07 16:01:45 +0000";
layers = (
{
background = {
paths = (
{
closed = 1;
nodes = (
"543 171 OFFCURVE",
"521 159 OFFCURVE",
"482 144 CURVE",
"525 274 OFFCURVE",
"570 377 OFFCURVE",
"571 416 CURVE SMOOTH",
"572 442 OFFCURVE",
"503 511 OFFCURVE",
"464 511 CURVE SMOOTH",
"425 511 OFFCURVE",
"348 412 OFFCURVE",
"278 320 CURVE",
"290 365 OFFCURVE",
"297 412 OFFCURVE",
"297 442 CURVE SMOOTH",
"297 467 OFFCURVE",
"223 537 OFFCURVE",
"188 537 CURVE SMOOTH",
"106 537 OFFCURVE",
"-3 479 OFFCURVE",
"-3 422 CURVE SMOOTH",
"-3 376 OFFCURVE",
"24 341 OFFCURVE",
"76 318 CURVE",
"106 341 OFFCURVE",
"139 361 OFFCURVE",
"176 380 CURVE",
"196 355 LINE",
"131 285 LINE",
"107 223 OFFCURVE",
"69 126 OFFCURVE",
"69 93 CURVE SMOOTH",
"69 63 OFFCURVE",
"148 0 OFFCURVE",
"201 0 CURVE SMOOTH",
"231 0 OFFCURVE",
"240 118 OFFCURVE",
"258 187 CURVE",
"307 250 OFFCURVE",
"367 320 OFFCURVE",
"400 320 CURVE SMOOTH",
"426 320 OFFCURVE",
"348 118 OFFCURVE",
"347 91 CURVE SMOOTH",
"346 68 OFFCURVE",
"420 0 OFFCURVE",
"467 0 CURVE SMOOTH",
"517 0 OFFCURVE",
"652 44 OFFCURVE",
"653 92 CURVE SMOOTH",
"655 141 OFFCURVE",
"632 175 OFFCURVE",
"578 198 CURVE"
);
}
);
};
guideLines = (
{
position = "{329, 157}";
showMeasurement = 1;
}
);
layerId = "AF1B7CCB-9C31-456C-8386-1D362D80AEF6";
name = "Bold Italic";
paths = (
{
closed = 1;
nodes = (
"539 175 OFFCURVE",
"523 165 OFFCURVE",
"483 144 CURVE",
"505 220 OFFCURVE",
"570 375 OFFCURVE",
"571 416 CURVE SMOOTH",
"572 442 OFFCURVE",
"503 511 OFFCURVE",
"464 511 CURVE SMOOTH",
"425 511 OFFCURVE",
"348 412 OFFCURVE",
"278 320 CURVE",
"290 365 OFFCURVE",
"297 412 OFFCURVE",
"297 442 CURVE SMOOTH",
"297 467 OFFCURVE",
"223 537 OFFCURVE",
"188 537 CURVE SMOOTH",
"106 537 OFFCURVE",
"-3 479 OFFCURVE",
"-3 422 CURVE SMOOTH",
"-3 376 OFFCURVE",
"24 341 OFFCURVE",
"76 318 CURVE",
"106 341 OFFCURVE",
"139 361 OFFCURVE",
"176 380 CURVE",
"196 355 LINE",
"131 285 LINE",
"107 223 OFFCURVE",
"69 126 OFFCURVE",
"69 93 CURVE SMOOTH",
"69 63 OFFCURVE",
"148 0 OFFCURVE",
"201 0 CURVE SMOOTH",
"231 0 OFFCURVE",
"240 118 OFFCURVE",
"258 187 CURVE",
"307 250 OFFCURVE",
"367 320 OFFCURVE",
"400 320 CURVE SMOOTH",
"426 320 OFFCURVE",
"348 118 OFFCURVE",
"347 91 CURVE SMOOTH",
"346 67 OFFCURVE",
"422 0 OFFCURVE",
"467 0 CURVE SMOOTH",
"529 0 OFFCURVE",
"653 54 OFFCURVE",
"653 104 CURVE SMOOTH",
"653 146 OFFCURVE",
"627 181 OFFCURVE",
"570 201 CURVE"
);
}
);
width = 661;
}
);
unicode = 006E;
},
{
glyphname = o;
lastChange = "2015-08-07 16:01:45 +0000";
layers = (
{
background = {
paths = (
{
closed = 1;
nodes = (
"149 507 OFFCURVE",
"125 424 OFFCURVE",
"187 370 CURVE",
"245 388 OFFCURVE",
"313 384 OFFCURVE",
"356 359 CURVE",
"338 238 OFFCURVE",
"280 160 OFFCURVE",
"185 117 CURVE",
"166 186 OFFCURVE",
"173 261 OFFCURVE",
"211 335 CURVE",
"211 405 OFFCURVE",
"141 449 OFFCURVE",
"78 417 CURVE",
"31 330 OFFCURVE",
"20 240 OFFCURVE",
"20 177 CURVE SMOOTH",
"20 109 OFFCURVE",
"128 0 OFFCURVE",
"231 0 CURVE SMOOTH",
"367 0 OFFCURVE",
"494 168 OFFCURVE",
"494 325 CURVE SMOOTH",
"494 387 OFFCURVE",
"410 509 OFFCURVE",
"237 542 CURVE"
);
}
);
};
layerId = "AF1B7CCB-9C31-456C-8386-1D362D80AEF6";
name = "Bold Italic";
paths = (
{
closed = 1;
nodes = (
"149 507 OFFCURVE",
"125 424 OFFCURVE",
"187 370 CURVE",
"245 388 OFFCURVE",
"316 381 OFFCURVE",
"357 352 CURVE",
"327 233 OFFCURVE",
"280 160 OFFCURVE",
"185 117 CURVE",
"166 186 OFFCURVE",
"173 261 OFFCURVE",
"211 335 CURVE",
"211 405 OFFCURVE",
"141 449 OFFCURVE",
"78 417 CURVE",
"31 330 OFFCURVE",
"20 240 OFFCURVE",
"20 177 CURVE SMOOTH",
"20 109 OFFCURVE",
"128 0 OFFCURVE",
"231 0 CURVE SMOOTH",
"367 0 OFFCURVE",
"476 149 OFFCURVE",
"491 305 CURVE SMOOTH",
"497 367 OFFCURVE",
"420 512 OFFCURVE",
"237 542 CURVE"
);
}
);
width = 523;
}
);
unicode = 006F;
},
{
glyphname = p;
lastChange = "2015-08-07 16:01:45 +0000";
layers = (
{
background = {
paths = (
{
closed = 1;
nodes = (
"185 -252 OFFCURVE",
"170 -75 OFFCURVE",
"218 72 CURVE",
"177 56 LINE",
"193 30 OFFCURVE",
"229 0 OFFCURVE",
"264 0 CURVE SMOOTH",
"448 0 OFFCURVE",
"581 226 OFFCURVE",
"581 372 CURVE SMOOTH",
"581 459 OFFCURVE",
"525 519 OFFCURVE",
"433 537 CURVE",
"297 474 LINE",
"307 457 LINE",
"318 482 OFFCURVE",
"327 519 OFFCURVE",
"327 537 CURVE SMOOTH",
"327 571 OFFCURVE",
"261 633 OFFCURVE",
"204 633 CURVE SMOOTH",
"179 633 OFFCURVE",
"160 612 OFFCURVE",
"160 585 CURVE SMOOTH",
"160 527 OFFCURVE",
"153 389 OFFCURVE",
"123 268 CURVE SMOOTH",
"88 128 OFFCURVE",
"15 -118 OFFCURVE",
"15 -159 CURVE SMOOTH",
"15 -191 OFFCURVE",
"92 -252 OFFCURVE",
"143 -252 CURVE SMOOTH"
);
},
{
closed = 1;
nodes = (
"244 247 OFFCURVE",
"282 420 OFFCURVE",
"357 420 CURVE SMOOTH",
"401 420 OFFCURVE",
"422 389 OFFCURVE",
"422 348 CURVE SMOOTH",
"422 259 OFFCURVE",
"339 122 OFFCURVE",
"270 122 CURVE SMOOTH",
"254 122 OFFCURVE",
"244 134 OFFCURVE",
"244 159 CURVE SMOOTH"
);
},
{
closed = 0;
nodes = (
"571 416 LINE",
"572 442 OFFCURVE",
"503 511 OFFCURVE",
"464 511 CURVE SMOOTH",
"425 511 OFFCURVE",
"348 412 OFFCURVE",
"278 320 CURVE",
"290 365 OFFCURVE",
"297 412 OFFCURVE",
"297 442 CURVE SMOOTH",
"297 467 OFFCURVE",
"223 537 OFFCURVE",
"188 537 CURVE SMOOTH",
"106 537 OFFCURVE",
"-3 479 OFFCURVE",
"-3 422 CURVE SMOOTH",
"-3 376 OFFCURVE",
"24 341 OFFCURVE",
"76 318 CURVE",
"106 341 OFFCURVE",
"139 361 OFFCURVE",
"176 380 CURVE",
"196 355 LINE",
"127 284 LINE",
"88 128 OFFCURVE",
"15 -118 OFFCURVE",
"15 -159 CURVE SMOOTH",
"15 -191 OFFCURVE",
"92 -252 OFFCURVE",
"143 -252 CURVE SMOOTH",
"185 -252 OFFCURVE",
"170 -75 OFFCURVE",
"218 72 CURVE",
"177 56 LINE",
"193 30 OFFCURVE",
"229 0 OFFCURVE",
"264 0 CURVE SMOOTH",
"448 0 OFFCURVE",
"581 226 OFFCURVE",
"581 372 CURVE SMOOTH",
"581 459 OFFCURVE",
"525 519 OFFCURVE",
"433 537 CURVE"
);
}
);
};
layerId = "AF1B7CCB-9C31-456C-8386-1D362D80AEF6";
name = "Bold Italic";
paths = (
{
closed = 1;
nodes = (
"287 442 LINE",
"287 477 OFFCURVE",
"223 537 OFFCURVE",
"188 537 CURVE SMOOTH",
"106 537 OFFCURVE",
"-3 479 OFFCURVE",
"-3 422 CURVE SMOOTH",
"-3 376 OFFCURVE",
"24 341 OFFCURVE",
"76 318 CURVE",
"106 341 OFFCURVE",
"139 361 OFFCURVE",
"176 380 CURVE",
"196 355 LINE",
"127 284 LINE",
"88 128 OFFCURVE",
"15 -118 OFFCURVE",
"15 -159 CURVE SMOOTH",
"15 -191 OFFCURVE",
"92 -252 OFFCURVE",
"143 -252 CURVE SMOOTH",
"185 -252 OFFCURVE",
"170 -75 OFFCURVE",
"218 72 CURVE",
"177 56 LINE",
"193 30 OFFCURVE",
"229 0 OFFCURVE",
"270 0 CURVE SMOOTH",
"440 0 OFFCURVE",
"575 202 OFFCURVE",
"575 359 CURVE SMOOTH",
"575 451 OFFCURVE",
"515 537 OFFCURVE",
"406 537 CURVE SMOOTH",
"387 537 OFFCURVE",
"357 530 OFFCURVE",
"338 520 CURVE"
);
},
{
closed = 1;
nodes = (
"244 247 OFFCURVE",
"292 389 OFFCURVE",
"363 389 CURVE SMOOTH",
"401 389 OFFCURVE",
"422 364 OFFCURVE",
"422 323 CURVE SMOOTH",
"422 234 OFFCURVE",
"332 122 OFFCURVE",
"270 122 CURVE SMOOTH",
"254 122 OFFCURVE",
"244 134 OFFCURVE",
"244 159 CURVE SMOOTH"
);
}
);
width = 601;
},
{
associatedMasterId = "AF1B7CCB-9C31-456C-8386-1D362D80AEF6";
background = {
paths = (
{
closed = 1;
nodes = (
"135 -252 OFFCURVE",
"110 -75 OFFCURVE",
"158 72 CURVE",
"117 56 LINE",
"133 30 OFFCURVE",
"169 0 OFFCURVE",
"204 0 CURVE SMOOTH",
"388 0 OFFCURVE",
"521 226 OFFCURVE",
"521 372 CURVE SMOOTH",
"521 459 OFFCURVE",
"465 519 OFFCURVE",
"373 537 CURVE",
"237 474 LINE",
"247 457 LINE",
"258 482 OFFCURVE",
"276 519 OFFCURVE",
"276 537 CURVE SMOOTH",
"276 571 OFFCURVE",
"210 633 OFFCURVE",
"153 633 CURVE SMOOTH",
"128 633 OFFCURVE",
"109 612 OFFCURVE",
"109 585 CURVE SMOOTH",
"109 527 OFFCURVE",
"101 457 OFFCURVE",
"82 370 CURVE SMOOTH",
"43 189 OFFCURVE",
"-35 -118 OFFCURVE",
"-35 -159 CURVE SMOOTH",
"-35 -191 OFFCURVE",
"42 -252 OFFCURVE",
"93 -252 CURVE SMOOTH"
);
},
{
closed = 1;
nodes = (
"151 120 OFFCURVE",
"207 401 OFFCURVE",
"254 425 CURVE SMOOTH",
"282 439 OFFCURVE",
"369 398 OFFCURVE",
"369 373 CURVE SMOOTH",
"369 294 OFFCURVE",
"288 120 OFFCURVE",
"206 120 CURVE SMOOTH"
);
}
);
};
layerId = "23932045-F5CC-41DF-B5F4-6595B0079549";
name = "Bold Italic Aug 3 15, 20:01";
paths = (
{
closed = 1;
nodes = (
"125 -252 OFFCURVE",
"110 -75 OFFCURVE",
"158 72 CURVE",
"117 56 LINE",
"133 30 OFFCURVE",
"169 0 OFFCURVE",
"204 0 CURVE SMOOTH",
"388 0 OFFCURVE",
"521 226 OFFCURVE",
"521 372 CURVE SMOOTH",
"521 459 OFFCURVE",
"465 519 OFFCURVE",
"373 537 CURVE",
"237 474 LINE",
"247 457 LINE",
"258 482 OFFCURVE",
"267 519 OFFCURVE",
"267 537 CURVE SMOOTH",
"267 571 OFFCURVE",
"201 633 OFFCURVE",
"144 633 CURVE SMOOTH",
"119 633 OFFCURVE",
"100 612 OFFCURVE",
"100 585 CURVE SMOOTH",
"100 527 OFFCURVE",
"93 389 OFFCURVE",
"63 268 CURVE SMOOTH",
"28 128 OFFCURVE",
"-45 -118 OFFCURVE",
"-45 -159 CURVE SMOOTH",
"-45 -191 OFFCURVE",
"32 -252 OFFCURVE",
"83 -252 CURVE SMOOTH"
);
},
{
closed = 1;
nodes = (
"184 247 OFFCURVE",
"222 420 OFFCURVE",
"297 420 CURVE SMOOTH",
"341 420 OFFCURVE",
"362 389 OFFCURVE",
"362 348 CURVE SMOOTH",
"362 259 OFFCURVE",
"279 122 OFFCURVE",
"210 122 CURVE SMOOTH",
"194 122 OFFCURVE",
"184 134 OFFCURVE",
"184 159 CURVE SMOOTH"
);
}
);
width = 544;
}
);
leftMetricsKey = n;
rightMetricsKey = o;
unicode = 0070;
},
{
glyphname = q;
lastChange = "2015-08-07 16:01:45 +0000";
layers = (
{
background = {
paths = (
{
closed = 1;
nodes = (
"467 -211 OFFCURVE",
"592 -73 OFFCURVE",
"646 -17 CURVE",
"638 27 OFFCURVE",
"606 67 OFFCURVE",
"558 67 CURVE SMOOTH",
"511 67 OFFCURVE",
"475 21 OFFCURVE",
"422 -59 CURVE",
"450 36 OFFCURVE",
"468 101 OFFCURVE",
"485 161 CURVE SMOOTH",
"503 225 OFFCURVE",
"549 366 OFFCURVE",
"549 416 CURVE SMOOTH",
"549 442 OFFCURVE",
"475 511 OFFCURVE",
"422 511 CURVE SMOOTH",
"407 511 OFFCURVE",
"394 483 OFFCURVE",
"389 459 CURVE",
"378 493 OFFCURVE",
"331 537 OFFCURVE",
"292 537 CURVE SMOOTH",
"124 537 OFFCURVE",
"15 324 OFFCURVE",
"15 159 CURVE SMOOTH",
"15 99 OFFCURVE",
"96 0 OFFCURVE",
"160 0 CURVE SMOOTH",
"226 0 OFFCURVE",
"293 95 OFFCURVE",
"348 184 CURVE",
"371 170 LINE",
"353 138 OFFCURVE",
"336 106 OFFCURVE",
"333 89 CURVE SMOOTH",
"326 49 OFFCURVE",
"283 -93 OFFCURVE",
"283 -118 CURVE SMOOTH",
"283 -151 OFFCURVE",
"362 -211 OFFCURVE",
"418 -211 CURVE SMOOTH"
);
},
{
closed = 1;
nodes = (
"177 275 OFFCURVE",
"234 416 OFFCURVE",
"329 416 CURVE SMOOTH",
"344 416 OFFCURVE",
"360 412 OFFCURVE",
"377 405 CURVE",
"348 287 OFFCURVE",
"262 192 OFFCURVE",
"165 132 CURVE"
);
}
);
};
layerId = "AF1B7CCB-9C31-456C-8386-1D362D80AEF6";
name = "Bold Italic";
paths = (
{
closed = 1;
nodes = (
"464 -211 OFFCURVE",
"575 -98 OFFCURVE",
"636 -39 CURVE",
"632 2 OFFCURVE",
"591 51 OFFCURVE",
"551 51 CURVE SMOOTH",
"503 51 OFFCURVE",
"461 -11 OFFCURVE",
"422 -59 CURVE",
"450 36 OFFCURVE",
"468 101 OFFCURVE",
"485 161 CURVE SMOOTH",
"503 225 OFFCURVE",
"549 366 OFFCURVE",
"549 416 CURVE SMOOTH",
"549 442 OFFCURVE",
"475 511 OFFCURVE",
"422 511 CURVE SMOOTH",
"407 511 OFFCURVE",
"394 483 OFFCURVE",
"389 459 CURVE",
"378 493 OFFCURVE",
"331 537 OFFCURVE",
"292 537 CURVE SMOOTH",
"124 537 OFFCURVE",
"15 324 OFFCURVE",
"15 159 CURVE SMOOTH",
"15 99 OFFCURVE",
"96 0 OFFCURVE",
"160 0 CURVE SMOOTH",
"226 0 OFFCURVE",
"293 95 OFFCURVE",
"348 184 CURVE",
"371 170 LINE",
"353 138 OFFCURVE",
"336 106 OFFCURVE",
"333 89 CURVE SMOOTH",
"326 49 OFFCURVE",
"283 -93 OFFCURVE",
"283 -118 CURVE SMOOTH",
"283 -151 OFFCURVE",
"362 -211 OFFCURVE",
"418 -211 CURVE SMOOTH"
);
},
{
closed = 1;
nodes = (
"177 275 OFFCURVE",
"234 416 OFFCURVE",
"329 416 CURVE SMOOTH",
"344 416 OFFCURVE",
"360 412 OFFCURVE",
"377 405 CURVE",
"348 287 OFFCURVE",
"262 192 OFFCURVE",
"165 132 CURVE"
);
}
);
width = 617;
}
);
leftMetricsKey = a;
unicode = 0071;
},
{
glyphname = r;
lastChange = "2015-08-07 16:01:45 +0000";
layers = (
{
associatedMasterId = "AF1B7CCB-9C31-456C-8386-1D362D80AEF6";
background = {
paths = (
{
closed = 1;
nodes = (
"269 180 OFFCURVE",
"262 0 OFFCURVE",
"208 0 CURVE SMOOTH",
"154 0 OFFCURVE",
"52 85 OFFCURVE",
"54 125 CURVE SMOOTH",
"54 141 OFFCURVE",
"115 247 OFFCURVE",
"130 286 CURVE",
"238 379 LINE",
"217 405 LINE",
"185 384 OFFCURVE",
"158 361 OFFCURVE",
"127 341 CURVE",
"66 347 OFFCURVE",
"24 412 OFFCURVE",
"25 455 CURVE SMOOTH",
"27 507 OFFCURVE",
"143 562 OFFCURVE",
"222 562 CURVE SMOOTH",
"259 562 OFFCURVE",
"358 500 OFFCURVE",
"357 477 CURVE SMOOTH",
"356 446 OFFCURVE",
"346 415 OFFCURVE",
"329 369 CURVE",
"385 449 OFFCURVE",
"459 538 OFFCURVE",
"521 538 CURVE SMOOTH",
"564 538 OFFCURVE",
"621 414 OFFCURVE",
"611 339 CURVE",
"571 285 OFFCURVE",
"474 266 OFFCURVE",
"409 297 CURVE",
"413 319 OFFCURVE",
"424 351 OFFCURVE",
"424 379 CURVE",
"381 348 OFFCURVE",
"338 306 OFFCURVE",
"300 272 CURVE"
);
}
);
};
layerId = "71D54475-A4FA-4CB2-8CA0-89B80272B94F";
name = "Bold Italic Jul 31 15, 03:27";
paths = (
{
closed = 1;
nodes = (
"342 374 LINE",
"389 471 OFFCURVE",
"439 538 OFFCURVE",
"487 538 CURVE SMOOTH",
"540 538 OFFCURVE",
"600 436 OFFCURVE",
"599 359 CURVE",
"566 304 OFFCURVE",
"478 279 OFFCURVE",
"409 307 CURVE",
"411 329 OFFCURVE",
"412 349 OFFCURVE",
"410 374 CURVE",
"361 339 OFFCURVE",
"329 304 OFFCURVE",
"305 264 CURVE",
"288 177 OFFCURVE",
"289 0 OFFCURVE",
"237 0 CURVE SMOOTH",
"183 0 OFFCURVE",
"75 85 OFFCURVE",
"75 125 CURVE SMOOTH",
"73 141 OFFCURVE",
"127 247 OFFCURVE",
"139 286 CURVE",
"241 379 LINE",
"218 405 LINE",
"187 384 OFFCURVE",
"162 361 OFFCURVE",
"132 341 CURVE",
"71 347 OFFCURVE",
"24 412 OFFCURVE",
"22 455 CURVE SMOOTH",
"21 507 OFFCURVE",
"133 562 OFFCURVE",
"212 562 CURVE SMOOTH",
"249 562 OFFCURVE",
"352 500 OFFCURVE",
"353 477 CURVE SMOOTH",
"354 454 OFFCURVE",
"345 424 OFFCURVE",
"331 378 CURVE"
);
}
);
width = 584;
},
{
associatedMasterId = "AF1B7CCB-9C31-456C-8386-1D362D80AEF6";
background = {
paths = (
{
closed = 1;
nodes = (
"628 422 OFFCURVE",
"589 538 OFFCURVE",
"510 538 CURVE SMOOTH",
"442 538 OFFCURVE",
"385 452 OFFCURVE",
"322 357 CURVE",
"330 384 OFFCURVE",
"338 434 OFFCURVE",
"338 465 CURVE SMOOTH",
"338 492 OFFCURVE",
"239 565 OFFCURVE",
"202 565 CURVE SMOOTH",
"119 565 OFFCURVE",
"2 498 OFFCURVE",
"2 444 CURVE SMOOTH",
"2 391 OFFCURVE",
"37 352 OFFCURVE",
"102 333 CURVE",
"125 352 OFFCURVE",
"146 369 OFFCURVE",
"185 392 CURVE",
"202 369 LINE",
"155 300 LINE",
"130 235 OFFCURVE",
"89 133 OFFCURVE",
"89 98 CURVE SMOOTH",
"89 64 OFFCURVE",
"195 0 OFFCURVE",
"247 0 CURVE SMOOTH",
"279 0 OFFCURVE",
"288 124 OFFCURVE",
"316 248 CURVE",
"350 294 OFFCURVE",
"383 332 OFFCURVE",
"425 356 CURVE",
"425 300 LINE",
"484 285 OFFCURVE",
"584 293 OFFCURVE",
"628 365 CURVE"
);
}
);
};
layerId = "89532793-41D5-41B1-B115-84CC35643BA0";
name = "Bold Italic Aug 1 15, 15:59";
paths = (
{
closed = 1;
nodes = (
"613 422 OFFCURVE",
"571 538 OFFCURVE",
"492 538 CURVE SMOOTH",
"424 538 OFFCURVE",
"377 452 OFFCURVE",
"317 357 CURVE",
"325 384 OFFCURVE",
"331 434 OFFCURVE",
"331 465 CURVE SMOOTH",
"330 492 OFFCURVE",
"229 565 OFFCURVE",
"192 565 CURVE SMOOTH",
"109 565 OFFCURVE",
"-6 498 OFFCURVE",
"-5 444 CURVE SMOOTH",
"-3 391 OFFCURVE",
"33 352 OFFCURVE",
"98 333 CURVE",
"121 352 OFFCURVE",
"141 369 OFFCURVE",
"180 392 CURVE",
"197 369 LINE",
"152 300 LINE",
"129 235 OFFCURVE",
"90 133 OFFCURVE",
"91 98 CURVE SMOOTH",
"92 64 OFFCURVE",
"200 0 OFFCURVE",
"252 0 CURVE SMOOTH",
"284 0 OFFCURVE",
"290 124 OFFCURVE",
"314 248 CURVE",
"347 294 OFFCURVE",
"379 329 OFFCURVE",
"412 356 CURVE",
"413 300 LINE",
"472 285 OFFCURVE",
"572 293 OFFCURVE",
"614 365 CURVE"
);
}
);
width = 647;
},
{
associatedMasterId = "AF1B7CCB-9C31-456C-8386-1D362D80AEF6";
background = {
paths = (
{
closed = 1;
nodes = (
"594 401 OFFCURVE",
"554 511 OFFCURVE",
"479 511 CURVE SMOOTH",
"415 511 OFFCURVE",
"370 429 OFFCURVE",
"313 339 CURVE",
"321 365 OFFCURVE",
"326 412 OFFCURVE",
"326 442 CURVE SMOOTH",
"326 467 OFFCURVE",
"230 537 OFFCURVE",
"194 537 CURVE SMOOTH",
"116 537 OFFCURVE",
"6 473 OFFCURVE",
"7 422 CURVE SMOOTH",
"9 371 OFFCURVE",
"43 334 OFFCURVE",
"105 316 CURVE",
"127 334 OFFCURVE",
"146 351 OFFCURVE",
"183 372 CURVE",
"199 351 LINE",
"156 285 LINE",
"135 223 OFFCURVE",
"98 126 OFFCURVE",
"98 93 CURVE SMOOTH",
"99 61 OFFCURVE",
"202 0 OFFCURVE",
"251 0 CURVE SMOOTH",
"282 0 OFFCURVE",
"288 118 OFFCURVE",
"310 236 CURVE",
"342 279 OFFCURVE",
"372 313 OFFCURVE",
"403 338 CURVE",
"404 285 LINE",
"460 271 OFFCURVE",
"555 278 OFFCURVE",
"595 347 CURVE"
);
}
);
};
layerId = "1D5FA07E-8D1E-4B54-B685-096421FD3D3B";
name = "Bold Italic Aug 1 15, 18:52";
paths = (
{
closed = 1;
nodes = (
"579 385 OFFCURVE",
"512 516 OFFCURVE",
"450 516 CURVE SMOOTH",
"406 516 OFFCURVE",
"365 418 OFFCURVE",
"313 339 CURVE",
"321 365 OFFCURVE",
"326 412 OFFCURVE",
"326 442 CURVE SMOOTH",
"326 467 OFFCURVE",
"230 537 OFFCURVE",
"194 537 CURVE SMOOTH",
"116 537 OFFCURVE",
"6 473 OFFCURVE",
"7 422 CURVE SMOOTH",
"9 371 OFFCURVE",
"43 334 OFFCURVE",
"105 316 CURVE",
"127 334 OFFCURVE",
"146 351 OFFCURVE",
"183 372 CURVE",
"199 351 LINE",
"156 285 LINE",
"129 211 OFFCURVE",
"101 120 OFFCURVE",
"101 93 CURVE SMOOTH",
"102 61 OFFCURVE",
"205 0 OFFCURVE",
"254 0 CURVE SMOOTH",
"285 0 OFFCURVE",
"301 150 OFFCURVE",
"301 246 CURVE",
"343 284 OFFCURVE",
"379 307 OFFCURVE",
"412 327 CURVE",
"426 231 LINE",
"487 224 OFFCURVE",
"562 248 OFFCURVE",
"598 306 CURVE"
);
}
);
width = 601;
},
{
associatedMasterId = "AF1B7CCB-9C31-456C-8386-1D362D80AEF6";
background = {
paths = (
{
closed = 1;
nodes = (
"564 385 OFFCURVE",
"497 516 OFFCURVE",
"435 516 CURVE SMOOTH",
"391 516 OFFCURVE",
"350 418 OFFCURVE",
"298 339 CURVE",
"306 365 OFFCURVE",
"311 412 OFFCURVE",
"311 442 CURVE SMOOTH",
"311 467 OFFCURVE",
"215 537 OFFCURVE",
"179 537 CURVE SMOOTH",
"101 537 OFFCURVE",
"-9 473 OFFCURVE",
"-8 422 CURVE SMOOTH",
"-6 371 OFFCURVE",
"28 334 OFFCURVE",
"90 316 CURVE",
"112 334 OFFCURVE",
"131 351 OFFCURVE",
"168 372 CURVE",
"184 351 LINE",
"141 285 LINE",
"114 211 OFFCURVE",
"86 120 OFFCURVE",
"86 93 CURVE SMOOTH",
"87 61 OFFCURVE",
"190 0 OFFCURVE",
"239 0 CURVE SMOOTH",
"270 0 OFFCURVE",
"286 150 OFFCURVE",
"286 246 CURVE",
"328 284 OFFCURVE",
"364 307 OFFCURVE",
"397 327 CURVE",
"411 231 LINE",
"472 224 OFFCURVE",
"547 248 OFFCURVE",
"583 306 CURVE"
);
}
);
};
layerId = "5A0557B1-53F1-40BE-B848-4FCB93BBECFD";
name = "Bold Italic Aug 1 15, 19:44";
paths = (
{
closed = 1;
nodes = (
"253 0 OFFCURVE",
"255 118 OFFCURVE",
"273 242 CURVE",
"302 276 OFFCURVE",
"340 303 OFFCURVE",
"375 327 CURVE",
"387 235 LINE",
"448 219 OFFCURVE",
"520 239 OFFCURVE",
"561 288 CURVE",
"542 385 OFFCURVE",
"495 516 OFFCURVE",
"440 516 CURVE SMOOTH",
"392 516 OFFCURVE",
"355 420 OFFCURVE",
"289 336 CURVE",
"295 365 OFFCURVE",
"302 412 OFFCURVE",
"302 442 CURVE SMOOTH",
"302 467 OFFCURVE",
"228 537 OFFCURVE",
"193 537 CURVE SMOOTH",
"111 537 OFFCURVE",
"2 479 OFFCURVE",
"2 422 CURVE SMOOTH",
"2 376 OFFCURVE",
"29 341 OFFCURVE",
"81 318 CURVE",
"111 341 OFFCURVE",
"144 361 OFFCURVE",
"181 380 CURVE",
"201 355 LINE",
"140 285 LINE",
"117 223 OFFCURVE",
"91 126 OFFCURVE",
"91 93 CURVE SMOOTH",
"91 63 OFFCURVE",
"170 0 OFFCURVE",
"223 0 CURVE SMOOTH"
);
}
);
width = 587;
},
{
associatedMasterId = "AF1B7CCB-9C31-456C-8386-1D362D80AEF6";
background = {
paths = (
{
closed = 1;
nodes = (
"266 348 LINE",
"285 385 OFFCURVE",
"297 421 OFFCURVE",
"297 442 CURVE SMOOTH",
"297 467 OFFCURVE",
"223 537 OFFCURVE",
"188 537 CURVE SMOOTH",
"106 537 OFFCURVE",
"-3 479 OFFCURVE",
"-3 422 CURVE SMOOTH",
"-3 376 OFFCURVE",
"24 341 OFFCURVE",
"76 318 CURVE",
"106 341 OFFCURVE",
"139 361 OFFCURVE",
"176 380 CURVE",
"196 355 LINE",
"135 285 LINE",
"112 223 OFFCURVE",
"86 126 OFFCURVE",
"86 93 CURVE SMOOTH",
"86 63 OFFCURVE",
"165 0 OFFCURVE",
"218 0 CURVE SMOOTH",
"256 0 OFFCURVE",
"268 123 OFFCURVE",
"270 256 CURVE",
"343 283 OFFCURVE",
"414 306 OFFCURVE",
"485 318 CURVE",
"538 399 OFFCURVE",
"512 492 OFFCURVE",
"397 512 CURVE",
"369 485 OFFCURVE",
"336 433 OFFCURVE",
"280 341 CURVE"
);
}
);
};
layerId = "B5481C4A-33E6-47B9-AD91-A260EBED5C4B";
name = "Bold Italic Aug 2 15, 23:10";
paths = (
{
closed = 1;
nodes = (
"266 348 LINE",
"285 385 OFFCURVE",
"297 421 OFFCURVE",
"297 442 CURVE SMOOTH",
"297 467 OFFCURVE",
"223 537 OFFCURVE",
"188 537 CURVE SMOOTH",
"106 537 OFFCURVE",
"-3 479 OFFCURVE",
"-3 422 CURVE SMOOTH",
"-3 376 OFFCURVE",
"24 341 OFFCURVE",
"76 318 CURVE",
"106 341 OFFCURVE",
"139 361 OFFCURVE",
"176 380 CURVE",
"196 355 LINE",
"135 285 LINE",
"112 223 OFFCURVE",
"86 126 OFFCURVE",
"86 93 CURVE SMOOTH",
"86 63 OFFCURVE",
"165 0 OFFCURVE",
"218 0 CURVE SMOOTH",
"256 0 OFFCURVE",
"268 123 OFFCURVE",
"270 246 CURVE",
"332 286 OFFCURVE",
"388 312 OFFCURVE",
"481 344 CURVE",
"532 427 OFFCURVE",
"513 524 OFFCURVE",
"374 520 CURVE",
"353 479 OFFCURVE",
"314 397 OFFCURVE",
"280 341 CURVE"
);
}
);
width = 527;
},
{
associatedMasterId = "AF1B7CCB-9C31-456C-8386-1D362D80AEF6";
background = {
paths = (
{
closed = 1;
nodes = (
"273 0 OFFCURVE",
"257 196 OFFCURVE",
"280 246 CURVE SMOOTH",
"307 305 OFFCURVE",
"493 402 OFFCURVE",
"574 454 CURVE",
"590 519 OFFCURVE",
"568 605 OFFCURVE",
"438 603 CURVE",
"410 563 OFFCURVE",
"336 446 OFFCURVE",
"279 356 CURVE",
"260 365 LINE",
"279 402 OFFCURVE",
"287 438 OFFCURVE",
"287 459 CURVE SMOOTH",
"287 476 OFFCURVE",
"221 537 OFFCURVE",
"188 537 CURVE SMOOTH",
"106 537 OFFCURVE",
"-3 479 OFFCURVE",
"-3 422 CURVE SMOOTH",
"-3 376 OFFCURVE",
"24 341 OFFCURVE",
"76 318 CURVE",
"106 341 OFFCURVE",
"139 361 OFFCURVE",
"176 380 CURVE",
"196 355 LINE",
"135 285 LINE",
"112 223 OFFCURVE",
"86 126 OFFCURVE",
"86 93 CURVE SMOOTH",
"86 63 OFFCURVE",
"165 0 OFFCURVE",
"218 0 CURVE SMOOTH"
);
}
);
};
layerId = "89F48D97-100C-4D02-8206-0A202A6C79D8";
name = "Bold Italic Aug 4 15, 18:40";
paths = (
{
closed = 1;
nodes = (
"273 0 OFFCURVE",
"257 196 OFFCURVE",
"280 246 CURVE SMOOTH",
"307 305 OFFCURVE",
"463 402 OFFCURVE",
"555 468 CURVE",
"556 548 OFFCURVE",
"534 600 OFFCURVE",
"416 603 CURVE",
"372 539 OFFCURVE",
"327 459 OFFCURVE",
"275 384 CURVE",
"286 421 OFFCURVE",
"287 438 OFFCURVE",
"287 459 CURVE SMOOTH",
"287 476 OFFCURVE",
"221 537 OFFCURVE",
"188 537 CURVE SMOOTH",
"106 537 OFFCURVE",
"-3 479 OFFCURVE",
"-3 422 CURVE SMOOTH",
"-3 376 OFFCURVE",
"24 341 OFFCURVE",
"76 318 CURVE",
"106 341 OFFCURVE",
"139 361 OFFCURVE",
"176 380 CURVE",
"196 355 LINE",
"135 285 LINE",
"112 223 OFFCURVE",
"86 126 OFFCURVE",
"86 93 CURVE SMOOTH",
"86 63 OFFCURVE",
"165 0 OFFCURVE",
"218 0 CURVE SMOOTH"
);
}
);
width = 527;
},
{
background = {
paths = (
{
closed = 1;
nodes = (
"266 348 LINE",
"285 385 OFFCURVE",
"297 421 OFFCURVE",
"297 442 CURVE SMOOTH",
"297 467 OFFCURVE",
"223 537 OFFCURVE",
"188 537 CURVE SMOOTH",
"106 537 OFFCURVE",
"-3 479 OFFCURVE",
"-3 422 CURVE SMOOTH",
"-3 376 OFFCURVE",
"24 341 OFFCURVE",
"76 318 CURVE",
"106 341 OFFCURVE",
"139 361 OFFCURVE",
"176 380 CURVE",
"196 355 LINE",
"135 285 LINE",
"112 223 OFFCURVE",
"86 126 OFFCURVE",
"86 93 CURVE SMOOTH",
"86 63 OFFCURVE",
"165 0 OFFCURVE",
"218 0 CURVE SMOOTH",
"256 0 OFFCURVE",
"268 123 OFFCURVE",
"270 246 CURVE",
"332 286 OFFCURVE",
"388 312 OFFCURVE",
"481 344 CURVE",
"532 427 OFFCURVE",
"513 524 OFFCURVE",
"374 520 CURVE",
"353 479 OFFCURVE",
"314 397 OFFCURVE",
"280 341 CURVE"
);
}
);
};
layerId = "AF1B7CCB-9C31-456C-8386-1D362D80AEF6";
name = "Bold Italic";
paths = (
{
closed = 1;
nodes = (
"266 348 LINE",
"285 385 OFFCURVE",
"297 421 OFFCURVE",
"297 442 CURVE SMOOTH",
"297 467 OFFCURVE",
"223 537 OFFCURVE",
"188 537 CURVE SMOOTH",
"106 537 OFFCURVE",
"-3 479 OFFCURVE",
"-3 422 CURVE SMOOTH",
"-3 376 OFFCURVE",
"24 341 OFFCURVE",
"76 318 CURVE",
"106 341 OFFCURVE",
"139 361 OFFCURVE",
"176 380 CURVE",
"196 355 LINE",
"135 285 LINE",
"112 223 OFFCURVE",
"86 126 OFFCURVE",
"86 93 CURVE SMOOTH",
"86 63 OFFCURVE",
"165 0 OFFCURVE",
"218 0 CURVE SMOOTH",
"256 0 OFFCURVE",
"268 123 OFFCURVE",
"270 246 CURVE",
"332 286 OFFCURVE",
"388 312 OFFCURVE",
"481 344 CURVE",
"532 427 OFFCURVE",
"513 524 OFFCURVE",
"374 520 CURVE",
"353 479 OFFCURVE",
"314 397 OFFCURVE",
"280 341 CURVE"
);
}
);
width = 487;
visible = 1;
}
);
leftMetricsKey = n;
unicode = 0072;
},
{
glyphname = s;
lastChange = "2015-08-08 19:34:28 +0000";
layers = (
{
background = {
paths = (
{
closed = 1;
nodes = (
"261 0 OFFCURVE",
"401 68 OFFCURVE",
"401 151 CURVE SMOOTH",
"401 214 OFFCURVE",
"212 261 OFFCURVE",
"212 287 CURVE SMOOTH",
"212 308 OFFCURVE",
"337 375 OFFCURVE",
"412 397 CURVE",
"423 483 OFFCURVE",
"392 530 OFFCURVE",
"314 538 CURVE",
"201 515 OFFCURVE",
"89 371 OFFCURVE",
"89 307 CURVE SMOOTH",
"89 252 OFFCURVE",
"161 193 OFFCURVE",
"255 166 CURVE",
"230 145 OFFCURVE",
"195 126 OFFCURVE",
"161 113 CURVE",
"153 133 OFFCURVE",
"147 159 OFFCURVE",
"142 184 CURVE",
"70 196 OFFCURVE",
"-7 160 OFFCURVE",
"-7 100 CURVE SMOOTH",
"-7 56 OFFCURVE",
"80 0 OFFCURVE",
"148 0 CURVE SMOOTH"
);
}
);
};
layerId = "AF1B7CCB-9C31-456C-8386-1D362D80AEF6";
name = "Bold Italic";
paths = (
{
closed = 1;
nodes = (
"261 0 OFFCURVE",
"401 68 OFFCURVE",
"401 151 CURVE SMOOTH",
"401 214 OFFCURVE",
"212 261 OFFCURVE",
"212 287 CURVE SMOOTH",
"212 308 OFFCURVE",
"337 375 OFFCURVE",
"412 397 CURVE",
"423 483 OFFCURVE",
"392 530 OFFCURVE",
"314 538 CURVE",
"201 515 OFFCURVE",
"89 371 OFFCURVE",
"89 307 CURVE SMOOTH",
"89 252 OFFCURVE",
"161 193 OFFCURVE",
"255 166 CURVE",
"230 145 OFFCURVE",
"181 124 OFFCURVE",
"147 111 CURVE",
"139 131 OFFCURVE",
"133 157 OFFCURVE",
"128 182 CURVE",
"56 194 OFFCURVE",
"-7 160 OFFCURVE",
"-7 100 CURVE SMOOTH",
"-7 56 OFFCURVE",
"80 0 OFFCURVE",
"148 0 CURVE SMOOTH"
);
}
);
width = 436;
}
);
unicode = 0073;
},
{
glyphname = t;
lastChange = "2015-08-07 16:01:45 +0000";
layers = (
{
background = {
paths = (
{
closed = 1;
nodes = (
"149 372 OFFCURVE",
"251 375 OFFCURVE",
"363 380 CURVE",
"396 423 OFFCURVE",
"390 476 OFFCURVE",
"348 508 CURVE",
"221 483 OFFCURVE",
"160 481 OFFCURVE",
"24 489 CURVE",
"-17 453 OFFCURVE",
"-10 385 OFFCURVE",
"34 363 CURVE"
);
},
{
closed = 1;
nodes = (
"210 367 OFFCURVE",
"235 451 CURVE SMOOTH",
"248 495 OFFCURVE",
"282 556 OFFCURVE",
"282 603 CURVE SMOOTH",
"282 638 OFFCURVE",
"196 700 OFFCURVE",
"155 700 CURVE SMOOTH",
"123 700 OFFCURVE",
"104 488 OFFCURVE",
"87 398 CURVE SMOOTH",
"64 277 OFFCURVE",
"26 127 OFFCURVE",
"26 94 CURVE SMOOTH",
"26 62 OFFCURVE",
"110 0 OFFCURVE",
"169 0 CURVE SMOOTH",
"231 0 OFFCURVE",
"355 54 OFFCURVE",
"355 104 CURVE SMOOTH",
"355 146 OFFCURVE",
"329 181 OFFCURVE",
"272 201 CURVE",
"241 175 OFFCURVE",
"211 158 OFFCURVE",
"174 140 CURVE",
"187 240 OFFCURVE"
);
}
);
};
layerId = "AF1B7CCB-9C31-456C-8386-1D362D80AEF6";
name = "Bold Italic";
paths = (
{
closed = 1;
nodes = (
"396 415 OFFCURVE",
"390 483 OFFCURVE",
"348 508 CURVE",
"311 501 OFFCURVE",
"283 495 OFFCURVE",
"244 490 CURVE",
"263 531 OFFCURVE",
"279 564 OFFCURVE",
"279 596 CURVE SMOOTH",
"279 631 OFFCURVE",
"193 693 OFFCURVE",
"152 693 CURVE SMOOTH",
"128 693 OFFCURVE",
"109 555 OFFCURVE",
"109 485 CURVE",
"77 486 OFFCURVE",
"53 487 OFFCURVE",
"25 489 CURVE",
"-16 450 OFFCURVE",
"-10 382 OFFCURVE",
"31 363 CURVE",
"89 367 LINE",
"68 278 OFFCURVE",
"26 127 OFFCURVE",
"26 94 CURVE SMOOTH",
"26 62 OFFCURVE",
"110 0 OFFCURVE",
"169 0 CURVE SMOOTH",
"231 0 OFFCURVE",
"355 54 OFFCURVE",
"355 104 CURVE SMOOTH",
"355 146 OFFCURVE",
"329 181 OFFCURVE",
"272 201 CURVE",
"241 175 OFFCURVE",
"211 158 OFFCURVE",
"174 140 CURVE",
"181 210 OFFCURVE",
"198 295 OFFCURVE",
"215 374 CURVE",
"357 380 LINE"
);
}
);
width = 403;
},
{
associatedMasterId = "AF1B7CCB-9C31-456C-8386-1D362D80AEF6";
background = {
paths = (
{
closed = 1;
nodes = (
"74 282 OFFCURVE",
"21 119 OFFCURVE",
"21 94 CURVE SMOOTH",
"21 62 OFFCURVE",
"105 0 OFFCURVE",
"164 0 CURVE SMOOTH",
"235 0 OFFCURVE",
"376 72 OFFCURVE",
"376 121 CURVE SMOOTH",
"376 163 OFFCURVE",
"354 198 OFFCURVE",
"293 218 CURVE",
"262 192 OFFCURVE",
"206 158 OFFCURVE",
"169 140 CURVE",
"182 216 OFFCURVE",
"199 280 OFFCURVE",
"221 359 CURVE SMOOTH",
"243 437 OFFCURVE",
"301 581 OFFCURVE",
"301 631 CURVE SMOOTH",
"301 665 OFFCURVE",
"220 738 OFFCURVE",
"163 738 CURVE SMOOTH",
"138 738 OFFCURVE",
"119 717 OFFCURVE",
"119 690 CURVE SMOOTH",
"119 632 OFFCURVE",
"118 498 OFFCURVE",
"97 396 CURVE SMOOTH"
);
},
{
closed = 1;
nodes = (
"136 402 OFFCURVE",
"267 408 OFFCURVE",
"379 413 CURVE",
"412 456 OFFCURVE",
"406 509 OFFCURVE",
"364 541 CURVE",
"243 515 OFFCURVE",
"152 510 OFFCURVE",
"11 519 CURVE",
"-30 483 OFFCURVE",
"-23 415 OFFCURVE",
"21 393 CURVE"
);
}
);
};
layerId = "5D9963C1-8D47-4672-A144-FD71B5FDF670";
name = "Bold Italic Aug 4 15, 17:13";
paths = (
{
closed = 1;
nodes = (
"74 282 OFFCURVE",
"21 119 OFFCURVE",
"21 94 CURVE SMOOTH",
"21 62 OFFCURVE",
"105 0 OFFCURVE",
"164 0 CURVE SMOOTH",
"235 0 OFFCURVE",
"376 72 OFFCURVE",
"376 121 CURVE SMOOTH",
"376 163 OFFCURVE",
"354 198 OFFCURVE",
"293 218 CURVE",
"262 192 OFFCURVE",
"206 158 OFFCURVE",
"169 140 CURVE",
"182 216 OFFCURVE",
"199 280 OFFCURVE",
"221 359 CURVE SMOOTH",
"243 437 OFFCURVE",
"301 581 OFFCURVE",
"301 631 CURVE SMOOTH",
"301 665 OFFCURVE",
"220 738 OFFCURVE",
"163 738 CURVE SMOOTH",
"138 738 OFFCURVE",
"119 717 OFFCURVE",
"119 690 CURVE SMOOTH",
"119 632 OFFCURVE",
"118 498 OFFCURVE",
"97 396 CURVE SMOOTH"
);
},
{
closed = 1;
nodes = (
"150 402 OFFCURVE",
"252 405 OFFCURVE",
"364 410 CURVE",
"397 453 OFFCURVE",
"391 506 OFFCURVE",
"349 538 CURVE",
"222 513 OFFCURVE",
"161 511 OFFCURVE",
"25 519 CURVE",
"-16 483 OFFCURVE",
"-9 415 OFFCURVE",
"35 393 CURVE"
);
}
);
width = 386;
}
);
unicode = 0074;
},
{
glyphname = u;
lastChange = "2015-08-07 16:01:45 +0000";
layers = (
{
background = {
paths = (
{
closed = 1;
nodes = (
"301 471 OFFCURVE",
"221 537 OFFCURVE",
"188 537 CURVE SMOOTH",
"106 537 OFFCURVE",
"-3 479 OFFCURVE",
"-3 422 CURVE SMOOTH",
"-3 376 OFFCURVE",
"24 341 OFFCURVE",
"76 318 CURVE",
"106 341 OFFCURVE",
"139 361 OFFCURVE",
"176 380 CURVE",
"196 355 LINE",
"131 285 LINE",
"107 223 OFFCURVE",
"69 126 OFFCURVE",
"69 93 CURVE SMOOTH",
"69 63 OFFCURVE",
"148 0 OFFCURVE",
"196 0 CURVE SMOOTH",
"253 0 OFFCURVE",
"323 95 OFFCURVE",
"378 184 CURVE",
"401 170 LINE",
"383 138 OFFCURVE",
"363 105 OFFCURVE",
"363 87 CURVE SMOOTH",
"363 64 OFFCURVE",
"439 0 OFFCURVE",
"483 0 CURVE SMOOTH",
"533 0 OFFCURVE",
"668 44 OFFCURVE",
"669 92 CURVE SMOOTH",
"671 141 OFFCURVE",
"648 175 OFFCURVE",
"594 198 CURVE",
"559 171 OFFCURVE",
"537 159 OFFCURVE",
"487 140 CURVE",
"517 227 OFFCURVE",
"578 377 OFFCURVE",
"579 416 CURVE SMOOTH",
"579 442 OFFCURVE",
"505 511 OFFCURVE",
"452 511 CURVE SMOOTH",
"428 511 OFFCURVE",
"410 447 OFFCURVE",
"402 366 CURVE",
"354 268 OFFCURVE",
"298 214 OFFCURVE",
"210 144 CURVE",
"260 248 OFFCURVE",
"301 349 OFFCURVE",
"301 437 CURVE SMOOTH"
);
}
);
};
guideLines = (
{
position = "{601, 559}";
}
);
layerId = "AF1B7CCB-9C31-456C-8386-1D362D80AEF6";
name = "Bold Italic";
paths = (
{
closed = 1;
nodes = (
"517 227 OFFCURVE",
"578 377 OFFCURVE",
"579 416 CURVE SMOOTH",
"579 442 OFFCURVE",
"505 511 OFFCURVE",
"452 511 CURVE SMOOTH",
"428 511 OFFCURVE",
"410 447 OFFCURVE",
"402 366 CURVE",
"354 268 OFFCURVE",
"298 214 OFFCURVE",
"216 151 CURVE",
"261 248 OFFCURVE",
"301 361 OFFCURVE",
"301 437 CURVE SMOOTH",
"301 471 OFFCURVE",
"221 537 OFFCURVE",
"188 537 CURVE SMOOTH",
"106 537 OFFCURVE",
"-3 479 OFFCURVE",
"-3 422 CURVE SMOOTH",
"-3 376 OFFCURVE",
"24 341 OFFCURVE",
"76 318 CURVE",
"106 341 OFFCURVE",
"139 361 OFFCURVE",
"176 380 CURVE",
"196 355 LINE",
"125 281 LINE",
"103 217 OFFCURVE",
"69 132 OFFCURVE",
"69 93 CURVE SMOOTH",
"69 62 OFFCURVE",
"146 0 OFFCURVE",
"188 0 CURVE SMOOTH",
"257 0 OFFCURVE",
"317 73 OFFCURVE",
"377 184 CURVE",
"400 170 LINE",
"383 138 OFFCURVE",
"363 105 OFFCURVE",
"363 87 CURVE SMOOTH",
"363 65 OFFCURVE",
"439 0 OFFCURVE",
"481 0 CURVE SMOOTH",
"543 0 OFFCURVE",
"667 54 OFFCURVE",
"667 104 CURVE SMOOTH",
"667 146 OFFCURVE",
"641 181 OFFCURVE",
"584 201 CURVE",
"553 175 OFFCURVE",
"526 157 OFFCURVE",
"487 140 CURVE"
);
}
);
width = 675;
},
{
associatedMasterId = "AF1B7CCB-9C31-456C-8386-1D362D80AEF6";
background = {
paths = (
{
closed = 1;
nodes = (
"416 214 LINE",
"350 99 OFFCURVE",
"270 0 OFFCURVE",
"213 0 CURVE SMOOTH",
"184 0 OFFCURVE",
"62 75 OFFCURVE",
"62 106 CURVE SMOOTH",
"62 137 OFFCURVE",
"106 253 OFFCURVE",
"121 291 CURVE",
"225 384 LINE",
"203 410 LINE",
"172 389 OFFCURVE",
"134 360 OFFCURVE",
"100 334 CURVE",
"31 350 OFFCURVE",
"1 405 OFFCURVE",
"1 440 CURVE SMOOTH",
"1 493 OFFCURVE",
"127 559 OFFCURVE",
"206 559 CURVE SMOOTH",
"243 559 OFFCURVE",
"351 497 OFFCURVE",
"351 461 CURVE SMOOTH",
"351 417 OFFCURVE",
"274 279 OFFCURVE",
"229 184 CURVE",
"274 165 LINE",
"420 305 OFFCURVE",
"464 538 OFFCURVE",
"493 538 CURVE SMOOTH",
"549 538 OFFCURVE",
"645 465 OFFCURVE",
"644 438 CURVE SMOOTH",
"643 397 OFFCURVE",
"576 288 OFFCURVE",
"530 160 CURVE",
"564 182 OFFCURVE",
"587 197 OFFCURVE",
"616 224 CURVE",
"681 205 OFFCURVE",
"714 166 OFFCURVE",
"712 113 CURVE SMOOTH",
"711 64 OFFCURVE",
"567 0 OFFCURVE",
"505 0 CURVE SMOOTH",
"473 0 OFFCURVE",
"381 56 OFFCURVE",
"381 82 CURVE SMOOTH",
"381 93 OFFCURVE",
"416 134 OFFCURVE",
"442 195 CURVE"
);
}
);
};
guideLines = (
{
position = "{651, 559}";
}
);
layerId = "095B53E8-75E9-451C-8C00-EFE62F16270E";
name = "Bold Italic Jul 30 15, 20:14";
paths = (
{
closed = 1;
nodes = (
"419 217 LINE",
"353 102 OFFCURVE",
"270 0 OFFCURVE",
"213 0 CURVE SMOOTH",
"176 0 OFFCURVE",
"56 79 OFFCURVE",
"56 112 CURVE SMOOTH",
"56 141 OFFCURVE",
"99 253 OFFCURVE",
"114 291 CURVE",
"218 384 LINE",
"196 410 LINE",
"165 389 OFFCURVE",
"127 360 OFFCURVE",
"93 334 CURVE",
"24 350 OFFCURVE",
"-6 405 OFFCURVE",
"-6 440 CURVE SMOOTH",
"-6 493 OFFCURVE",
"120 559 OFFCURVE",
"199 559 CURVE SMOOTH",
"236 559 OFFCURVE",
"349 497 OFFCURVE",
"349 461 CURVE SMOOTH",
"349 414 OFFCURVE",
"279 282 OFFCURVE",
"228 184 CURVE",
"261 168 LINE",
"416 297 OFFCURVE",
"462 538 OFFCURVE",
"493 538 CURVE SMOOTH",
"549 538 OFFCURVE",
"645 465 OFFCURVE",
"644 438 CURVE SMOOTH",
"643 397 OFFCURVE",
"576 288 OFFCURVE",
"530 160 CURVE",
"564 182 OFFCURVE",
"587 197 OFFCURVE",
"616 224 CURVE",
"681 205 OFFCURVE",
"714 166 OFFCURVE",
"712 113 CURVE SMOOTH",
"711 64 OFFCURVE",
"567 0 OFFCURVE",
"505 0 CURVE SMOOTH",
"467 0 OFFCURVE",
"378 59 OFFCURVE",
"378 83 CURVE SMOOTH",
"378 96 OFFCURVE",
"429 157 OFFCURVE",
"448 198 CURVE"
);
}
);
width = 713;
},
{
associatedMasterId = "AF1B7CCB-9C31-456C-8386-1D362D80AEF6";
background = {
paths = (
{
closed = 1;
nodes = (
"228 187 OFFCURVE",
"345 448 OFFCURVE",
"345 469 CURVE SMOOTH",
"345 493 OFFCURVE",
"242 565 OFFCURVE",
"202 565 CURVE SMOOTH",
"140 565 OFFCURVE",
"-4 501 OFFCURVE",
"-5 452 CURVE SMOOTH",
"-7 399 OFFCURVE",
"26 360 OFFCURVE",
"91 341 CURVE",
"120 368 OFFCURVE",
"143 383 OFFCURVE",
"177 405 CURVE",
"133 277 OFFCURVE",
"79 141 OFFCURVE",
"78 100 CURVE SMOOTH",
"77 73 OFFCURVE",
"187 0 OFFCURVE",
"228 0 CURVE SMOOTH",
"278 0 OFFCURVE",
"370 124 OFFCURVE",
"421 215 CURVE",
"446 200 LINE",
"428 168 OFFCURVE",
"401 119 OFFCURVE",
"401 96 CURVE SMOOTH",
"401 72 OFFCURVE",
"505 0 OFFCURVE",
"545 0 CURVE SMOOTH",
"607 0 OFFCURVE",
"750 64 OFFCURVE",
"751 113 CURVE SMOOTH",
"752 166 OFFCURVE",
"719 205 OFFCURVE",
"654 224 CURVE",
"625 197 OFFCURVE",
"602 182 OFFCURVE",
"568 160 CURVE",
"613 288 OFFCURVE",
"659 397 OFFCURVE",
"660 438 CURVE SMOOTH",
"660 465 OFFCURVE",
"547 538 OFFCURVE",
"508 538 CURVE SMOOTH",
"482 538 OFFCURVE",
"338 187 OFFCURVE",
"258 187 CURVE SMOOTH"
);
},
{
closed = 0;
nodes = (
"310 337 LINE",
"323 384 OFFCURVE",
"331 434 OFFCURVE",
"331 465 CURVE SMOOTH",
"331 492 OFFCURVE",
"232 565 OFFCURVE",
"195 565 CURVE SMOOTH",
"112 565 OFFCURVE",
"-5 498 OFFCURVE",
"-5 444 CURVE SMOOTH",
"-5 391 OFFCURVE",
"30 352 OFFCURVE",
"95 333 CURVE",
"118 352 OFFCURVE",
"139 369 OFFCURVE",
"178 392 CURVE",
"195 369 LINE",
"136 300 LINE"
);
}
);
};
guideLines = (
{
position = "{651, 559}";
}
);
layerId = "E60A0504-DB97-4EE2-9013-5631A0D42B70";
name = "Bold Italic Jul 31 15, 03:20";
paths = (
{
closed = 1;
nodes = (
"117 250 OFFCURVE",
"83 139 OFFCURVE",
"83 98 CURVE SMOOTH",
"83 65 OFFCURVE",
"185 1 OFFCURVE",
"242 0 CURVE SMOOTH",
"292 -1 OFFCURVE",
"356 98 OFFCURVE",
"441 224 CURVE",
"418 163 OFFCURVE",
"401 124 OFFCURVE",
"401 96 CURVE SMOOTH",
"401 72 OFFCURVE",
"505 0 OFFCURVE",
"545 0 CURVE SMOOTH",
"607 0 OFFCURVE",
"750 64 OFFCURVE",
"751 113 CURVE SMOOTH",
"752 166 OFFCURVE",
"719 205 OFFCURVE",
"654 224 CURVE",
"625 197 OFFCURVE",
"602 182 OFFCURVE",
"568 160 CURVE",
"613 288 OFFCURVE",
"651 397 OFFCURVE",
"652 438 CURVE SMOOTH",
"652 465 OFFCURVE",
"539 538 OFFCURVE",
"500 538 CURVE SMOOTH",
"466 538 OFFCURVE",
"414 292 OFFCURVE",
"253 173 CURVE",
"300 282 OFFCURVE",
"340 399 OFFCURVE",
"340 465 CURVE SMOOTH",
"340 491 OFFCURVE",
"249 565 OFFCURVE",
"195 565 CURVE SMOOTH",
"112 565 OFFCURVE",
"-5 498 OFFCURVE",
"-5 444 CURVE SMOOTH",
"-5 391 OFFCURVE",
"30 352 OFFCURVE",
"95 333 CURVE",
"118 352 OFFCURVE",
"140 375 OFFCURVE",
"177 401 CURVE",
"196 380 LINE",
"139 306 LINE"
);
}
);
width = 752;
},
{
associatedMasterId = "AF1B7CCB-9C31-456C-8386-1D362D80AEF6";
background = {
paths = (
{
closed = 1;
nodes = (
"112 565 OFFCURVE",
"-5 498 OFFCURVE",
"-5 444 CURVE SMOOTH",
"-5 391 OFFCURVE",
"30 352 OFFCURVE",
"95 333 CURVE",
"118 352 OFFCURVE",
"139 369 OFFCURVE",
"178 392 CURVE",
"195 369 LINE",
"124 292 LINE",
"88 209 OFFCURVE",
"75 165 OFFCURVE",
"76 138 CURVE SMOOTH",
"77 70 OFFCURVE",
"197 0 OFFCURVE",
"254 0 CURVE SMOOTH",
"302 0 OFFCURVE",
"345 45 OFFCURVE",
"432 193 CURVE",
"453 178 LINE",
"429 138 OFFCURVE",
"417 110 OFFCURVE",
"417 90 CURVE SMOOTH",
"417 66 OFFCURVE",
"514 0 OFFCURVE",
"554 0 CURVE SMOOTH",
"616 0 OFFCURVE",
"759 64 OFFCURVE",
"760 113 CURVE SMOOTH",
"761 166 OFFCURVE",
"728 205 OFFCURVE",
"663 224 CURVE",
"634 197 OFFCURVE",
"611 182 OFFCURVE",
"577 160 CURVE",
"622 288 OFFCURVE",
"668 397 OFFCURVE",
"669 438 CURVE SMOOTH",
"669 465 OFFCURVE",
"566 538 OFFCURVE",
"510 538 CURVE SMOOTH",
"492 538 OFFCURVE",
"474 513 OFFCURVE",
"458 385 CURVE",
"405 274 OFFCURVE",
"335 193 OFFCURVE",
"253 173 CURVE",
"298 270 OFFCURVE",
"344 414 OFFCURVE",
"344 465 CURVE",
"344 492 OFFCURVE",
"232 565 OFFCURVE",
"195 565 CURVE SMOOTH"
);
}
);
};
guideLines = (
{
position = "{651, 559}";
}
);
layerId = "165417F2-EFBF-41CA-8B1C-E1BBA6E86FCE";
name = "Bold Italic Aug 1 15, 15:59";
paths = (
{
closed = 1;
nodes = (
"112 565 OFFCURVE",
"-5 498 OFFCURVE",
"-5 444 CURVE SMOOTH",
"-5 391 OFFCURVE",
"30 352 OFFCURVE",
"95 333 CURVE",
"118 352 OFFCURVE",
"139 369 OFFCURVE",
"178 392 CURVE",
"195 369 LINE",
"124 292 LINE",
"88 209 OFFCURVE",
"75 165 OFFCURVE",
"76 138 CURVE SMOOTH",
"77 78 OFFCURVE",
"185 0 OFFCURVE",
"245 0 CURVE SMOOTH",
"311 0 OFFCURVE",
"386 105 OFFCURVE",
"432 193 CURVE",
"457 179 LINE",
"438 145 OFFCURVE",
"417 110 OFFCURVE",
"417 90 CURVE SMOOTH",
"417 66 OFFCURVE",
"514 0 OFFCURVE",
"554 0 CURVE SMOOTH",
"616 0 OFFCURVE",
"759 64 OFFCURVE",
"760 113 CURVE SMOOTH",
"761 166 OFFCURVE",
"728 205 OFFCURVE",
"663 224 CURVE",
"634 197 OFFCURVE",
"611 182 OFFCURVE",
"577 160 CURVE",
"622 288 OFFCURVE",
"668 397 OFFCURVE",
"669 438 CURVE SMOOTH",
"669 465 OFFCURVE",
"566 538 OFFCURVE",
"510 538 CURVE SMOOTH",
"492 538 OFFCURVE",
"474 513 OFFCURVE",
"458 385 CURVE",
"405 274 OFFCURVE",
"346 217 OFFCURVE",
"253 165 CURVE",
"294 261 OFFCURVE",
"344 404 OFFCURVE",
"344 465 CURVE SMOOTH",
"344 492 OFFCURVE",
"232 565 OFFCURVE",
"195 565 CURVE SMOOTH"
);
}
);
width = 761;
},
{
associatedMasterId = "AF1B7CCB-9C31-456C-8386-1D362D80AEF6";
background = {
paths = (
{
closed = 1;
nodes = (
"124 565 OFFCURVE",
"7 498 OFFCURVE",
"7 444 CURVE SMOOTH",
"7 391 OFFCURVE",
"42 352 OFFCURVE",
"107 333 CURVE",
"130 352 OFFCURVE",
"151 369 OFFCURVE",
"190 392 CURVE",
"207 369 LINE",
"136 292 LINE",
"100 209 OFFCURVE",
"87 165 OFFCURVE",
"88 138 CURVE SMOOTH",
"89 78 OFFCURVE",
"197 0 OFFCURVE",
"257 0 CURVE SMOOTH",
"323 0 OFFCURVE",
"398 105 OFFCURVE",
"444 193 CURVE",
"469 179 LINE",
"450 145 OFFCURVE",
"429 110 OFFCURVE",
"429 90 CURVE SMOOTH",
"429 66 OFFCURVE",
"526 0 OFFCURVE",
"566 0 CURVE SMOOTH",
"628 0 OFFCURVE",
"771 64 OFFCURVE",
"772 113 CURVE SMOOTH",
"773 166 OFFCURVE",
"740 205 OFFCURVE",
"675 224 CURVE",
"646 197 OFFCURVE",
"623 182 OFFCURVE",
"589 160 CURVE",
"634 288 OFFCURVE",
"680 397 OFFCURVE",
"681 438 CURVE SMOOTH",
"681 465 OFFCURVE",
"578 538 OFFCURVE",
"522 538 CURVE SMOOTH",
"504 538 OFFCURVE",
"486 513 OFFCURVE",
"470 385 CURVE",
"417 274 OFFCURVE",
"358 217 OFFCURVE",
"265 165 CURVE",
"306 261 OFFCURVE",
"356 404 OFFCURVE",
"356 465 CURVE SMOOTH",
"356 492 OFFCURVE",
"244 565 OFFCURVE",
"207 565 CURVE SMOOTH"
);
}
);
};
guideLines = (
{
position = "{663, 559}";
}
);
layerId = "DDD0CEC8-3128-4FE2-A135-9E20FB7AE255";
name = "Bold Italic Aug 1 15, 18:47";
paths = (
{
closed = 1;
nodes = (
"118 537 OFFCURVE",
"7 473 OFFCURVE",
"7 422 CURVE SMOOTH",
"7 371 OFFCURVE",
"41 334 OFFCURVE",
"102 316 CURVE",
"124 334 OFFCURVE",
"144 351 OFFCURVE",
"181 372 CURVE",
"197 351 LINE",
"130 277 LINE",
"96 199 OFFCURVE",
"83 157 OFFCURVE",
"84 131 CURVE SMOOTH",
"85 74 OFFCURVE",
"188 0 OFFCURVE",
"245 0 CURVE SMOOTH",
"307 0 OFFCURVE",
"379 100 OFFCURVE",
"422 183 CURVE",
"446 170 LINE",
"428 138 OFFCURVE",
"408 105 OFFCURVE",
"408 86 CURVE SMOOTH",
"408 63 OFFCURVE",
"500 0 OFFCURVE",
"538 0 CURVE SMOOTH",
"597 0 OFFCURVE",
"733 61 OFFCURVE",
"734 107 CURVE SMOOTH",
"735 158 OFFCURVE",
"704 195 OFFCURVE",
"642 213 CURVE",
"614 187 OFFCURVE",
"592 173 OFFCURVE",
"560 152 CURVE",
"603 274 OFFCURVE",
"647 377 OFFCURVE",
"648 416 CURVE SMOOTH",
"648 442 OFFCURVE",
"550 511 OFFCURVE",
"497 511 CURVE SMOOTH",
"479 511 OFFCURVE",
"462 487 OFFCURVE",
"447 366 CURVE",
"397 260 OFFCURVE",
"341 206 OFFCURVE",
"252 157 CURVE",
"291 248 OFFCURVE",
"339 384 OFFCURVE",
"339 442 CURVE SMOOTH",
"339 467 OFFCURVE",
"232 537 OFFCURVE",
"197 537 CURVE SMOOTH"
);
}
);
width = 751;
}
);
leftMetricsKey = n;
rightMetricsKey = n;
unicode = 0075;
},
{
glyphname = v;
lastChange = "2015-08-07 16:01:45 +0000";
layers = (
{
background = {
paths = (
{
closed = 1;
nodes = (
"323 0 OFFCURVE",
"502 308 OFFCURVE",
"537 455 CURVE",
"526 534 OFFCURVE",
"463 555 OFFCURVE",
"380 525 CURVE",
"354 378 OFFCURVE",
"304 243 OFFCURVE",
"230 116 CURVE",
"214 123 LINE",
"255 242 OFFCURVE",
"277 337 OFFCURVE",
"277 416 CURVE SMOOTH",
"277 441 OFFCURVE",
"203 511 OFFCURVE",
"168 511 CURVE SMOOTH",
"91 511 OFFCURVE",
"-6 464 OFFCURVE",
"-6 404 CURVE SMOOTH",
"-6 362 OFFCURVE",
"21 327 OFFCURVE",
"73 304 CURVE",
"104 326 OFFCURVE",
"120 334 OFFCURVE",
"156 354 CURVE",
"176 329 LINE",
"125 290 LINE",
"125 224 OFFCURVE",
"94 139 OFFCURVE",
"94 94 CURVE SMOOTH",
"94 70 OFFCURVE",
"178 0 OFFCURVE",
"229 0 CURVE SMOOTH"
);
}
);
};
layerId = "AF1B7CCB-9C31-456C-8386-1D362D80AEF6";
name = "Bold Italic";
paths = (
{
closed = 1;
nodes = (
"342 0 OFFCURVE",
"521 308 OFFCURVE",
"556 455 CURVE",
"545 534 OFFCURVE",
"482 555 OFFCURVE",
"399 525 CURVE",
"370 379 OFFCURVE",
"326 244 OFFCURVE",
"237 116 CURVE",
"221 123 LINE",
"262 242 OFFCURVE",
"284 337 OFFCURVE",
"284 416 CURVE SMOOTH",
"284 441 OFFCURVE",
"203 511 OFFCURVE",
"168 511 CURVE SMOOTH",
"91 511 OFFCURVE",
"-6 464 OFFCURVE",
"-6 404 CURVE SMOOTH",
"-6 362 OFFCURVE",
"21 327 OFFCURVE",
"73 304 CURVE",
"104 326 OFFCURVE",
"120 334 OFFCURVE",
"156 354 CURVE",
"176 329 LINE",
"125 290 LINE",
"125 224 OFFCURVE",
"94 139 OFFCURVE",
"94 94 CURVE SMOOTH",
"94 68 OFFCURVE",
"197 0 OFFCURVE",
"229 0 CURVE SMOOTH"
);
}
);
width = 564;
},
{
associatedMasterId = "AF1B7CCB-9C31-456C-8386-1D362D80AEF6";
background = {
paths = (
{
closed = 1;
nodes = (
"305 445 OFFCURVE",
"236 291 OFFCURVE",
"177 138 CURVE",
"190 285 OFFCURVE",
"193 383 OFFCURVE",
"195 468 CURVE",
"178 505 OFFCURVE",
"90 547 OFFCURVE",
"24 473 CURVE",
"52 325 OFFCURVE",
"66 117 OFFCURVE",
"77 82 CURVE SMOOTH",
"84 60 OFFCURVE",
"155 0 OFFCURVE",
"197 0 CURVE SMOOTH",
"240 0 OFFCURVE",
"386 288 OFFCURVE",
"512 438 CURVE",
"497 511 OFFCURVE",
"454 541 OFFCURVE",
"362 535 CURVE"
);
}
);
};
layerId = "A147DF8D-58A8-4D4E-B91A-4B7AEB8A9CE0";
name = "Bold Italic Aug 4 15, 18:41";
paths = (
{
closed = 1;
nodes = (
"305 427 OFFCURVE",
"239 270 OFFCURVE",
"175 132 CURVE",
"196 279 OFFCURVE",
"204 376 OFFCURVE",
"215 460 CURVE",
"201 498 OFFCURVE",
"116 546 OFFCURVE",
"45 476 CURVE",
"59 351 OFFCURVE",
"63 118 OFFCURVE",
"70 88 CURVE SMOOTH",
"77 60 OFFCURVE",
"155 0 OFFCURVE",
"204 0 CURVE SMOOTH",
"240 0 OFFCURVE",
"408 293 OFFCURVE",
"512 438 CURVE",
"497 511 OFFCURVE",
"454 541 OFFCURVE",
"362 535 CURVE"
);
}
);
width = 488;
}
);
unicode = 0076;
},
{
glyphname = w;
lastChange = "2015-08-07 16:01:45 +0000";
layers = (
{
background = {
paths = (
{
closed = 1;
nodes = (
"250 0 OFFCURVE",
"331 84 OFFCURVE",
"377 195 CURVE",
"368 88 OFFCURVE",
"402 0 OFFCURVE",
"457 0 CURVE SMOOTH",
"573 0 OFFCURVE",
"712 243 OFFCURVE",
"712 372 CURVE SMOOTH",
"712 442 OFFCURVE",
"654 503 OFFCURVE",
"565 536 CURVE",
"474 527 OFFCURVE",
"446 461 OFFCURVE",
"484 396 CURVE",
"540 386 OFFCURVE",
"567 372 OFFCURVE",
"591 360 CURVE",
"573 272 OFFCURVE",
"522 179 OFFCURVE",
"456 135 CURVE",
"462 195 OFFCURVE",
"462 247 OFFCURVE",
"462 291 CURVE SMOOTH",
"462 310 OFFCURVE",
"406 375 OFFCURVE",
"379 375 CURVE SMOOTH",
"345 375 OFFCURVE",
"307 230 OFFCURVE",
"232 113 CURVE",
"214 123 LINE",
"262 242 OFFCURVE",
"284 337 OFFCURVE",
"284 416 CURVE SMOOTH",
"284 441 OFFCURVE",
"203 511 OFFCURVE",
"168 511 CURVE SMOOTH",
"91 511 OFFCURVE",
"-6 464 OFFCURVE",
"-6 404 CURVE SMOOTH",
"-6 362 OFFCURVE",
"21 327 OFFCURVE",
"73 304 CURVE",
"104 326 OFFCURVE",
"120 334 OFFCURVE",
"156 354 CURVE",
"176 329 LINE",
"125 290 LINE",
"125 224 OFFCURVE",
"88 139 OFFCURVE",
"88 94 CURVE SMOOTH",
"88 68 OFFCURVE",
"187 0 OFFCURVE",
"217 0 CURVE SMOOTH"
);
}
);
};
layerId = "AF1B7CCB-9C31-456C-8386-1D362D80AEF6";
name = "Bold Italic";
paths = (
{
closed = 1;
nodes = (
"274 0 OFFCURVE",
"341 127 OFFCURVE",
"379 224 CURVE",
"356 112 OFFCURVE",
"414 0 OFFCURVE",
"463 0 CURVE SMOOTH",
"591 0 OFFCURVE",
"724 245 OFFCURVE",
"724 372 CURVE SMOOTH",
"724 442 OFFCURVE",
"666 506 OFFCURVE",
"577 539 CURVE",
"491 540 OFFCURVE",
"451 471 OFFCURVE",
"484 396 CURVE",
"526 386 OFFCURVE",
"567 372 OFFCURVE",
"600 354 CURVE",
"573 272 OFFCURVE",
"532 195 OFFCURVE",
"466 139 CURVE",
"472 203 OFFCURVE",
"472 255 OFFCURVE",
"472 299 CURVE SMOOTH",
"472 318 OFFCURVE",
"406 375 OFFCURVE",
"379 375 CURVE SMOOTH",
"345 375 OFFCURVE",
"307 230 OFFCURVE",
"232 113 CURVE",
"214 123 LINE",
"262 242 OFFCURVE",
"284 337 OFFCURVE",
"284 416 CURVE SMOOTH",
"284 441 OFFCURVE",
"203 511 OFFCURVE",
"168 511 CURVE SMOOTH",
"91 511 OFFCURVE",
"-6 464 OFFCURVE",
"-6 404 CURVE SMOOTH",
"-6 362 OFFCURVE",
"21 327 OFFCURVE",
"73 304 CURVE",
"104 326 OFFCURVE",
"120 334 OFFCURVE",
"156 354 CURVE",
"176 329 LINE",
"125 290 LINE",
"125 224 OFFCURVE",
"88 139 OFFCURVE",
"88 94 CURVE SMOOTH",
"88 68 OFFCURVE",
"187 0 OFFCURVE",
"217 0 CURVE SMOOTH"
);
}
);
width = 746;
},
{
associatedMasterId = "AF1B7CCB-9C31-456C-8386-1D362D80AEF6";
background = {
paths = (
{
closed = 1;
nodes = (
"385 527 OFFCURVE",
"361 461 OFFCURVE",
"403 396 CURVE",
"459 386 OFFCURVE",
"487 372 OFFCURVE",
"512 354 CURVE",
"517 272 OFFCURVE",
"460 171 OFFCURVE",
"385 135 CURVE",
"383 195 OFFCURVE",
"397 247 OFFCURVE",
"397 283 CURVE SMOOTH",
"397 307 OFFCURVE",
"343 375 OFFCURVE",
"300 375 CURVE SMOOTH",
"283 375 OFFCURVE",
"209 195 OFFCURVE",
"175 132 CURVE",
"196 279 OFFCURVE",
"204 376 OFFCURVE",
"215 460 CURVE",
"201 498 OFFCURVE",
"116 546 OFFCURVE",
"45 476 CURVE",
"59 351 OFFCURVE",
"63 118 OFFCURVE",
"70 88 CURVE SMOOTH",
"77 60 OFFCURVE",
"155 0 OFFCURVE",
"204 0 CURVE SMOOTH",
"214 0 OFFCURVE",
"247 40 OFFCURVE",
"305 143 CURVE",
"316 88 OFFCURVE",
"345 0 OFFCURVE",
"400 0 CURVE SMOOTH",
"516 0 OFFCURVE",
"633 243 OFFCURVE",
"633 354 CURVE SMOOTH",
"633 433 OFFCURVE",
"566 503 OFFCURVE",
"475 536 CURVE"
);
}
);
};
layerId = "4E16D2CA-54B5-4304-9351-375E4E80ED9F";
name = "Bold Italic Aug 4 15, 18:51";
paths = (
{
closed = 1;
nodes = (
"384 527 OFFCURVE",
"356 461 OFFCURVE",
"394 396 CURVE",
"450 386 OFFCURVE",
"477 372 OFFCURVE",
"501 360 CURVE",
"483 272 OFFCURVE",
"432 179 OFFCURVE",
"366 135 CURVE",
"372 195 OFFCURVE",
"382 247 OFFCURVE",
"382 291 CURVE SMOOTH",
"382 310 OFFCURVE",
"333 375 OFFCURVE",
"290 375 CURVE SMOOTH",
"273 375 OFFCURVE",
"188 195 OFFCURVE",
"150 132 CURVE",
"178 270 OFFCURVE",
"192 369 OFFCURVE",
"210 460 CURVE",
"199 498 OFFCURVE",
"117 546 OFFCURVE",
"41 476 CURVE",
"40 375 OFFCURVE",
"37 118 OFFCURVE",
"43 88 CURVE SMOOTH",
"48 60 OFFCURVE",
"127 0 OFFCURVE",
"160 0 CURVE SMOOTH",
"186 0 OFFCURVE",
"239 63 OFFCURVE",
"281 143 CURVE",
"288 88 OFFCURVE",
"312 0 OFFCURVE",
"367 0 CURVE SMOOTH",
"483 0 OFFCURVE",
"622 243 OFFCURVE",
"622 372 CURVE SMOOTH",
"622 442 OFFCURVE",
"564 503 OFFCURVE",
"475 536 CURVE"
);
}
);
width = 644;
}
);
rightMetricsKey = o;
unicode = 0077;
},
{
glyphname = x;
lastChange = "2015-08-07 16:01:45 +0000";
layers = (
{
associatedMasterId = "AF1B7CCB-9C31-456C-8386-1D362D80AEF6";
background = {
paths = (
{
closed = 1;
nodes = (
"381 262 OFFCURVE",
"448 323 OFFCURVE",
"541 355 CURVE",
"592 438 OFFCURVE",
"573 524 OFFCURVE",
"434 520 CURVE",
"413 479 OFFCURVE",
"370 425 OFFCURVE",
"311 369 CURVE",
"285 454 OFFCURVE",
"258 511 OFFCURVE",
"198 511 CURVE SMOOTH",
"146 511 OFFCURVE",
"35 449 OFFCURVE",
"35 382 CURVE SMOOTH",
"35 340 OFFCURVE",
"69 305 OFFCURVE",
"121 282 CURVE",
"153 307 OFFCURVE",
"196 334 OFFCURVE",
"235 351 CURVE",
"252 323 LINE",
"209 251 OFFCURVE",
"134 180 OFFCURVE",
"24 124 CURVE",
"11 44 OFFCURVE",
"72 -6 OFFCURVE",
"141 0 CURVE",
"189 39 OFFCURVE",
"225 73 OFFCURVE",
"254 109 CURVE",
"271 53 OFFCURVE",
"324 0 OFFCURVE",
"370 0 CURVE SMOOTH",
"441 0 OFFCURVE",
"543 65 OFFCURVE",
"543 108 CURVE SMOOTH",
"543 165 OFFCURVE",
"519 190 OFFCURVE",
"460 207 CURVE",
"426 178 OFFCURVE",
"384 147 OFFCURVE",
"339 128 CURVE",
"302 179 LINE"
);
}
);
};
layerId = "E87132D8-CBF1-411E-9ECF-9085490235A7";
name = "Bold Italic Aug 4 15, 21:18";
paths = (
{
closed = 1;
nodes = (
"303 169 LINE",
"372 248 OFFCURVE",
"470 339 OFFCURVE",
"567 409 CURVE",
"590 489 OFFCURVE",
"537 540 OFFCURVE",
"445 536 CURVE",
"417 490 OFFCURVE",
"369 420 OFFCURVE",
"311 363 CURVE",
"285 454 OFFCURVE",
"258 511 OFFCURVE",
"198 511 CURVE SMOOTH",
"146 511 OFFCURVE",
"35 449 OFFCURVE",
"35 382 CURVE SMOOTH",
"35 340 OFFCURVE",
"69 305 OFFCURVE",
"121 282 CURVE",
"153 307 OFFCURVE",
"196 334 OFFCURVE",
"235 351 CURVE",
"252 323 LINE",
"209 251 OFFCURVE",
"134 180 OFFCURVE",
"24 124 CURVE",
"11 44 OFFCURVE",
"72 -6 OFFCURVE",
"141 0 CURVE",
"187 39 OFFCURVE",
"222 73 OFFCURVE",
"254 109 CURVE",
"271 53 OFFCURVE",
"324 0 OFFCURVE",
"370 0 CURVE SMOOTH",
"441 0 OFFCURVE",
"543 65 OFFCURVE",
"543 108 CURVE SMOOTH",
"543 165 OFFCURVE",
"519 190 OFFCURVE",
"460 207 CURVE",
"426 178 OFFCURVE",
"384 147 OFFCURVE",
"339 128 CURVE"
);
}
);
width = 576;
visible = 1;
},
{
background = {
paths = (
{
closed = 1;
nodes = (
"314 156 LINE",
"374 275 OFFCURVE",
"462 355 OFFCURVE",
"560 416 CURVE",
"574 501 OFFCURVE",
"513 541 OFFCURVE",
"439 534 CURVE",
"404 492 OFFCURVE",
"353 437 OFFCURVE",
"308 383 CURVE",
"285 454 OFFCURVE",
"258 511 OFFCURVE",
"198 511 CURVE SMOOTH",
"146 511 OFFCURVE",
"35 449 OFFCURVE",
"35 382 CURVE SMOOTH",
"35 340 OFFCURVE",
"69 305 OFFCURVE",
"121 282 CURVE",
"153 307 OFFCURVE",
"196 334 OFFCURVE",
"235 351 CURVE",
"252 323 LINE",
"209 251 OFFCURVE",
"134 180 OFFCURVE",
"24 124 CURVE",
"11 44 OFFCURVE",
"72 -6 OFFCURVE",
"141 0 CURVE",
"189 39 OFFCURVE",
"225 73 OFFCURVE",
"254 109 CURVE",
"271 53 OFFCURVE",
"324 0 OFFCURVE",
"370 0 CURVE SMOOTH",
"441 0 OFFCURVE",
"543 65 OFFCURVE",
"543 108 CURVE SMOOTH",
"543 165 OFFCURVE",
"519 190 OFFCURVE",
"460 207 CURVE",
"426 178 OFFCURVE",
"384 147 OFFCURVE",
"339 128 CURVE"
);
}
);
};
layerId = "AF1B7CCB-9C31-456C-8386-1D362D80AEF6";
name = "Bold Italic";
paths = (
{
closed = 1;
nodes = (
"311 162 LINE",
"380 270 OFFCURVE",
"466 352 OFFCURVE",
"560 416 CURVE",
"574 501 OFFCURVE",
"513 548 OFFCURVE",
"439 534 CURVE",
"404 492 OFFCURVE",
"353 424 OFFCURVE",
"308 369 CURVE",
"289 447 OFFCURVE",
"260 511 OFFCURVE",
"198 511 CURVE SMOOTH",
"146 511 OFFCURVE",
"35 449 OFFCURVE",
"35 382 CURVE SMOOTH",
"35 340 OFFCURVE",
"69 305 OFFCURVE",
"121 282 CURVE",
"153 307 OFFCURVE",
"196 334 OFFCURVE",
"235 351 CURVE",
"252 323 LINE",
"209 251 OFFCURVE",
"134 180 OFFCURVE",
"24 124 CURVE",
"11 44 OFFCURVE",
"72 -6 OFFCURVE",
"141 0 CURVE",
"189 39 OFFCURVE",
"225 73 OFFCURVE",
"254 109 CURVE",
"271 53 OFFCURVE",
"324 0 OFFCURVE",
"370 0 CURVE SMOOTH",
"441 0 OFFCURVE",
"543 65 OFFCURVE",
"543 108 CURVE SMOOTH",
"543 165 OFFCURVE",
"519 190 OFFCURVE",
"460 207 CURVE",
"426 178 OFFCURVE",
"384 147 OFFCURVE",
"331 133 CURVE"
);
}
);
width = 590;
}
);
unicode = 0078;
},
{
glyphname = y;
lastChange = "2015-08-07 16:01:45 +0000";
layers = (
{
background = {
paths = (
{
closed = 1;
nodes = (
"348 -110 OFFCURVE",
"318 -191 OFFCURVE",
"278 -238 CURVE",
"247 -228 OFFCURVE",
"219 -210 OFFCURVE",
"219 -185 CURVE SMOOTH",
"219 -155 OFFCURVE",
"296 -72 OFFCURVE",
"366 -28 CURVE"
);
},
{
closed = 1;
nodes = (
"219 35 OFFCURVE",
"347 115 OFFCURVE",
"403 158 CURVE",
"410 107 LINE",
"237 -3 OFFCURVE",
"76 -110 OFFCURVE",
"76 -190 CURVE SMOOTH",
"76 -246 OFFCURVE",
"181 -340 OFFCURVE",
"260 -339 CURVE SMOOTH",
"315 -339 OFFCURVE",
"385 -299 OFFCURVE",
"413 -253 CURVE SMOOTH",
"443 -203 OFFCURVE",
"548 344 OFFCURVE",
"548 417 CURVE SMOOTH",
"548 441 OFFCURVE",
"458 511 OFFCURVE",
"432 511 CURVE SMOOTH",
"413 511 OFFCURVE",
"394 406 OFFCURVE",
"387 271 CURVE",
"339 229 OFFCURVE",
"270 182 OFFCURVE",
"209 164 CURVE",
"252 240 OFFCURVE",
"301 364 OFFCURVE",
"301 437 CURVE SMOOTH",
"301 471 OFFCURVE",
"221 537 OFFCURVE",
"188 537 CURVE SMOOTH",
"106 537 OFFCURVE",
"-3 479 OFFCURVE",
"-3 422 CURVE SMOOTH",
"-3 376 OFFCURVE",
"24 341 OFFCURVE",
"76 318 CURVE",
"106 341 OFFCURVE",
"139 361 OFFCURVE",
"176 380 CURVE",
"196 355 LINE",
"125 281 LINE",
"97 217 OFFCURVE",
"73 159 OFFCURVE",
"73 128 CURVE SMOOTH",
"73 95 OFFCURVE",
"142 35 OFFCURVE",
"172 35 CURVE SMOOTH"
);
}
);
};
layerId = "AF1B7CCB-9C31-456C-8386-1D362D80AEF6";
name = "Bold Italic";
paths = (
{
closed = 1;
nodes = (
"348 -110 OFFCURVE",
"318 -191 OFFCURVE",
"278 -238 CURVE",
"247 -228 OFFCURVE",
"219 -210 OFFCURVE",
"219 -185 CURVE SMOOTH",
"219 -155 OFFCURVE",
"296 -72 OFFCURVE",
"366 -28 CURVE"
);
},
{
closed = 1;
nodes = (
"219 35 OFFCURVE",
"351 121 OFFCURVE",
"397 157 CURVE",
"414 119 LINE",
"241 3 OFFCURVE",
"76 -110 OFFCURVE",
"76 -190 CURVE SMOOTH",
"76 -246 OFFCURVE",
"181 -340 OFFCURVE",
"260 -339 CURVE SMOOTH",
"315 -339 OFFCURVE",
"385 -299 OFFCURVE",
"413 -253 CURVE SMOOTH",
"443 -203 OFFCURVE",
"548 344 OFFCURVE",
"548 417 CURVE SMOOTH",
"548 441 OFFCURVE",
"458 511 OFFCURVE",
"432 511 CURVE SMOOTH",
"399 511 OFFCURVE",
"401 320 OFFCURVE",
"378 280 CURVE SMOOTH",
"354 237 OFFCURVE",
"291 198 OFFCURVE",
"218 164 CURVE",
"258 246 OFFCURVE",
"301 364 OFFCURVE",
"301 437 CURVE SMOOTH",
"301 471 OFFCURVE",
"221 537 OFFCURVE",
"188 537 CURVE SMOOTH",
"106 537 OFFCURVE",
"-3 479 OFFCURVE",
"-3 422 CURVE SMOOTH",
"-3 376 OFFCURVE",
"24 341 OFFCURVE",
"76 318 CURVE",
"106 341 OFFCURVE",
"139 361 OFFCURVE",
"176 380 CURVE",
"196 355 LINE",
"125 281 LINE",
"100 207 OFFCURVE",
"73 146 OFFCURVE",
"73 121 CURVE SMOOTH",
"73 88 OFFCURVE",
"142 35 OFFCURVE",
"172 35 CURVE SMOOTH"
);
}
);
width = 565;
}
);
leftMetricsKey = u;
rightMetricsKey = g;
unicode = 0079;
},
{
glyphname = z;
lastChange = "2015-08-07 16:01:45 +0000";
layers = (
{
background = {
paths = (
{
closed = 1;
nodes = (
"342 118 OFFCURVE",
"298 118 CURVE SMOOTH",
"282 118 OFFCURVE",
"273 127 OFFCURVE",
"270 136 CURVE",
"358 224 OFFCURVE",
"521 384 OFFCURVE",
"521 431 CURVE SMOOTH",
"521 495 OFFCURVE",
"470 527 OFFCURVE",
"384 514 CURVE",
"363 485 OFFCURVE",
"341 468 OFFCURVE",
"318 468 CURVE SMOOTH",
"290 468 OFFCURVE",
"249 537 OFFCURVE",
"177 537 CURVE SMOOTH",
"105 537 OFFCURVE",
"27 448 OFFCURVE",
"27 397 CURVE SMOOTH",
"27 342 OFFCURVE",
"99 304 OFFCURVE",
"180 317 CURVE",
"199 367 OFFCURVE",
"229 414 OFFCURVE",
"252 414 CURVE SMOOTH",
"268 414 OFFCURVE",
"291 398 OFFCURVE",
"321 403 CURVE",
"262 288 OFFCURVE",
"175 216 OFFCURVE",
"14 121 CURVE",
"6 50 OFFCURVE",
"50 -3 OFFCURVE",
"118 0 CURVE",
"162 29 OFFCURVE",
"205 62 OFFCURVE",
"230 62 CURVE SMOOTH",
"259 62 OFFCURVE",
"293 0 OFFCURVE",
"358 0 CURVE SMOOTH",
"437 0 OFFCURVE",
"551 62 OFFCURVE",
"551 120 CURVE SMOOTH",
"551 167 OFFCURVE",
"522 191 OFFCURVE",
"468 214 CURVE",
"426 172 OFFCURVE"
);
}
);
};
layerId = "AF1B7CCB-9C31-456C-8386-1D362D80AEF6";
name = "Bold Italic";
paths = (
{
closed = 1;
nodes = (
"352 118 OFFCURVE",
"308 118 CURVE SMOOTH",
"292 118 OFFCURVE",
"279 124 OFFCURVE",
"266 136 CURVE",
"368 224 OFFCURVE",
"531 384 OFFCURVE",
"531 431 CURVE SMOOTH",
"531 495 OFFCURVE",
"480 527 OFFCURVE",
"394 514 CURVE",
"373 485 OFFCURVE",
"351 468 OFFCURVE",
"328 468 CURVE SMOOTH",
"293 468 OFFCURVE",
"245 537 OFFCURVE",
"173 537 CURVE SMOOTH",
"101.214 537 OFFCURVE",
"23 448 OFFCURVE",
"23 397 CURVE SMOOTH",
"23 341 OFFCURVE",
"103 301 OFFCURVE",
"181 317 CURVE",
"199 367 OFFCURVE",
"222 413 OFFCURVE",
"244 413 CURVE SMOOTH",
"264 413 OFFCURVE",
"284 398 OFFCURVE",
"323 403 CURVE",
"253 288 OFFCURVE",
"164 205 OFFCURVE",
"14 131 CURVE",
"-5 63 OFFCURVE",
"39 1 OFFCURVE",
"115 0 CURVE",
"155 29 OFFCURVE",
"201 62 OFFCURVE",
"226 62 CURVE SMOOTH",
"255 62 OFFCURVE",
"303 0 OFFCURVE",
"368 0 CURVE SMOOTH",
"447 0 OFFCURVE",
"561 62 OFFCURVE",
"561 120 CURVE SMOOTH",
"561 167 OFFCURVE",
"532 191 OFFCURVE",
"478 214 CURVE",
"436 172 OFFCURVE"
);
}
);
width = 585;
},
{
associatedMasterId = "AF1B7CCB-9C31-456C-8386-1D362D80AEF6";
background = {
paths = (
{
closed = 1;
nodes = (
"375 383 LINE",
"308 286 OFFCURVE",
"242 237 OFFCURVE",
"161 167 CURVE",
"145 185 OFFCURVE",
"117 218 OFFCURVE",
"94 218 CURVE SMOOTH",
"53 218 OFFCURVE",
"-13 145 OFFCURVE",
"-13 117 CURVE SMOOTH",
"-13 76 OFFCURVE",
"72 0 OFFCURVE",
"122 0 CURVE SMOOTH",
"222 0 OFFCURVE",
"465 294 OFFCURVE",
"564 397 CURVE",
"566 475 OFFCURVE",
"514 510 OFFCURVE",
"426 511 CURVE",
"403 477 OFFCURVE",
"373 458 OFFCURVE",
"348 458 CURVE SMOOTH",
"315 458 OFFCURVE",
"260 539 OFFCURVE",
"206 539 CURVE SMOOTH",
"133 539 OFFCURVE",
"41 469 OFFCURVE",
"41 415 CURVE SMOOTH",
"41 370 OFFCURVE",
"95 323 OFFCURVE",
"161 319 CURVE",
"181 353 OFFCURVE",
"198 378 OFFCURVE",
"237 414 CURVE",
"264 397 OFFCURVE",
"292 377 OFFCURVE",
"324 370 CURVE",
"359 396 LINE"
);
},
{
closed = 1;
nodes = (
"221 106 LINE",
"275 69 OFFCURVE",
"404 0 OFFCURVE",
"446 0 CURVE SMOOTH",
"519 0 OFFCURVE",
"611 70 OFFCURVE",
"611 124 CURVE SMOOTH",
"611 169 OFFCURVE",
"557 216 OFFCURVE",
"491 220 CURVE",
"471 186 OFFCURVE",
"454 161 OFFCURVE",
"415 125 CURVE",
"252 162 LINE"
);
}
);
};
layerId = "DE6459B2-460E-41B2-BE77-1E09F0EBFB01";
name = "Bold Italic Aug 5 15, 22:56";
paths = (
{
closed = 1;
nodes = (
"354 380 LINE",
"285 294 OFFCURVE",
"227 236 OFFCURVE",
"150 169 CURVE",
"130 182 OFFCURVE",
"97 206 OFFCURVE",
"75 204 CURVE SMOOTH",
"41 201 OFFCURVE",
"-10 118 OFFCURVE",
"-7 84 CURVE SMOOTH",
"-3 44 OFFCURVE",
"83 0 OFFCURVE",
"122 0 CURVE SMOOTH",
"214 0 OFFCURVE",
"445 318 OFFCURVE",
"531 408 CURVE",
"532 482 OFFCURVE",
"483 518 OFFCURVE",
"418 509 CURVE",
"389 470 OFFCURVE",
"345 453 OFFCURVE",
"320 453 CURVE SMOOTH",
"287 453 OFFCURVE",
"257 537 OFFCURVE",
"203 537 CURVE SMOOTH",
"136 537 OFFCURVE",
"47 463 OFFCURVE",
"47 408 CURVE SMOOTH",
"47 361 OFFCURVE",
"107 317 OFFCURVE",
"173 321 CURVE",
"196 357 OFFCURVE",
"207 379 OFFCURVE",
"237 416 CURVE"
);
},
{
closed = 1;
nodes = (
"207 121 LINE",
"265 77 OFFCURVE",
"362 0 OFFCURVE",
"414 0 CURVE SMOOTH",
"477 0 OFFCURVE",
"560 45 OFFCURVE",
"567 98 CURVE SMOOTH",
"573 143 OFFCURVE",
"525 196 OFFCURVE",
"461 209 CURVE",
"436 178 OFFCURVE",
"408 151 OFFCURVE",
"375 126 CURVE",
"246 169 LINE"
);
}
);
width = 600;
},
{
associatedMasterId = "AF1B7CCB-9C31-456C-8386-1D362D80AEF6";
background = {
paths = (
{
closed = 1;
nodes = (
"354 380 OFFCURVE",
"236 235 OFFCURVE",
"150 169 CURVE",
"130 182 OFFCURVE",
"97 206 OFFCURVE",
"75 204 CURVE SMOOTH",
"41 201 OFFCURVE",
"-10 118 OFFCURVE",
"-7 84 CURVE SMOOTH",
"-3 44 OFFCURVE",
"83 0 OFFCURVE",
"132 0 CURVE SMOOTH",
"214 0 OFFCURVE",
"445 318 OFFCURVE",
"531 408 CURVE",
"532 482 OFFCURVE",
"483 518 OFFCURVE",
"403 511 CURVE"
);
},
{
closed = 1;
nodes = (
"207 121 LINE",
"265 77 OFFCURVE",
"362 0 OFFCURVE",
"414 0 CURVE SMOOTH",
"477 0 OFFCURVE",
"560 45 OFFCURVE",
"567 98 CURVE SMOOTH",
"573 143 OFFCURVE",
"525 196 OFFCURVE",
"461 209 CURVE",
"436 178 OFFCURVE",
"408 151 OFFCURVE",
"375 126 CURVE",
"246 169 LINE"
);
},
{
closed = 1;
nodes = (
"408 416 LINE",
"350 460 OFFCURVE",
"253 537 OFFCURVE",
"201 537 CURVE SMOOTH",
"138 537 OFFCURVE",
"55 492 OFFCURVE",
"48 439 CURVE SMOOTH",
"42 394 OFFCURVE",
"90 341 OFFCURVE",
"154 328 CURVE",
"179 359 OFFCURVE",
"207 386 OFFCURVE",
"240 411 CURVE",
"369 368 LINE"
);
}
);
};
layerId = "501C93B1-187A-4B1E-A731-AAD753F69613";
name = "Bold Italic Aug 6 15, 20:25";
paths = (
{
closed = 1;
nodes = (
"428 178 OFFCURVE",
"400 151 OFFCURVE",
"375 126 CURVE",
"285 130 LINE",
"395 243 OFFCURVE",
"478 369 OFFCURVE",
"525 418 CURVE",
"520 493 OFFCURVE",
"462 519 OFFCURVE",
"388 511 CURVE",
"380 489 OFFCURVE",
"370 471 OFFCURVE",
"360 454 CURVE",
"304 497 OFFCURVE",
"243 537 OFFCURVE",
"188 537 CURVE SMOOTH",
"118 537 OFFCURVE",
"48 472 OFFCURVE",
"48 418 CURVE SMOOTH",
"48 383 OFFCURVE",
"94 348 OFFCURVE",
"141 331 CURVE",
"174 363 OFFCURVE",
"202 394 OFFCURVE",
"236 418 CURVE",
"323 390 LINE",
"267 303 OFFCURVE",
"207 213 OFFCURVE",
"150 169 CURVE",
"130 182 OFFCURVE",
"107 206 OFFCURVE",
"85 206 CURVE SMOOTH",
"51 205 OFFCURVE",
"-6 126 OFFCURVE",
"-6 92 CURVE SMOOTH",
"-5 54 OFFCURVE",
"76 0 OFFCURVE",
"118 0 CURVE SMOOTH",
"159 0 OFFCURVE",
"203 35 OFFCURVE",
"236 73 CURVE",
"289 38 OFFCURVE",
"353 0 OFFCURVE",
"395 0 CURVE SMOOTH",
"467 0 OFFCURVE",
"550 45 OFFCURVE",
"557 98 CURVE SMOOTH",
"563 143 OFFCURVE",
"517 196 OFFCURVE",
"453 209 CURVE"
);
}
);
width = 600;
}
);
unicode = 007A;
},
{
glyphname = o.alt;
lastChange = "2015-08-07 16:01:45 +0000";
layers = (
{
background = {
paths = (
{
closed = 1;
nodes = (
"373 0 OFFCURVE",
"500 168 OFFCURVE",
"500 325 CURVE SMOOTH",
"500 405 OFFCURVE",
"368 537 OFFCURVE",
"250 537 CURVE SMOOTH",
"121 537 OFFCURVE",
"18 331 OFFCURVE",
"18 187 CURVE SMOOTH",
"18 105 OFFCURVE",
"140 0 OFFCURVE",
"237 0 CURVE SMOOTH"
);
},
{
closed = 1;
nodes = (
"150 122 OFFCURVE",
"197 362 OFFCURVE",
"252 404 CURVE SMOOTH",
"275 422 OFFCURVE",
"359 377 OFFCURVE",
"359 354 CURVE SMOOTH",
"359 275 OFFCURVE",
"276 122 OFFCURVE",
"192 122 CURVE SMOOTH"
);
}
);
};
layerId = "AF1B7CCB-9C31-456C-8386-1D362D80AEF6";
name = "Bold Italic";
paths = (
{
closed = 1;
nodes = (
"373 0 OFFCURVE",
"500 168 OFFCURVE",
"500 325 CURVE SMOOTH",
"500 405 OFFCURVE",
"368 537 OFFCURVE",
"250 537 CURVE SMOOTH",
"121 537 OFFCURVE",
"18 331 OFFCURVE",
"18 187 CURVE SMOOTH",
"18 105 OFFCURVE",
"140 0 OFFCURVE",
"237 0 CURVE SMOOTH"
);
},
{
closed = 1;
nodes = (
"161 200 OFFCURVE",
"193 355 OFFCURVE",
"257 416 CURVE",
"297 417 OFFCURVE",
"342 395 OFFCURVE",
"362 359 CURVE",
"355 258 OFFCURVE",
"286 138 OFFCURVE",
"188 119 CURVE"
);
}
);
width = 531;
},
{
associatedMasterId = "AF1B7CCB-9C31-456C-8386-1D362D80AEF6";
background = {
paths = (
{
closed = 1;
nodes = (
"339 -5 OFFCURVE",
"511 169 OFFCURVE",
"511 366 CURVE SMOOTH",
"511 426 OFFCURVE",
"418 559 OFFCURVE",
"302 559 CURVE SMOOTH",
"177 559 OFFCURVE",
"33 338 OFFCURVE",
"33 166 CURVE SMOOTH",
"33 106 OFFCURVE",
"133 -5 OFFCURVE",
"207 -5 CURVE SMOOTH"
);
},
{
closed = 1;
nodes = (
"190 239 OFFCURVE",
"225 347 OFFCURVE",
"287 426 CURVE",
"320 426 OFFCURVE",
"353 412 OFFCURVE",
"382 373 CURVE",
"342 265 OFFCURVE",
"299 193 OFFCURVE",
"190 125 CURVE"
);
}
);
};
layerId = "54024B38-4CAB-4B69-9B29-2BD581650157";
name = "Bold Italic Jul 30 15, 18:10";
paths = (
{
closed = 1;
nodes = (
"334 -5 OFFCURVE",
"494 169 OFFCURVE",
"484 366 CURVE SMOOTH",
"480 426 OFFCURVE",
"380 559 OFFCURVE",
"264 559 CURVE SMOOTH",
"139 559 OFFCURVE",
"8 338 OFFCURVE",
"16 166 CURVE SMOOTH",
"21 106 OFFCURVE",
"128 -5 OFFCURVE",
"202 -5 CURVE SMOOTH"
);
},
{
closed = 1;
nodes = (
"171 239 OFFCURVE",
"199 347 OFFCURVE",
"256 426 CURVE",
"289 426 OFFCURVE",
"322 412 OFFCURVE",
"355 373 CURVE",
"322 265 OFFCURVE",
"281 193 OFFCURVE",
"177 125 CURVE"
);
}
);
width = 511;
},
{
associatedMasterId = "AF1B7CCB-9C31-456C-8386-1D362D80AEF6";
background = {
paths = (
{
closed = 1;
nodes = (
"399 0 OFFCURVE",
"539 170 OFFCURVE",
"524 356 CURVE SMOOTH",
"518 426 OFFCURVE",
"392 564 OFFCURVE",
"264 564 CURVE SMOOTH",
"120 564 OFFCURVE",
"9 321 OFFCURVE",
"21 174 CURVE SMOOTH",
"27 103 OFFCURVE",
"159 0 OFFCURVE",
"241 0 CURVE SMOOTH"
);
},
{
closed = 1;
nodes = (
"159 128 OFFCURVE",
"208 381 OFFCURVE",
"266 425 CURVE SMOOTH",
"290 444 OFFCURVE",
"377 397 OFFCURVE",
"379 373 CURVE SMOOTH",
"385 296 OFFCURVE",
"290 128 OFFCURVE",
"203 128 CURVE SMOOTH"
);
}
);
};
layerId = "A7CBB112-8DE5-4386-AD38-E71B2FF6ED9B";
name = "Bold Italic Aug 1 15, 15:59";
paths = (
{
closed = 1;
nodes = (
"394 0 OFFCURVE",
"527 177 OFFCURVE",
"527 342 CURVE SMOOTH",
"527 426 OFFCURVE",
"388 565 OFFCURVE",
"264 565 CURVE SMOOTH",
"128 565 OFFCURVE",
"20 348 OFFCURVE",
"20 197 CURVE SMOOTH",
"20 110 OFFCURVE",
"148 0 OFFCURVE",
"251 0 CURVE SMOOTH"
);
},
{
closed = 1;
nodes = (
"159 128 OFFCURVE",
"208 381 OFFCURVE",
"266 425 CURVE SMOOTH",
"290 444 OFFCURVE",
"379 397 OFFCURVE",
"379 373 CURVE SMOOTH",
"379 289 OFFCURVE",
"292 128 OFFCURVE",
"203 128 CURVE SMOOTH"
);
}
);
width = 556;
},
{
associatedMasterId = "AF1B7CCB-9C31-456C-8386-1D362D80AEF6";
background = {
paths = (
{
closed = 1;
nodes = (
"401 0 OFFCURVE",
"534 177 OFFCURVE",
"534 342 CURVE SMOOTH",
"534 426 OFFCURVE",
"395 565 OFFCURVE",
"271 565 CURVE SMOOTH",
"135 565 OFFCURVE",
"27 348 OFFCURVE",
"27 197 CURVE SMOOTH",
"27 110 OFFCURVE",
"155 0 OFFCURVE",
"258 0 CURVE SMOOTH"
);
},
{
closed = 1;
nodes = (
"166 128 OFFCURVE",
"215 381 OFFCURVE",
"273 425 CURVE SMOOTH",
"297 444 OFFCURVE",
"386 397 OFFCURVE",
"386 373 CURVE SMOOTH",
"386 289 OFFCURVE",
"299 128 OFFCURVE",
"210 128 CURVE SMOOTH"
);
}
);
};
layerId = "EAAFA99D-061E-4D9F-AEDE-DEED18AF2BF0";
name = "Bold Italic Aug 1 15, 22:19";
paths = (
{
closed = 1;
nodes = (
"381 0 OFFCURVE",
"508 168 OFFCURVE",
"508 325 CURVE SMOOTH",
"508 405 OFFCURVE",
"376 537 OFFCURVE",
"258 537 CURVE SMOOTH",
"129 537 OFFCURVE",
"26 331 OFFCURVE",
"26 187 CURVE SMOOTH",
"26 105 OFFCURVE",
"148 0 OFFCURVE",
"245 0 CURVE SMOOTH"
);
},
{
closed = 1;
nodes = (
"158 122 OFFCURVE",
"205 362 OFFCURVE",
"260 404 CURVE SMOOTH",
"283 422 OFFCURVE",
"367 377 OFFCURVE",
"367 354 CURVE SMOOTH",
"367 275 OFFCURVE",
"284 122 OFFCURVE",
"200 122 CURVE SMOOTH"
);
}
);
width = 547;
}
);
},
{
glyphname = f.ss01;
lastChange = "2015-08-07 16:01:45 +0000";
layers = (
{
layerId = "AF1B7CCB-9C31-456C-8386-1D362D80AEF6";
name = "Bold Italic";
paths = (
{
closed = 1;
nodes = (
"237 -170 OFFCURVE",
"363 34 OFFCURVE",
"363 136 CURVE SMOOTH",
"363 197 OFFCURVE",
"306 256 OFFCURVE",
"212 293 CURVE",
"375 294 LINE",
"416 334 OFFCURVE",
"414 402 OFFCURVE",
"363 435 CURVE",
"302 417 OFFCURVE",
"257 405 OFFCURVE",
"202 398 CURVE",
"211 433 OFFCURVE",
"219 463 OFFCURVE",
"225 484 CURVE SMOOTH",
"241 535 OFFCURVE",
"306 597 OFFCURVE",
"306 632 CURVE SMOOTH",
"306 668 OFFCURVE",
"210 738 OFFCURVE",
"177 738 CURVE SMOOTH",
"128 738 OFFCURVE",
"100 509 OFFCURVE",
"80 402 CURVE SMOOTH",
"54 260 OFFCURVE",
"-9 -20 OFFCURVE",
"-9 -76 CURVE SMOOTH",
"-9 -115 OFFCURVE",
"87 -170 OFFCURVE",
"134 -170 CURVE SMOOTH"
);
},
{
closed = 1;
nodes = (
"131 41 OFFCURVE",
"148 136 OFFCURVE",
"168 239 CURVE",
"197 210 OFFCURVE",
"219 176 OFFCURVE",
"219 141 CURVE SMOOTH",
"219 78 OFFCURVE",
"180 3 OFFCURVE",
"120 -51 CURVE"
);
}
);
width = 422;
}
);
},
{
glyphname = z.ss01;
lastChange = "2015-08-07 16:01:45 +0000";
layers = (
{
background = {
paths = (
{
closed = 1;
nodes = (
"228 184 LINE",
"61 104 OFFCURVE",
"-82 -17 OFFCURVE",
"-82 -113 CURVE SMOOTH",
"-82 -178 OFFCURVE",
"27 -276 OFFCURVE",
"101 -276 CURVE SMOOTH",
"243 -276 OFFCURVE",
"424 -92 OFFCURVE",
"424 71 CURVE SMOOTH",
"424 121 OFFCURVE",
"310 189 OFFCURVE",
"254 238 CURVE",
"356 285 OFFCURVE",
"454 341 OFFCURVE",
"454 404 CURVE SMOOTH",
"454 455 OFFCURVE",
"362 537 OFFCURVE",
"291 537 CURVE SMOOTH",
"178 537 OFFCURVE",
"43 489 OFFCURVE",
"43 435 CURVE SMOOTH",
"43 404 OFFCURVE",
"64 377 OFFCURVE",
"102 347 CURVE",
"171 381 OFFCURVE",
"257 405 OFFCURVE",
"307 412 CURVE",
"264 325 OFFCURVE",
"105 291 OFFCURVE",
"105 243 CURVE SMOOTH",
"105 201 OFFCURVE",
"197 143 OFFCURVE",
"286 80 CURVE",
"265 -20 OFFCURVE",
"194 -115 OFFCURVE",
"119 -173 CURVE",
"93 -154 OFFCURVE",
"76 -130 OFFCURVE",
"76 -104 CURVE SMOOTH",
"76 -68 OFFCURVE",
"146 22 OFFCURVE",
"289 112 CURVE"
);
}
);
};
layerId = "AF1B7CCB-9C31-456C-8386-1D362D80AEF6";
name = "Bold Italic";
paths = (
{
closed = 1;
nodes = (
"356 285 OFFCURVE",
"454 341 OFFCURVE",
"454 404 CURVE SMOOTH",
"454 455 OFFCURVE",
"362 537 OFFCURVE",
"291 537 CURVE SMOOTH",
"178 537 OFFCURVE",
"43 489 OFFCURVE",
"43 435 CURVE SMOOTH",
"43 404 OFFCURVE",
"64 377 OFFCURVE",
"102 347 CURVE",
"171 381 OFFCURVE",
"257 405 OFFCURVE",
"307 412 CURVE",
"264 325 OFFCURVE",
"105 291 OFFCURVE",
"105 243 CURVE SMOOTH",
"105 219 OFFCURVE",
"135 190 OFFCURVE",
"177 158 CURVE",
"33 79 OFFCURVE",
"-82 -27 OFFCURVE",
"-82 -113 CURVE SMOOTH",
"-82 -178 OFFCURVE",
"27 -276 OFFCURVE",
"101 -276 CURVE SMOOTH",
"243 -276 OFFCURVE",
"424 -92 OFFCURVE",
"424 71 CURVE SMOOTH",
"424 121 OFFCURVE",
"310 189 OFFCURVE",
"254 238 CURVE"
);
},
{
closed = 1;
nodes = (
"93 -154 OFFCURVE",
"76 -130 OFFCURVE",
"76 -104 CURVE SMOOTH",
"76 -70 OFFCURVE",
"138 11 OFFCURVE",
"264 96 CURVE",
"271 90 OFFCURVE",
"279 85 OFFCURVE",
"286 80 CURVE",
"265 -20 OFFCURVE",
"194 -115 OFFCURVE",
"119 -173 CURVE"
);
}
);
width = 485;
}
);
},
{
glyphname = i.ss02;
lastChange = "2015-08-10 14:31:30 +0000";
layers = (
{
background = {
paths = (
{
closed = 1;
nodes = (
"26 63 OFFCURVE",
"100 0 OFFCURVE",
"145 0 CURVE SMOOTH",
"207 0 OFFCURVE",
"331 54 OFFCURVE",
"331 104 CURVE SMOOTH",
"331 146 OFFCURVE",
"305 181 OFFCURVE",
"248 201 CURVE",
"217 175 OFFCURVE",
"187 158 OFFCURVE",
"150 140 CURVE",
"180 227 OFFCURVE",
"241 377 OFFCURVE",
"242 416 CURVE SMOOTH",
"242 442 OFFCURVE",
"168 511 OFFCURVE",
"115 511 CURVE SMOOTH",
"72 511 OFFCURVE",
"26 158 OFFCURVE",
"26 89 CURVE SMOOTH"
);
},
{
closed = 1;
nodes = (
"216 558 OFFCURVE",
"301 626 OFFCURVE",
"295 667 CURVE SMOOTH",
"290 702 OFFCURVE",
"241 766 OFFCURVE",
"201 760 CURVE SMOOTH",
"147 751 OFFCURVE",
"65 689 OFFCURVE",
"71 651 CURVE SMOOTH",
"77 611 OFFCURVE",
"135 546 OFFCURVE",
"171 551 CURVE SMOOTH"
);
}
);
};
layerId = "AF1B7CCB-9C31-456C-8386-1D362D80AEF6";
name = "Bold Italic";
paths = (
{
closed = 1;
nodes = (
"17 63 OFFCURVE",
"90 0 OFFCURVE",
"135 0 CURVE SMOOTH",
"197 0 OFFCURVE",
"322 54 OFFCURVE",
"323 104 CURVE SMOOTH",
"324 146 OFFCURVE",
"299 181 OFFCURVE",
"242 201 CURVE",
"211 175 OFFCURVE",
"180 158 OFFCURVE",
"143 140 CURVE",
"175 227 OFFCURVE",
"239 377 OFFCURVE",
"241 416 CURVE SMOOTH",
"242 442 OFFCURVE",
"169 511 OFFCURVE",
"116 511 CURVE SMOOTH",
"73 511 OFFCURVE",
"19 158 OFFCURVE",
"18 89 CURVE SMOOTH"
);
},
{
closed = 1;
nodes = (
"257 548 OFFCURVE",
"337 622 OFFCURVE",
"328 662 CURVE SMOOTH",
"321 697 OFFCURVE",
"268 757 OFFCURVE",
"228 749 CURVE SMOOTH",
"175 736 OFFCURVE",
"97 669 OFFCURVE",
"106 631 CURVE SMOOTH",
"115 592 OFFCURVE",
"177 531 OFFCURVE",
"213 538 CURVE SMOOTH"
);
}
);
width = 371;
}
);
},
{
glyphname = j.ss02;
lastChange = "2015-08-10 14:31:39 +0000";
layers = (
{
background = {
paths = (
{
closed = 1;
nodes = (
"295 558 OFFCURVE",
"380 626 OFFCURVE",
"374 667 CURVE SMOOTH",
"369 702 OFFCURVE",
"320 766 OFFCURVE",
"280 760 CURVE SMOOTH",
"226 751 OFFCURVE",
"144 689 OFFCURVE",
"150 651 CURVE SMOOTH",
"156 611 OFFCURVE",
"214 546 OFFCURVE",
"250 551 CURVE SMOOTH"
);
},
{
closed = 1;
nodes = (
"254 258 OFFCURVE",
"304 376 OFFCURVE",
"302 442 CURVE SMOOTH",
"302 463 OFFCURVE",
"233 537 OFFCURVE",
"186 537 CURVE SMOOTH",
"105 537 OFFCURVE",
"-4 478 OFFCURVE",
"-3 422 CURVE SMOOTH",
"-2 377 OFFCURVE",
"22 351 OFFCURVE",
"60 327 CURVE",
"95 348 OFFCURVE",
"128 367 OFFCURVE",
"162 381 CURVE",
"182 358 LINE",
"135 301 LINE",
"113 247 OFFCURVE",
"97 141 OFFCURVE",
"87 55 CURVE SMOOTH",
"79 -8 OFFCURVE",
"65 -151 OFFCURVE",
"14 -151 CURVE SMOOTH",
"-20 -151 OFFCURVE",
"-37 -104 OFFCURVE",
"-66 -36 CURVE",
"-128 -19 OFFCURVE",
"-185 -55 OFFCURVE",
"-185 -112 CURVE SMOOTH",
"-184 -181 OFFCURVE",
"-82 -256 OFFCURVE",
"8 -256 CURVE SMOOTH",
"74 -256 OFFCURVE",
"122 -233 OFFCURVE",
"156 -192 CURVE SMOOTH",
"183 -159 OFFCURVE",
"200 -115 OFFCURVE",
"236 132 CURVE SMOOTH"
);
}
);
};
layerId = "AF1B7CCB-9C31-456C-8386-1D362D80AEF6";
name = "Bold Italic";
paths = (
{
closed = 1;
nodes = (
"107 511 OFFCURVE",
"104 164 OFFCURVE",
"42 -137 CURVE",
"-1 -104 OFFCURVE",
"-16 -82 OFFCURVE",
"-61 -22 CURVE",
"-123 -16 OFFCURVE",
"-171 -57 OFFCURVE",
"-172 -108 CURVE SMOOTH",
"-173 -177 OFFCURVE",
"-33 -252 OFFCURVE",
"56 -252 CURVE SMOOTH",
"110 -252 OFFCURVE",
"158 -223 OFFCURVE",
"170 -193 CURVE SMOOTH",
"179 -170 OFFCURVE",
"187 -64 OFFCURVE",
"211 92 CURVE SMOOTH",
"230 217 OFFCURVE",
"282 374 OFFCURVE",
"280 416 CURVE SMOOTH",
"279 441 OFFCURVE",
"190 511 OFFCURVE",
"155 511 CURVE SMOOTH"
);
},
{
closed = 1;
nodes = (
"267 548 OFFCURVE",
"347 622 OFFCURVE",
"338 662 CURVE SMOOTH",
"331 697 OFFCURVE",
"278 757 OFFCURVE",
"238 749 CURVE SMOOTH",
"185 736 OFFCURVE",
"107 669 OFFCURVE",
"116 631 CURVE SMOOTH",
"125 592 OFFCURVE",
"187 531 OFFCURVE",
"223 538 CURVE SMOOTH"
);
}
);
width = 312;
}
);
},
{
glyphname = p.ss02;
lastChange = "2015-08-10 14:32:41 +0000";
layers = (
{
layerId = "AF1B7CCB-9C31-456C-8386-1D362D80AEF6";
name = "Bold Italic";
paths = (
{
closed = 1;
nodes = (
"125 -252 OFFCURVE",
"110 -75 OFFCURVE",
"158 72 CURVE",
"117 56 LINE",
"133 30 OFFCURVE",
"169 0 OFFCURVE",
"204 0 CURVE SMOOTH",
"388 0 OFFCURVE",
"521 226 OFFCURVE",
"521 372 CURVE SMOOTH",
"521 459 OFFCURVE",
"465 519 OFFCURVE",
"373 537 CURVE",
"237 474 LINE",
"247 457 LINE",
"258 482 OFFCURVE",
"267 519 OFFCURVE",
"267 537 CURVE SMOOTH",
"267 571 OFFCURVE",
"201 633 OFFCURVE",
"144 633 CURVE SMOOTH",
"119 633 OFFCURVE",
"100 612 OFFCURVE",
"100 585 CURVE SMOOTH",
"100 527 OFFCURVE",
"93 389 OFFCURVE",
"63 268 CURVE SMOOTH",
"28 128 OFFCURVE",
"-45 -118 OFFCURVE",
"-45 -159 CURVE SMOOTH",
"-45 -191 OFFCURVE",
"32 -252 OFFCURVE",
"83 -252 CURVE SMOOTH"
);
},
{
closed = 1;
nodes = (
"184 247 OFFCURVE",
"222 420 OFFCURVE",
"297 420 CURVE SMOOTH",
"341 420 OFFCURVE",
"362 389 OFFCURVE",
"362 348 CURVE SMOOTH",
"362 259 OFFCURVE",
"279 122 OFFCURVE",
"210 122 CURVE SMOOTH",
"194 122 OFFCURVE",
"184 134 OFFCURVE",
"184 159 CURVE SMOOTH"
);
}
);
width = 544;
}
);
},
{
glyphname = u.ss02;
lastChange = "2015-08-10 14:28:38 +0000";
layers = (
{
background = {
paths = (
{
closed = 1;
nodes = (
"290 468 OFFCURVE",
"216 537 OFFCURVE",
"163 537 CURVE SMOOTH",
"100 537 OFFCURVE",
"20 197 OFFCURVE",
"20 98 CURVE SMOOTH",
"20 67 OFFCURVE",
"102 0 OFFCURVE",
"144 0 CURVE SMOOTH",
"213 0 OFFCURVE",
"283 73 OFFCURVE",
"343 184 CURVE",
"366 170 LINE",
"349 138 OFFCURVE",
"329 105 OFFCURVE",
"329 87 CURVE SMOOTH",
"329 65 OFFCURVE",
"405 0 OFFCURVE",
"447 0 CURVE SMOOTH",
"509 0 OFFCURVE",
"633 54 OFFCURVE",
"633 104 CURVE SMOOTH",
"633 146 OFFCURVE",
"607 181 OFFCURVE",
"550 201 CURVE",
"519 175 OFFCURVE",
"492 157 OFFCURVE",
"453 140 CURVE",
"483 227 OFFCURVE",
"544 377 OFFCURVE",
"545 416 CURVE SMOOTH",
"545 442 OFFCURVE",
"471 511 OFFCURVE",
"418 511 CURVE SMOOTH",
"375 511 OFFCURVE",
"381 279 OFFCURVE",
"166 138 CURVE",
"194 291 OFFCURVE",
"290 411 OFFCURVE",
"290 442 CURVE SMOOTH"
);
}
);
};
layerId = "AF1B7CCB-9C31-456C-8386-1D362D80AEF6";
name = "Bold Italic";
paths = (
{
closed = 1;
nodes = (
"285 470 OFFCURVE",
"214 538 OFFCURVE",
"161 537 CURVE SMOOTH",
"98 535 OFFCURVE",
"22 194 OFFCURVE",
"23 95 CURVE SMOOTH",
"24 64 OFFCURVE",
"106 -1 OFFCURVE",
"148 0 CURVE SMOOTH",
"217 1 OFFCURVE",
"283 73 OFFCURVE",
"343 184 CURVE",
"366 170 LINE",
"349 138 OFFCURVE",
"329 105 OFFCURVE",
"329 87 CURVE SMOOTH",
"329 65 OFFCURVE",
"405 0 OFFCURVE",
"447 0 CURVE SMOOTH",
"509 0 OFFCURVE",
"633 54 OFFCURVE",
"633 104 CURVE SMOOTH",
"633 146 OFFCURVE",
"607 181 OFFCURVE",
"550 201 CURVE",
"519 175 OFFCURVE",
"492 157 OFFCURVE",
"453 140 CURVE",
"483 227 OFFCURVE",
"544 377 OFFCURVE",
"545 416 CURVE SMOOTH",
"545 442 OFFCURVE",
"471 511 OFFCURVE",
"418 511 CURVE SMOOTH",
"375 511 OFFCURVE",
"377 283 OFFCURVE",
"165 138 CURVE",
"190 292 OFFCURVE",
"286 414 OFFCURVE",
"286 445 CURVE SMOOTH"
);
}
);
width = 641;
}
);
},
{
glyphname = v.ss02;
lastChange = "2015-08-10 14:29:49 +0000";
layers = (
{
layerId = "AF1B7CCB-9C31-456C-8386-1D362D80AEF6";
name = "Bold Italic";
paths = (
{
closed = 1;
nodes = (
"305 427 OFFCURVE",
"239 270 OFFCURVE",
"175 132 CURVE",
"196 279 OFFCURVE",
"204 376 OFFCURVE",
"215 460 CURVE",
"201 498 OFFCURVE",
"116 546 OFFCURVE",
"45 476 CURVE",
"59 351 OFFCURVE",
"63 118 OFFCURVE",
"70 88 CURVE SMOOTH",
"77 60 OFFCURVE",
"155 0 OFFCURVE",
"204 0 CURVE SMOOTH",
"240 0 OFFCURVE",
"408 293 OFFCURVE",
"512 438 CURVE",
"497 511 OFFCURVE",
"454 541 OFFCURVE",
"362 535 CURVE"
);
}
);
width = 488;
}
);
},
{
glyphname = gjA;
lastChange = "2015-08-07 16:01:45 +0000";
layers = (
{
background = {
paths = (
{
closed = 1;
nodes = (
"495 257 OFFCURVE",
"521 238 OFFCURVE",
"540 238 CURVE SMOOTH",
"558 238 OFFCURVE",
"591 264 OFFCURVE",
"609 285 CURVE",
"630 265 LINE",
"599 230 OFFCURVE",
"536 144 OFFCURVE",
"536 121 CURVE SMOOTH",
"536 82 OFFCURVE",
"654 0 OFFCURVE",
"690 0 CURVE SMOOTH",
"742 0 OFFCURVE",
"896 76 OFFCURVE",
"896 130 CURVE SMOOTH",
"896 183 OFFCURVE",
"861 222 OFFCURVE",
"796 241 CURVE",
"765 208 OFFCURVE",
"738 188 OFFCURVE",
"695 160 CURVE",
"740 285 OFFCURVE",
"819 450 OFFCURVE",
"819 493 CURVE SMOOTH",
"819 520 OFFCURVE",
"705 593 OFFCURVE",
"671 593 CURVE SMOOTH",
"641 593 OFFCURVE",
"635 477 OFFCURVE",
"557 385 CURVE",
"516 423 OFFCURVE",
"493 451 OFFCURVE",
"470 451 CURVE SMOOTH",
"439 451 OFFCURVE",
"387 383 OFFCURVE",
"387 362 CURVE SMOOTH",
"387 346 OFFCURVE",
"419 318 OFFCURVE",
"462 282 CURVE",
"435 339 LINE",
"367 284 OFFCURVE",
"327 256 OFFCURVE",
"252 225 CURVE",
"220 268 LINE",
"334 333 OFFCURVE",
"415 432 OFFCURVE",
"415 495 CURVE SMOOTH",
"415 545 OFFCURVE",
"325 619 OFFCURVE",
"269 619 CURVE SMOOTH",
"199 619 OFFCURVE",
"76 587 OFFCURVE",
"76 518 CURVE SMOOTH",
"76 482 OFFCURVE",
"102 448 OFFCURVE",
"142 415 CURVE",
"191 441 OFFCURVE",
"225 455 OFFCURVE",
"287 475 CURVE",
"243 408 OFFCURVE",
"182 363 OFFCURVE",
"82 316 CURVE",
"140 288 LINE",
"118 352 OFFCURVE",
"79 429 OFFCURVE",
"44 429 CURVE SMOOTH",
"2 429 OFFCURVE",
"-60 376 OFFCURVE",
"-60 346 CURVE SMOOTH",
"-60 305 OFFCURVE",
"-3 228 OFFCURVE",
"38 228 CURVE SMOOTH",
"63 228 OFFCURVE",
"92 246 OFFCURVE",
"109 268 CURVE",
"56 251 LINE",
"86 183 OFFCURVE",
"153 82 OFFCURVE",
"239 82 CURVE SMOOTH",
"329 82 OFFCURVE",
"450 200 OFFCURVE",
"514 274 CURVE",
"482 271 LINE"
);
}
);
};
layerId = "AF1B7CCB-9C31-456C-8386-1D362D80AEF6";
name = "Bold Italic";
paths = (
{
closed = 1;
nodes = (
"492 259 OFFCURVE",
"526 239 OFFCURVE",
"540 239 CURVE SMOOTH",
"560 239 OFFCURVE",
"588 261 OFFCURVE",
"610 285 CURVE",
"632 270 LINE",
"605 230 OFFCURVE",
"541 147 OFFCURVE",
"541 124 CURVE SMOOTH",
"541 85 OFFCURVE",
"660 0 OFFCURVE",
"696 0 CURVE SMOOTH",
"748 0 OFFCURVE",
"902 76 OFFCURVE",
"902 130 CURVE SMOOTH",
"902 183 OFFCURVE",
"867 222 OFFCURVE",
"802 241 CURVE",
"771 208 OFFCURVE",
"744 188 OFFCURVE",
"701 160 CURVE",
"746 285 OFFCURVE",
"825 450 OFFCURVE",
"825 493 CURVE SMOOTH",
"825 520 OFFCURVE",
"711 593 OFFCURVE",
"674 593 CURVE SMOOTH",
"653 593 OFFCURVE",
"632 463 OFFCURVE",
"562 385 CURVE",
"518 420 OFFCURVE",
"486 449 OFFCURVE",
"462 449 CURVE SMOOTH",
"437 449 OFFCURVE",
"389 380 OFFCURVE",
"389 358 CURVE SMOOTH",
"389 343 OFFCURVE",
"418 321 OFFCURVE",
"460 289 CURVE",
"435 339 LINE",
"367 284 OFFCURVE",
"327 255 OFFCURVE",
"252 224 CURVE",
"219 268 LINE",
"332 330 OFFCURVE",
"418 431 OFFCURVE",
"418 492 CURVE SMOOTH",
"418 545 OFFCURVE",
"331 619 OFFCURVE",
"275 619 CURVE SMOOTH",
"196 619 OFFCURVE",
"76 586 OFFCURVE",
"76 518 CURVE SMOOTH",
"76 480 OFFCURVE",
"100 449 OFFCURVE",
"137 419 CURVE",
"185 446 OFFCURVE",
"228 462 OFFCURVE",
"287 480 CURVE",
"241 405 OFFCURVE",
"180 355 OFFCURVE",
"86 314 CURVE",
"137 306 LINE",
"118 346 OFFCURVE",
"83 423 OFFCURVE",
"48 425 CURVE SMOOTH",
"6 427 OFFCURVE",
"-59 377 OFFCURVE",
"-60 347 CURVE SMOOTH",
"-63 306 OFFCURVE",
"-6 230 OFFCURVE",
"35 230 CURVE SMOOTH",
"60 230 OFFCURVE",
"89 248 OFFCURVE",
"106 270 CURVE",
"53 253 LINE",
"86 177 OFFCURVE",
"159 85 OFFCURVE",
"239 85 CURVE SMOOTH",
"329 85 OFFCURVE",
"450 200 OFFCURVE",
"514 274 CURVE",
"478 277 LINE"
);
}
);
width = 945;
}
);
leftMetricsKey = gjCA;
rightMetricsKey = gjmAA;
unicode = 0A85;
},
{
glyphname = gjI;
lastChange = "2015-08-07 16:01:45 +0000";
layers = (
{
background = {
paths = (
{
closed = 1;
nodes = (
"319 658 OFFCURVE",
"433 592 OFFCURVE",
"433 471 CURVE SMOOTH",
"433 307 OFFCURVE",
"348 190 OFFCURVE",
"169 144 CURVE",
"212 231 OFFCURVE",
"314 302 OFFCURVE",
"314 344 CURVE SMOOTH",
"314 369 OFFCURVE",
"256 378 OFFCURVE",
"191 419 CURVE",
"246 456 OFFCURVE",
"288 474 OFFCURVE",
"343 490 CURVE",
"361 546 OFFCURVE",
"336 610 OFFCURVE",
"270 620 CURVE",
"154 604 OFFCURVE",
"23 509 OFFCURVE",
"23 457 CURVE SMOOTH",
"23 413 OFFCURVE",
"81 368 OFFCURVE",
"137 336 CURVE",
"91 289 OFFCURVE",
"14 218 OFFCURVE",
"14 165 CURVE SMOOTH",
"14 107 OFFCURVE",
"133 0 OFFCURVE",
"211 0 CURVE SMOOTH",
"381 0 OFFCURVE",
"570 224 OFFCURVE",
"570 373 CURVE SMOOTH",
"570 496 OFFCURVE",
"506 581 OFFCURVE",
"467 633 CURVE",
"503 670 OFFCURVE",
"542 691 OFFCURVE",
"577 707 CURVE",
"579 779 OFFCURVE",
"537 850 OFFCURVE",
"462 853 CURVE",
"404 826 OFFCURVE",
"319 773 OFFCURVE",
"319 719 CURVE SMOOTH"
);
}
);
};
layerId = "AF1B7CCB-9C31-456C-8386-1D362D80AEF6";
name = "Bold Italic";
paths = (
{
closed = 1;
nodes = (
"319 658 OFFCURVE",
"433 592 OFFCURVE",
"433 471 CURVE SMOOTH",
"433 304 OFFCURVE",
"351 183 OFFCURVE",
"163 131 CURVE",
"197 219 OFFCURVE",
"314 302 OFFCURVE",
"314 344 CURVE SMOOTH",
"314 369 OFFCURVE",
"256 378 OFFCURVE",
"191 419 CURVE",
"246 456 OFFCURVE",
"288 474 OFFCURVE",
"343 490 CURVE",
"361 546 OFFCURVE",
"336 610 OFFCURVE",
"270 620 CURVE",
"154 604 OFFCURVE",
"23 509 OFFCURVE",
"23 457 CURVE SMOOTH",
"23 413 OFFCURVE",
"81 368 OFFCURVE",
"137 336 CURVE",
"91 289 OFFCURVE",
"14 218 OFFCURVE",
"14 165 CURVE SMOOTH",
"14 107 OFFCURVE",
"133 0 OFFCURVE",
"206 0 CURVE SMOOTH",
"381 0 OFFCURVE",
"570 224 OFFCURVE",
"570 373 CURVE SMOOTH",
"570 496 OFFCURVE",
"506 581 OFFCURVE",
"467 633 CURVE",
"503 670 OFFCURVE",
"542 691 OFFCURVE",
"577 707 CURVE",
"579 779 OFFCURVE",
"537 850 OFFCURVE",
"462 853 CURVE",
"404 826 OFFCURVE",
"319 773 OFFCURVE",
"319 719 CURVE SMOOTH"
);
}
);
width = 599;
},
{
associatedMasterId = "AF1B7CCB-9C31-456C-8386-1D362D80AEF6";
background = {
paths = (
{
closed = 1;
nodes = (
"377 627 OFFCURVE",
"483 534 OFFCURVE",
"483 474 CURVE SMOOTH",
"483 291 OFFCURVE",
"378 176 OFFCURVE",
"161 137 CURVE",
"227 219 OFFCURVE",
"360 293 OFFCURVE",
"360 336 CURVE SMOOTH",
"360 369 OFFCURVE",
"292 378 OFFCURVE",
"226 419 CURVE",
"282 456 OFFCURVE",
"325 474 OFFCURVE",
"381 490 CURVE",
"400 539 OFFCURVE",
"392 606 OFFCURVE",
"306 619 CURVE",
"197 608 OFFCURVE",
"54 514 OFFCURVE",
"54 463 CURVE SMOOTH",
"54 416 OFFCURVE",
"113 368 OFFCURVE",
"171 336 CURVE",
"99 293 OFFCURVE",
"-12 218 OFFCURVE",
"-12 165 CURVE SMOOTH",
"-12 107 OFFCURVE",
"96 -1 OFFCURVE",
"175 -1 CURVE SMOOTH",
"339 -1 OFFCURVE",
"594 118 OFFCURVE",
"594 377 CURVE SMOOTH",
"594 464 OFFCURVE",
"541 561 OFFCURVE",
"496 616 CURVE",
"535 650 OFFCURVE",
"578 666 OFFCURVE",
"613 681 CURVE",
"621 753 OFFCURVE",
"594 818 OFFCURVE",
"518 826 CURVE",
"438 796 OFFCURVE",
"377 740 OFFCURVE",
"377 708 CURVE SMOOTH"
);
}
);
};
layerId = "45BDB546-EFD5-43A5-AE3D-C6EB3BD4BEF2";
name = "Bold Italic Jul 15 15, 20:28";
paths = (
{
closed = 1;
nodes = (
"384 645 OFFCURVE",
"483 555 OFFCURVE",
"483 456 CURVE SMOOTH",
"483 316 OFFCURVE",
"386 187 OFFCURVE",
"181 137 CURVE",
"247 219 OFFCURVE",
"360 293 OFFCURVE",
"360 336 CURVE SMOOTH",
"360 369 OFFCURVE",
"292 378 OFFCURVE",
"226 419 CURVE",
"282 456 OFFCURVE",
"325 474 OFFCURVE",
"381 490 CURVE",
"400 539 OFFCURVE",
"392 606 OFFCURVE",
"306 619 CURVE",
"197 608 OFFCURVE",
"54 514 OFFCURVE",
"54 463 CURVE SMOOTH",
"54 416 OFFCURVE",
"113 368 OFFCURVE",
"171 336 CURVE",
"99 293 OFFCURVE",
"8 218 OFFCURVE",
"8 165 CURVE SMOOTH",
"8 107 OFFCURVE",
"116 -1 OFFCURVE",
"195 -1 CURVE SMOOTH",
"424 -1 OFFCURVE",
"617 204 OFFCURVE",
"617 377 CURVE SMOOTH",
"617 464 OFFCURVE",
"564 561 OFFCURVE",
"529 616 CURVE",
"568 650 OFFCURVE",
"611 666 OFFCURVE",
"646 681 CURVE",
"654 753 OFFCURVE",
"616 827 OFFCURVE",
"540 835 CURVE",
"479 812 OFFCURVE",
"384 761 OFFCURVE",
"384 712 CURVE SMOOTH"
);
}
);
width = 641;
},
{
associatedMasterId = "AF1B7CCB-9C31-456C-8386-1D362D80AEF6";
background = {
paths = (
{
closed = 1;
nodes = (
"332 645 OFFCURVE",
"431 555 OFFCURVE",
"431 456 CURVE SMOOTH",
"431 316 OFFCURVE",
"334 187 OFFCURVE",
"129 137 CURVE",
"195 219 OFFCURVE",
"308 293 OFFCURVE",
"308 336 CURVE SMOOTH",
"308 369 OFFCURVE",
"240 378 OFFCURVE",
"174 419 CURVE",
"230 456 OFFCURVE",
"273 474 OFFCURVE",
"329 490 CURVE",
"348 539 OFFCURVE",
"340 606 OFFCURVE",
"254 619 CURVE",
"145 608 OFFCURVE",
"2 514 OFFCURVE",
"2 463 CURVE SMOOTH",
"2 416 OFFCURVE",
"61 368 OFFCURVE",
"119 336 CURVE",
"47 293 OFFCURVE",
"-44 218 OFFCURVE",
"-44 165 CURVE SMOOTH",
"-44 107 OFFCURVE",
"64 -1 OFFCURVE",
"143 -1 CURVE SMOOTH",
"372 -1 OFFCURVE",
"565 204 OFFCURVE",
"565 377 CURVE SMOOTH",
"565 464 OFFCURVE",
"512 561 OFFCURVE",
"477 616 CURVE",
"516 650 OFFCURVE",
"559 666 OFFCURVE",
"594 681 CURVE",
"602 753 OFFCURVE",
"564 827 OFFCURVE",
"488 835 CURVE",
"427 812 OFFCURVE",
"332 761 OFFCURVE",
"332 712 CURVE SMOOTH"
);
}
);
};
layerId = "83C72328-AB21-4910-9C16-20ADD4EDC109";
name = "Bold Italic Jul 27 15, 21:47";
paths = (
{
closed = 1;
nodes = (
"309 652 OFFCURVE",
"421 583 OFFCURVE",
"421 471 CURVE SMOOTH",
"421 331 OFFCURVE",
"350 207 OFFCURVE",
"154 144 CURVE",
"209 233 OFFCURVE",
"299 303 OFFCURVE",
"299 336 CURVE SMOOTH",
"299 379 OFFCURVE",
"240 378 OFFCURVE",
"174 419 CURVE",
"230 456 OFFCURVE",
"273 474 OFFCURVE",
"329 490 CURVE",
"348 539 OFFCURVE",
"323 605 OFFCURVE",
"254 619 CURVE",
"145 608 OFFCURVE",
"2 514 OFFCURVE",
"2 463 CURVE SMOOTH",
"2 416 OFFCURVE",
"61 368 OFFCURVE",
"119 336 CURVE",
"72 289 OFFCURVE",
"-4 218 OFFCURVE",
"-4 165 CURVE SMOOTH",
"-4 107 OFFCURVE",
"129 -3 OFFCURVE",
"208 -3 CURVE SMOOTH",
"397 -3 OFFCURVE",
"561 234 OFFCURVE",
"561 377 CURVE SMOOTH",
"561 496 OFFCURVE",
"495 581 OFFCURVE",
"456 633 CURVE",
"492 670 OFFCURVE",
"534 689 OFFCURVE",
"568 707 CURVE",
"570 779 OFFCURVE",
"527 850 OFFCURVE",
"451 853 CURVE",
"391 826 OFFCURVE",
"300 768 OFFCURVE",
"304 719 CURVE SMOOTH"
);
}
);
width = 575;
}
);
unicode = 0A87;
},
{
glyphname = gjII;
lastChange = "2015-08-07 16:01:45 +0000";
layers = (
{
background = {
paths = (
{
closed = 1;
nodes = (
"315 646 OFFCURVE",
"444 557 OFFCURVE",
"444 441 CURVE SMOOTH",
"444 307 OFFCURVE",
"348 190 OFFCURVE",
"169 144 CURVE",
"212 231 OFFCURVE",
"314 302 OFFCURVE",
"314 344 CURVE SMOOTH",
"314 369 OFFCURVE",
"256 378 OFFCURVE",
"191 419 CURVE",
"246 456 OFFCURVE",
"288 474 OFFCURVE",
"343 490 CURVE",
"361 546 OFFCURVE",
"336 610 OFFCURVE",
"270 620 CURVE",
"154 604 OFFCURVE",
"23 509 OFFCURVE",
"23 457 CURVE SMOOTH",
"23 413 OFFCURVE",
"81 368 OFFCURVE",
"137 336 CURVE",
"91 289 OFFCURVE",
"14 218 OFFCURVE",
"14 165 CURVE SMOOTH",
"14 107 OFFCURVE",
"144 0 OFFCURVE",
"222 0 CURVE SMOOTH",
"392 0 OFFCURVE",
"581 224 OFFCURVE",
"581 373 CURVE SMOOTH",
"581 514 OFFCURVE",
"453 612 OFFCURVE",
"453 690 CURVE SMOOTH",
"453 724 OFFCURVE",
"481 758 OFFCURVE",
"516 762 CURVE",
"527 734 OFFCURVE",
"517 704 OFFCURVE",
"500 676 CURVE",
"515 638 OFFCURVE",
"557 604 OFFCURVE",
"633 603 CURVE",
"657 636 OFFCURVE",
"666 673 OFFCURVE",
"666 711 CURVE SMOOTH",
"666 779 OFFCURVE",
"512 878 OFFCURVE",
"434 878 CURVE SMOOTH",
"357 878 OFFCURVE",
"315 814 OFFCURVE",
"315 754 CURVE SMOOTH"
);
}
);
};
layerId = "AF1B7CCB-9C31-456C-8386-1D362D80AEF6";
name = "Bold Italic";
paths = (
{
closed = 1;
nodes = (
"315 646 OFFCURVE",
"444 557 OFFCURVE",
"444 441 CURVE SMOOTH",
"444 304 OFFCURVE",
"343 180 OFFCURVE",
"163 131 CURVE",
"204 231 OFFCURVE",
"314 301 OFFCURVE",
"314 344 CURVE SMOOTH",
"314 369 OFFCURVE",
"256 378 OFFCURVE",
"191 419 CURVE",
"246 456 OFFCURVE",
"288 474 OFFCURVE",
"343 490 CURVE",
"361 546 OFFCURVE",
"336 610 OFFCURVE",
"270 620 CURVE",
"154 604 OFFCURVE",
"23 509 OFFCURVE",
"23 457 CURVE SMOOTH",
"23 413 OFFCURVE",
"81 368 OFFCURVE",
"137 336 CURVE",
"91 289 OFFCURVE",
"14 218 OFFCURVE",
"14 165 CURVE SMOOTH",
"14 110 OFFCURVE",
"134 0 OFFCURVE",
"212 0 CURVE SMOOTH",
"379 0 OFFCURVE",
"581 228 OFFCURVE",
"581 373 CURVE SMOOTH",
"581 514 OFFCURVE",
"453 612 OFFCURVE",
"453 690 CURVE SMOOTH",
"453 724 OFFCURVE",
"481 758 OFFCURVE",
"516 762 CURVE",
"527 734 OFFCURVE",
"517 704 OFFCURVE",
"500 676 CURVE",
"515 638 OFFCURVE",
"557 604 OFFCURVE",
"633 603 CURVE",
"657 636 OFFCURVE",
"666 673 OFFCURVE",
"666 711 CURVE SMOOTH",
"666 779 OFFCURVE",
"512 878 OFFCURVE",
"434 878 CURVE SMOOTH",
"357 878 OFFCURVE",
"315 814 OFFCURVE",
"315 754 CURVE SMOOTH"
);
}
);
width = 619;
},
{
associatedMasterId = "AF1B7CCB-9C31-456C-8386-1D362D80AEF6";
background = {
paths = (
{
closed = 1;
nodes = (
"384 645 OFFCURVE",
"483 555 OFFCURVE",
"483 456 CURVE SMOOTH",
"483 316 OFFCURVE",
"386 187 OFFCURVE",
"181 137 CURVE",
"247 219 OFFCURVE",
"360 293 OFFCURVE",
"360 336 CURVE SMOOTH",
"360 369 OFFCURVE",
"292 378 OFFCURVE",
"226 419 CURVE",
"282 456 OFFCURVE",
"325 474 OFFCURVE",
"381 490 CURVE",
"400 539 OFFCURVE",
"392 606 OFFCURVE",
"306 619 CURVE",
"197 608 OFFCURVE",
"54 514 OFFCURVE",
"54 463 CURVE SMOOTH",
"54 416 OFFCURVE",
"113 368 OFFCURVE",
"171 336 CURVE",
"99 293 OFFCURVE",
"8 218 OFFCURVE",
"8 165 CURVE SMOOTH",
"8 107 OFFCURVE",
"116 -1 OFFCURVE",
"195 -1 CURVE SMOOTH",
"424 -1 OFFCURVE",
"617 204 OFFCURVE",
"617 377 CURVE SMOOTH",
"617 464 OFFCURVE",
"564 561 OFFCURVE",
"529 616 CURVE",
"568 650 OFFCURVE",
"611 666 OFFCURVE",
"646 681 CURVE",
"654 753 OFFCURVE",
"616 827 OFFCURVE",
"540 835 CURVE",
"479 812 OFFCURVE",
"384 761 OFFCURVE",
"384 712 CURVE SMOOTH"
);
}
);
};
layerId = "130CFE0B-97C4-49FE-994E-2D446186113E";
name = "Bold Italic Jul 15 15, 20:31";
paths = (
{
closed = 1;
nodes = (
"611 546 OFFCURVE",
"671 508 OFFCURVE",
"717 511 CURVE",
"748 537 OFFCURVE",
"762 579 OFFCURVE",
"762 612 CURVE SMOOTH",
"762 700 OFFCURVE",
"599 822 OFFCURVE",
"491 822 CURVE SMOOTH",
"423 822 OFFCURVE",
"384 783 OFFCURVE",
"384 722 CURVE SMOOTH",
"384 634 OFFCURVE",
"483 560 OFFCURVE",
"483 456 CURVE SMOOTH",
"483 316 OFFCURVE",
"386 187 OFFCURVE",
"181 137 CURVE",
"247 219 OFFCURVE",
"360 293 OFFCURVE",
"360 336 CURVE SMOOTH",
"360 369 OFFCURVE",
"292 378 OFFCURVE",
"226 419 CURVE",
"282 456 OFFCURVE",
"325 474 OFFCURVE",
"381 490 CURVE",
"400 539 OFFCURVE",
"392 606 OFFCURVE",
"306 619 CURVE",
"197 608 OFFCURVE",
"54 514 OFFCURVE",
"54 463 CURVE SMOOTH",
"54 416 OFFCURVE",
"113 368 OFFCURVE",
"171 336 CURVE",
"99 293 OFFCURVE",
"8 218 OFFCURVE",
"8 165 CURVE SMOOTH",
"8 107 OFFCURVE",
"116 -1 OFFCURVE",
"195 -1 CURVE SMOOTH",
"405 -1 OFFCURVE",
"617 191 OFFCURVE",
"617 377 CURVE SMOOTH",
"617 503 OFFCURVE",
"527 583 OFFCURVE",
"527 649 CURVE SMOOTH",
"527 677 OFFCURVE",
"541 696 OFFCURVE",
"567 696 CURVE SMOOTH",
"592 696 OFFCURVE",
"620 676 OFFCURVE",
"620 648 CURVE SMOOTH",
"620 637 OFFCURVE",
"607 619 OFFCURVE",
"591 598 CURVE"
);
}
);
width = 730;
},
{
associatedMasterId = "AF1B7CCB-9C31-456C-8386-1D362D80AEF6";
background = {
paths = (
{
closed = 1;
nodes = (
"525 594 OFFCURVE",
"557 564 OFFCURVE",
"637 563 CURVE",
"662 596 OFFCURVE",
"671 633 OFFCURVE",
"671 671 CURVE SMOOTH",
"671 739 OFFCURVE",
"536 838 OFFCURVE",
"447 838 CURVE SMOOTH",
"372 838 OFFCURVE",
"331 782 OFFCURVE",
"331 719 CURVE SMOOTH",
"331 601 OFFCURVE",
"422 543 OFFCURVE",
"422 441 CURVE SMOOTH",
"422 312 OFFCURVE",
"338 203 OFFCURVE",
"154 144 CURVE",
"209 233 OFFCURVE",
"299 303 OFFCURVE",
"299 336 CURVE SMOOTH",
"299 379 OFFCURVE",
"240 378 OFFCURVE",
"174 419 CURVE",
"230 456 OFFCURVE",
"273 474 OFFCURVE",
"329 490 CURVE",
"348 539 OFFCURVE",
"323 605 OFFCURVE",
"254 619 CURVE",
"145 608 OFFCURVE",
"2 514 OFFCURVE",
"2 463 CURVE SMOOTH",
"2 416 OFFCURVE",
"61 368 OFFCURVE",
"119 336 CURVE",
"72 289 OFFCURVE",
"-4 218 OFFCURVE",
"-4 165 CURVE SMOOTH",
"-4 107 OFFCURVE",
"129 -3 OFFCURVE",
"208 -3 CURVE SMOOTH",
"391 -3 OFFCURVE",
"569 223 OFFCURVE",
"569 369 CURVE SMOOTH",
"569 497 OFFCURVE",
"467 583 OFFCURVE",
"467 650 CURVE SMOOTH",
"467 684 OFFCURVE",
"497 717 OFFCURVE",
"527 721 CURVE",
"537 700 OFFCURVE",
"527 655 OFFCURVE",
"509 632 CURVE"
);
}
);
};
layerId = "C9CA8DA4-9653-4503-9C48-3790ACBDFEC2";
name = "Bold Italic Jul 27 15, 21:58";
paths = (
{
closed = 1;
nodes = (
"525 634 OFFCURVE",
"557 604 OFFCURVE",
"637 603 CURVE",
"662 636 OFFCURVE",
"671 673 OFFCURVE",
"671 711 CURVE SMOOTH",
"671 779 OFFCURVE",
"536 878 OFFCURVE",
"447 878 CURVE SMOOTH",
"372 878 OFFCURVE",
"331 822 OFFCURVE",
"331 740 CURVE SMOOTH",
"331 601 OFFCURVE",
"422 554 OFFCURVE",
"422 441 CURVE SMOOTH",
"422 312 OFFCURVE",
"338 203 OFFCURVE",
"154 144 CURVE",
"209 233 OFFCURVE",
"299 303 OFFCURVE",
"299 336 CURVE SMOOTH",
"299 379 OFFCURVE",
"240 378 OFFCURVE",
"174 419 CURVE",
"230 456 OFFCURVE",
"273 474 OFFCURVE",
"329 490 CURVE",
"348 539 OFFCURVE",
"323 605 OFFCURVE",
"254 619 CURVE",
"145 608 OFFCURVE",
"2 514 OFFCURVE",
"2 463 CURVE SMOOTH",
"2 416 OFFCURVE",
"61 368 OFFCURVE",
"119 336 CURVE",
"72 289 OFFCURVE",
"-4 218 OFFCURVE",
"-4 165 CURVE SMOOTH",
"-4 107 OFFCURVE",
"129 -3 OFFCURVE",
"208 -3 CURVE SMOOTH",
"391 -3 OFFCURVE",
"569 223 OFFCURVE",
"569 369 CURVE SMOOTH",
"569 497 OFFCURVE",
"467 583 OFFCURVE",
"467 690 CURVE SMOOTH",
"467 724 OFFCURVE",
"497 757 OFFCURVE",
"527 761 CURVE",
"537 740 OFFCURVE",
"527 695 OFFCURVE",
"509 672 CURVE"
);
}
);
width = 599;
}
);
leftMetricsKey = gjI;
unicode = 0A88;
},
{
glyphname = gjU;
lastChange = "2015-08-07 16:01:45 +0000";
layers = (
{
background = {
paths = (
{
closed = 1;
nodes = (
"431 -1 OFFCURVE",
"563 99 OFFCURVE",
"564 157 CURVE SMOOTH",
"564 210 OFFCURVE",
"504 265 OFFCURVE",
"435 309 CURVE",
"539 350 OFFCURVE",
"637 416 OFFCURVE",
"640 480 CURVE SMOOTH",
"644 537 OFFCURVE",
"555 619 OFFCURVE",
"488 619 CURVE SMOOTH",
"386 619 OFFCURVE",
"312 589 OFFCURVE",
"311 537 CURVE SMOOTH",
"311 506 OFFCURVE",
"333 472 OFFCURVE",
"366 447 CURVE",
"407 469 OFFCURVE",
"460 486 OFFCURVE",
"506 494 CURVE",
"468 406 OFFCURVE",
"272 368 OFFCURVE",
"271 312 CURVE SMOOTH",
"271 280 OFFCURVE",
"320 234 OFFCURVE",
"368 191 CURVE",
"304 163 OFFCURVE",
"236 166 OFFCURVE",
"165 194 CURVE",
"167 469 OFFCURVE",
"252 604 OFFCURVE",
"410 781 CURVE",
"457 729 OFFCURVE",
"556 630 OFFCURVE",
"607 630 CURVE SMOOTH",
"646 630 OFFCURVE",
"683 636 OFFCURVE",
"738 665 CURVE",
"761 758 OFFCURVE",
"731 829 OFFCURVE",
"660 850 CURVE",
"616 810 OFFCURVE",
"577 785 OFFCURVE",
"535 761 CURVE",
"471 802 OFFCURVE",
"447 898 OFFCURVE",
"404 898 CURVE SMOOTH",
"213 898 OFFCURVE",
"6 519 OFFCURVE",
"4 282 CURVE SMOOTH",
"3 157 OFFCURVE",
"159 -1 OFFCURVE",
"303 -1 CURVE SMOOTH"
);
}
);
};
layerId = "AF1B7CCB-9C31-456C-8386-1D362D80AEF6";
name = "Bold Italic";
paths = (
{
closed = 1;
nodes = (
"431 -1 OFFCURVE",
"563 99 OFFCURVE",
"564 157 CURVE SMOOTH",
"564 210 OFFCURVE",
"504 265 OFFCURVE",
"435 309 CURVE",
"539 350 OFFCURVE",
"637 416 OFFCURVE",
"640 480 CURVE SMOOTH",
"644 537 OFFCURVE",
"555 619 OFFCURVE",
"488 619 CURVE SMOOTH",
"386 619 OFFCURVE",
"312 589 OFFCURVE",
"311 537 CURVE SMOOTH",
"311 506 OFFCURVE",
"333 472 OFFCURVE",
"366 447 CURVE",
"407 469 OFFCURVE",
"460 486 OFFCURVE",
"506 494 CURVE",
"468 406 OFFCURVE",
"272 368 OFFCURVE",
"271 312 CURVE SMOOTH",
"271 280 OFFCURVE",
"323 231 OFFCURVE",
"384 173 CURVE",
"305 155 OFFCURVE",
"237 157 OFFCURVE",
"159 193 CURVE",
"170 466 OFFCURVE",
"252 604 OFFCURVE",
"410 781 CURVE",
"457 729 OFFCURVE",
"556 630 OFFCURVE",
"607 630 CURVE SMOOTH",
"646 630 OFFCURVE",
"683 636 OFFCURVE",
"738 665 CURVE",
"761 758 OFFCURVE",
"731 829 OFFCURVE",
"660 850 CURVE",
"616 810 OFFCURVE",
"577 785 OFFCURVE",
"535 761 CURVE",
"471 802 OFFCURVE",
"447 898 OFFCURVE",
"404 898 CURVE SMOOTH",
"213 898 OFFCURVE",
"6 519 OFFCURVE",
"4 282 CURVE SMOOTH",
"3 152 OFFCURVE",
"168 -1 OFFCURVE",
"293 -1 CURVE SMOOTH"
);
}
);
width = 676;
},
{
associatedMasterId = "AF1B7CCB-9C31-456C-8386-1D362D80AEF6";
background = {
paths = (
{
closed = 1;
nodes = (
"434 -1 OFFCURVE",
"569 99 OFFCURVE",
"569 157 CURVE SMOOTH",
"569 210 OFFCURVE",
"506 265 OFFCURVE",
"435 309 CURVE",
"542 350 OFFCURVE",
"642 416 OFFCURVE",
"645 480 CURVE SMOOTH",
"649 537 OFFCURVE",
"556 619 OFFCURVE",
"487 619 CURVE SMOOTH",
"360 619 OFFCURVE",
"263 592 OFFCURVE",
"258 527 CURVE SMOOTH",
"256 494 OFFCURVE",
"273 464 OFFCURVE",
"315 427 CURVE",
"383 463 OFFCURVE",
"432 481 OFFCURVE",
"506 494 CURVE",
"468 406 OFFCURVE",
"266 368 OFFCURVE",
"266 312 CURVE SMOOTH",
"266 280 OFFCURVE",
"317 234 OFFCURVE",
"367 191 CURVE",
"302 152 OFFCURVE",
"232 157 OFFCURVE",
"158 176 CURVE",
"146 455 OFFCURVE",
"183 619 OFFCURVE",
"373 784 CURVE",
"439 718 OFFCURVE",
"520 660 OFFCURVE",
"579 660 CURVE SMOOTH",
"620 660 OFFCURVE",
"658 666 OFFCURVE",
"714 695 CURVE",
"737 788 OFFCURVE",
"706 859 OFFCURVE",
"632 880 CURVE",
"587 840 OFFCURVE",
"547 815 OFFCURVE",
"504 791 CURVE",
"408 840 OFFCURVE",
"382 928 OFFCURVE",
"338 928 CURVE SMOOTH",
"171 928 OFFCURVE",
"-18 581 OFFCURVE",
"-18 309 CURVE SMOOTH",
"-22 202 OFFCURVE",
"111 -1 OFFCURVE",
"301 -1 CURVE SMOOTH"
);
},
{
closed = 1;
nodes = (
"243 894 OFFCURVE",
"-7 587 OFFCURVE",
"-7 261 CURVE SMOOTH",
"-7 177 OFFCURVE",
"130 -1 OFFCURVE",
"301 -1 CURVE SMOOTH",
"434 -1 OFFCURVE",
"569 99 OFFCURVE",
"569 157 CURVE SMOOTH",
"569 210 OFFCURVE",
"506 265 OFFCURVE",
"435 309 CURVE",
"542 350 OFFCURVE",
"642 416 OFFCURVE",
"645 480 CURVE SMOOTH",
"649 537 OFFCURVE",
"556 619 OFFCURVE",
"487 619 CURVE SMOOTH",
"378 619 OFFCURVE",
"305 585 OFFCURVE",
"305 540 CURVE SMOOTH",
"305 507 OFFCURVE",
"320 484 OFFCURVE",
"362 447 CURVE",
"407 469 OFFCURVE",
"453 485 OFFCURVE",
"506 494 CURVE",
"468 406 OFFCURVE",
"266 368 OFFCURVE",
"266 312 CURVE SMOOTH",
"266 280 OFFCURVE",
"317 234 OFFCURVE",
"367 191 CURVE",
"302 163 OFFCURVE",
"227 168 OFFCURVE",
"157 194 CURVE",
"158 498 OFFCURVE",
"263 700 OFFCURVE",
"655 763 CURVE",
"690 719 OFFCURVE",
"713 662 OFFCURVE",
"713 599 CURVE SMOOTH",
"713 442 OFFCURVE",
"606 216 OFFCURVE",
"606 123 CURVE SMOOTH",
"606 86 OFFCURVE",
"719 0 OFFCURVE",
"769 0 CURVE SMOOTH",
"830 0 OFFCURVE",
"1039 122 OFFCURVE",
"1039 193 CURVE SMOOTH",
"1039 237 OFFCURVE",
"987 293 OFFCURVE",
"918 312 CURVE",
"875 257 OFFCURVE",
"837 208 OFFCURVE",
"780 175 CURVE",
"839 352 OFFCURVE",
"877 475 OFFCURVE",
"877 598 CURVE SMOOTH",
"877 725 OFFCURVE",
"688 894 OFFCURVE",
"568 894 CURVE SMOOTH"
);
}
);
};
layerId = "6CEA9752-E875-44B2-A377-0C47DCA04FE6";
name = "Bold Italic Jul 27 15, 22:02";
paths = (
{
closed = 1;
nodes = (
"434 -1 OFFCURVE",
"569 99 OFFCURVE",
"569 157 CURVE SMOOTH",
"569 210 OFFCURVE",
"506 265 OFFCURVE",
"435 309 CURVE",
"542 350 OFFCURVE",
"642 416 OFFCURVE",
"645 480 CURVE SMOOTH",
"649 537 OFFCURVE",
"556 619 OFFCURVE",
"487 619 CURVE SMOOTH",
"382 619 OFFCURVE",
"305 589 OFFCURVE",
"305 537 CURVE SMOOTH",
"305 506 OFFCURVE",
"328 472 OFFCURVE",
"362 447 CURVE",
"405 469 OFFCURVE",
"459 486 OFFCURVE",
"506 494 CURVE",
"468 406 OFFCURVE",
"266 368 OFFCURVE",
"266 312 CURVE SMOOTH",
"266 280 OFFCURVE",
"317 234 OFFCURVE",
"367 191 CURVE",
"301 163 OFFCURVE",
"231 166 OFFCURVE",
"157 194 CURVE",
"157 469 OFFCURVE",
"243 604 OFFCURVE",
"405 781 CURVE",
"454 729 OFFCURVE",
"557 630 OFFCURVE",
"609 630 CURVE SMOOTH",
"650 630 OFFCURVE",
"688 636 OFFCURVE",
"744 665 CURVE",
"767 758 OFFCURVE",
"736 829 OFFCURVE",
"662 850 CURVE",
"617 810 OFFCURVE",
"577 785 OFFCURVE",
"534 761 CURVE",
"468 802 OFFCURVE",
"442 898 OFFCURVE",
"398 898 CURVE SMOOTH",
"201 898 OFFCURVE",
"-10 519 OFFCURVE",
"-10 282 CURVE SMOOTH",
"-10 157 OFFCURVE",
"153 -1 OFFCURVE",
"301 -1 CURVE SMOOTH"
);
}
);
width = 657;
}
);
unicode = 0A89;
},
{
glyphname = gjUU;
lastChange = "2015-08-07 16:01:45 +0000";
layers = (
{
background = {
paths = (
{
closed = 1;
nodes = (
"217 894 OFFCURVE",
"8 571 OFFCURVE",
"6 282 CURVE SMOOTH",
"5 157 OFFCURVE",
"161 -1 OFFCURVE",
"305 -1 CURVE SMOOTH",
"433 -1 OFFCURVE",
"565 99 OFFCURVE",
"566 157 CURVE SMOOTH",
"566 210 OFFCURVE",
"506 265 OFFCURVE",
"437 309 CURVE",
"541 350 OFFCURVE",
"639 416 OFFCURVE",
"642 480 CURVE SMOOTH",
"646 537 OFFCURVE",
"557 619 OFFCURVE",
"490 619 CURVE SMOOTH",
"388 619 OFFCURVE",
"314 589 OFFCURVE",
"313 537 CURVE SMOOTH",
"313 506 OFFCURVE",
"335 472 OFFCURVE",
"368 447 CURVE",
"409 469 OFFCURVE",
"462 486 OFFCURVE",
"508 494 CURVE",
"470 406 OFFCURVE",
"274 368 OFFCURVE",
"273 312 CURVE SMOOTH",
"273 280 OFFCURVE",
"322 234 OFFCURVE",
"370 191 CURVE",
"306 163 OFFCURVE",
"238 166 OFFCURVE",
"167 194 CURVE",
"172 479 OFFCURVE",
"256 729 OFFCURVE",
"620 763 CURVE",
"687 721 OFFCURVE",
"715 667 OFFCURVE",
"715 599 CURVE SMOOTH",
"715 539 OFFCURVE",
"696 469 OFFCURVE",
"674 389 CURVE SMOOTH",
"641 267 OFFCURVE",
"605 140 OFFCURVE",
"605 125 CURVE SMOOTH",
"605 83 OFFCURVE",
"726 0 OFFCURVE",
"760 0 CURVE SMOOTH",
"812 0 OFFCURVE",
"966 76 OFFCURVE",
"966 130 CURVE SMOOTH",
"966 183 OFFCURVE",
"931 222 OFFCURVE",
"866 241 CURVE",
"835 208 OFFCURVE",
"808 188 OFFCURVE",
"765 160 CURVE",
"810 285 OFFCURVE",
"879 450 OFFCURVE",
"879 598 CURVE SMOOTH",
"879 719 OFFCURVE",
"729 894 OFFCURVE",
"558 894 CURVE SMOOTH"
);
}
);
};
layerId = "AF1B7CCB-9C31-456C-8386-1D362D80AEF6";
name = "Bold Italic";
paths = (
{
closed = 1;
nodes = (
"433 -1 OFFCURVE",
"565 99 OFFCURVE",
"566 157 CURVE SMOOTH",
"566 210 OFFCURVE",
"506 265 OFFCURVE",
"437 309 CURVE",
"541 350 OFFCURVE",
"639 416 OFFCURVE",
"642 480 CURVE SMOOTH",
"646 537 OFFCURVE",
"557 619 OFFCURVE",
"490 619 CURVE SMOOTH",
"388 619 OFFCURVE",
"314 589 OFFCURVE",
"313 537 CURVE SMOOTH",
"313 506 OFFCURVE",
"335 472 OFFCURVE",
"368 447 CURVE",
"409 469 OFFCURVE",
"462 486 OFFCURVE",
"508 494 CURVE",
"470 406 OFFCURVE",
"274 368 OFFCURVE",
"273 312 CURVE SMOOTH",
"273 280 OFFCURVE",
"325 231 OFFCURVE",
"386 173 CURVE",
"307 155 OFFCURVE",
"239 157 OFFCURVE",
"161 193 CURVE",
"175 492 OFFCURVE",
"258 737 OFFCURVE",
"620 763 CURVE",
"687 721 OFFCURVE",
"715 667 OFFCURVE",
"715 599 CURVE SMOOTH",
"715 539 OFFCURVE",
"696 469 OFFCURVE",
"674 389 CURVE SMOOTH",
"641 267 OFFCURVE",
"605 140 OFFCURVE",
"605 125 CURVE SMOOTH",
"605 83 OFFCURVE",
"726 0 OFFCURVE",
"760 0 CURVE SMOOTH",
"812 0 OFFCURVE",
"966 76 OFFCURVE",
"966 130 CURVE SMOOTH",
"966 183 OFFCURVE",
"931 222 OFFCURVE",
"866 241 CURVE",
"835 208 OFFCURVE",
"808 188 OFFCURVE",
"765 160 CURVE",
"810 285 OFFCURVE",
"879 450 OFFCURVE",
"879 598 CURVE SMOOTH",
"879 719 OFFCURVE",
"729 894 OFFCURVE",
"558 894 CURVE SMOOTH",
"217 894 OFFCURVE",
"8 571 OFFCURVE",
"6 282 CURVE SMOOTH",
"5 152 OFFCURVE",
"170 -1 OFFCURVE",
"295 -1 CURVE SMOOTH"
);
}
);
width = 1009;
},
{
associatedMasterId = "AF1B7CCB-9C31-456C-8386-1D362D80AEF6";
background = {
paths = (
{
closed = 1;
nodes = (
"243 894 OFFCURVE",
"-7 587 OFFCURVE",
"-7 261 CURVE SMOOTH",
"-7 177 OFFCURVE",
"130 -1 OFFCURVE",
"301 -1 CURVE SMOOTH",
"434 -1 OFFCURVE",
"569 99 OFFCURVE",
"569 157 CURVE SMOOTH",
"569 210 OFFCURVE",
"506 265 OFFCURVE",
"435 309 CURVE",
"542 350 OFFCURVE",
"642 416 OFFCURVE",
"645 480 CURVE SMOOTH",
"649 537 OFFCURVE",
"556 619 OFFCURVE",
"487 619 CURVE SMOOTH",
"378 619 OFFCURVE",
"305 585 OFFCURVE",
"305 540 CURVE SMOOTH",
"305 507 OFFCURVE",
"320 484 OFFCURVE",
"362 447 CURVE",
"407 469 OFFCURVE",
"453 485 OFFCURVE",
"506 494 CURVE",
"468 406 OFFCURVE",
"266 368 OFFCURVE",
"266 312 CURVE SMOOTH",
"266 280 OFFCURVE",
"317 234 OFFCURVE",
"367 191 CURVE",
"302 163 OFFCURVE",
"227 168 OFFCURVE",
"157 194 CURVE",
"158 498 OFFCURVE",
"263 700 OFFCURVE",
"655 763 CURVE",
"690 719 OFFCURVE",
"713 662 OFFCURVE",
"713 599 CURVE SMOOTH",
"713 442 OFFCURVE",
"606 216 OFFCURVE",
"606 123 CURVE SMOOTH",
"606 86 OFFCURVE",
"719 0 OFFCURVE",
"769 0 CURVE SMOOTH",
"830 0 OFFCURVE",
"1039 122 OFFCURVE",
"1039 193 CURVE SMOOTH",
"1039 237 OFFCURVE",
"987 293 OFFCURVE",
"918 312 CURVE",
"875 257 OFFCURVE",
"837 208 OFFCURVE",
"780 175 CURVE",
"839 352 OFFCURVE",
"877 475 OFFCURVE",
"877 598 CURVE SMOOTH",
"877 725 OFFCURVE",
"688 894 OFFCURVE",
"568 894 CURVE SMOOTH"
);
}
);
};
layerId = "C9FB806D-E17F-49ED-A50E-6D30E5278BC4";
name = "Bold Italic Jul 27 15, 22:04";
paths = (
{
closed = 1;
nodes = (
"224 894 OFFCURVE",
"-7 571 OFFCURVE",
"-7 261 CURVE SMOOTH",
"-7 177 OFFCURVE",
"130 -1 OFFCURVE",
"301 -1 CURVE SMOOTH",
"434 -1 OFFCURVE",
"569 99 OFFCURVE",
"569 157 CURVE SMOOTH",
"569 210 OFFCURVE",
"506 265 OFFCURVE",
"435 309 CURVE",
"542 350 OFFCURVE",
"642 416 OFFCURVE",
"645 480 CURVE SMOOTH",
"649 537 OFFCURVE",
"556 619 OFFCURVE",
"487 619 CURVE SMOOTH",
"378 619 OFFCURVE",
"305 585 OFFCURVE",
"305 540 CURVE SMOOTH",
"305 507 OFFCURVE",
"320 484 OFFCURVE",
"362 447 CURVE",
"407 469 OFFCURVE",
"453 485 OFFCURVE",
"506 494 CURVE",
"468 406 OFFCURVE",
"266 368 OFFCURVE",
"266 312 CURVE SMOOTH",
"266 280 OFFCURVE",
"317 234 OFFCURVE",
"367 191 CURVE",
"302 163 OFFCURVE",
"227 168 OFFCURVE",
"157 194 CURVE",
"154 520 OFFCURVE",
"291 734 OFFCURVE",
"618 763 CURVE",
"690 719 OFFCURVE",
"713 662 OFFCURVE",
"713 599 CURVE SMOOTH",
"713 442 OFFCURVE",
"606 216 OFFCURVE",
"606 123 CURVE SMOOTH",
"606 86 OFFCURVE",
"719 0 OFFCURVE",
"769 0 CURVE SMOOTH",
"830 0 OFFCURVE",
"1039 122 OFFCURVE",
"1039 193 CURVE SMOOTH",
"1039 237 OFFCURVE",
"987 293 OFFCURVE",
"918 312 CURVE",
"875 257 OFFCURVE",
"837 208 OFFCURVE",
"780 175 CURVE",
"839 352 OFFCURVE",
"877 475 OFFCURVE",
"877 598 CURVE SMOOTH",
"877 719 OFFCURVE",
"727 894 OFFCURVE",
"556 894 CURVE SMOOTH"
);
}
);
width = 1071;
}
);
leftMetricsKey = gjU;
rightMetricsKey = gjmAA;
unicode = 0A8A;
},
{
glyphname = gjKA;
lastChange = "2015-08-07 16:01:45 +0000";
layers = (
{
background = {
paths = (
{
closed = 1;
nodes = (
"353 0 OFFCURVE",
"515 101 OFFCURVE",
"515 195 CURVE SMOOTH",
"515 233 OFFCURVE",
"449 277 OFFCURVE",
"372 291 CURVE",
"291 275 LINE",
"319 251 OFFCURVE",
"331 234 OFFCURVE",
"331 216 CURVE SMOOTH",
"331 169 OFFCURVE",
"271 114 OFFCURVE",
"194 93 CURVE",
"197 120 OFFCURVE",
"200 132 OFFCURVE",
"206 150 CURVE",
"164 187 OFFCURVE",
"95 196 OFFCURVE",
"22 175 CURVE",
"11 156 OFFCURVE",
"6 138 OFFCURVE",
"6 117 CURVE SMOOTH",
"6 72 OFFCURVE",
"110 0 OFFCURVE",
"215 0 CURVE SMOOTH"
);
},
{
closed = 1;
nodes = (
"269 261 OFFCURVE",
"362 282 OFFCURVE",
"540 315 CURVE",
"567 363 OFFCURVE",
"549 414 OFFCURVE",
"503 439 CURVE",
"367 393 OFFCURVE",
"206 355 OFFCURVE",
"39 340 CURVE",
"3 299 OFFCURVE",
"22 233 OFFCURVE",
"69 217 CURVE"
);
},
{
closed = 1;
nodes = (
"290 368 LINE",
"275 378 OFFCURVE",
"267 388 OFFCURVE",
"267 400 CURVE SMOOTH",
"267 443 OFFCURVE",
"344 472 OFFCURVE",
"463 484 CURVE",
"495 537 OFFCURVE",
"469 606 OFFCURVE",
"407 621 CURVE",
"227 608 OFFCURVE",
"84 523 OFFCURVE",
"84 457 CURVE SMOOTH",
"84 420 OFFCURVE",
"154 369 OFFCURVE",
"228 350 CURVE"
);
}
);
};
layerId = "AF1B7CCB-9C31-456C-8386-1D362D80AEF6";
name = "Bold Italic";
paths = (
{
closed = 1;
nodes = (
"353 0 OFFCURVE",
"515 101 OFFCURVE",
"515 195 CURVE SMOOTH",
"515 233 OFFCURVE",
"449 277 OFFCURVE",
"372 291 CURVE",
"291 275 LINE",
"319 251 OFFCURVE",
"331 234 OFFCURVE",
"331 216 CURVE SMOOTH",
"331 170 OFFCURVE",
"277 120 OFFCURVE",
"199 97 CURVE",
"189 117 OFFCURVE",
"176 149 OFFCURVE",
"168 187 CURVE",
"67 199 OFFCURVE",
"7 162 OFFCURVE",
"7 113 CURVE SMOOTH",
"7 57 OFFCURVE",
"126 0 OFFCURVE",
"215 0 CURVE SMOOTH"
);
},
{
closed = 1;
nodes = (
"269 261 OFFCURVE",
"362 282 OFFCURVE",
"540 315 CURVE",
"567 363 OFFCURVE",
"549 414 OFFCURVE",
"503 439 CURVE",
"367 393 OFFCURVE",
"206 355 OFFCURVE",
"39 340 CURVE",
"3 299 OFFCURVE",
"22 233 OFFCURVE",
"69 217 CURVE"
);
},
{
closed = 1;
nodes = (
"290 368 LINE",
"275 378 OFFCURVE",
"267 388 OFFCURVE",
"267 400 CURVE SMOOTH",
"267 443 OFFCURVE",
"344 472 OFFCURVE",
"463 484 CURVE",
"495 537 OFFCURVE",
"469 606 OFFCURVE",
"407 621 CURVE",
"227 608 OFFCURVE",
"84 523 OFFCURVE",
"84 457 CURVE SMOOTH",
"84 420 OFFCURVE",
"154 369 OFFCURVE",
"228 350 CURVE"
);
}
);
width = 568;
},
{
associatedMasterId = "AF1B7CCB-9C31-456C-8386-1D362D80AEF6";
background = {
paths = (
{
closed = 1;
nodes = (
"240 351 LINE",
"149 376 OFFCURVE",
"92 429 OFFCURVE",
"92 463 CURVE SMOOTH",
"92 533 OFFCURVE",
"244 613 OFFCURVE",
"426 620 CURVE",
"488 600 OFFCURVE",
"517 537 OFFCURVE",
"481 481 CURVE",
"345 463 OFFCURVE",
"287 432 OFFCURVE",
"287 406 CURVE SMOOTH",
"287 391 OFFCURVE",
"294 380 OFFCURVE",
"309 370 CURVE"
);
},
{
closed = 1;
nodes = (
"400 284 OFFCURVE",
"305 263 OFFCURVE",
"93 210 CURVE",
"45 224 OFFCURVE",
"14 294 OFFCURVE",
"51 344 CURVE",
"203 362 OFFCURVE",
"390 405 OFFCURVE",
"521 458 CURVE",
"572 433 OFFCURVE",
"593 376 OFFCURVE",
"571 324 CURVE"
);
},
{
closed = 1;
nodes = (
"336 239 OFFCURVE",
"320 259 OFFCURVE",
"303 267 CURVE",
"384 289 LINE",
"465 272 OFFCURVE",
"529 228 OFFCURVE",
"529 193 CURVE SMOOTH",
"529 99 OFFCURVE",
"362 0 OFFCURVE",
"202 0 CURVE SMOOTH",
"102 0 OFFCURVE",
"-2 78 OFFCURVE",
"-3 123 CURVE SMOOTH",
"-3 139 OFFCURVE",
"3 163 OFFCURVE",
"16 182 CURVE",
"93 204 OFFCURVE",
"167 193 OFFCURVE",
"208 153 CURVE",
"202 136 OFFCURVE",
"198 124 OFFCURVE",
"195 101 CURVE",
"262 115 OFFCURVE",
"336 175 OFFCURVE",
"336 217 CURVE SMOOTH"
);
}
);
};
layerId = "281602D0-7A71-4E7B-9FB4-7C2BEA252D14";
name = "Bold Italic Jul 28 15, 15:34";
paths = (
{
closed = 1;
nodes = (
"368 0 OFFCURVE",
"532 103 OFFCURVE",
"532 197 CURVE SMOOTH",
"532 234 OFFCURVE",
"467 281 OFFCURVE",
"385 295 CURVE",
"298 271 LINE",
"326 254 OFFCURVE",
"339 237 OFFCURVE",
"339 218 CURVE SMOOTH",
"339 175 OFFCURVE",
"287 122 OFFCURVE",
"212 99 CURVE",
"215 124 OFFCURVE",
"218 135 OFFCURVE",
"224 152 CURVE",
"181 191 OFFCURVE",
"107 201 OFFCURVE",
"31 178 CURVE",
"19 158 OFFCURVE",
"14 141 OFFCURVE",
"14 119 CURVE SMOOTH",
"14 74 OFFCURVE",
"121 0 OFFCURVE",
"228 0 CURVE SMOOTH"
);
},
{
closed = 1;
nodes = (
"298 264 OFFCURVE",
"393 283 OFFCURVE",
"564 321 CURVE",
"585 373 OFFCURVE",
"564 423 OFFCURVE",
"513 448 CURVE",
"382 397 OFFCURVE",
"200 357 OFFCURVE",
"48 340 CURVE",
"11 291 OFFCURVE",
"39 227 OFFCURVE",
"87 213 CURVE"
);
},
{
closed = 1;
nodes = (
"307 367 LINE",
"290 378 OFFCURVE",
"283 389 OFFCURVE",
"283 400 CURVE SMOOTH",
"283 436 OFFCURVE",
"367 467 OFFCURVE",
"478 482 CURVE",
"512 539 OFFCURVE",
"480 602 OFFCURVE",
"419 621 CURVE",
"241 611 OFFCURVE",
"89 524 OFFCURVE",
"89 458 CURVE SMOOTH",
"89 419 OFFCURVE",
"163 367 OFFCURVE",
"239 348 CURVE"
);
}
);
width = 607;
},
{
associatedMasterId = "AF1B7CCB-9C31-456C-8386-1D362D80AEF6";
background = {
paths = (
{
closed = 1;
nodes = (
"368 0 OFFCURVE",
"532 103 OFFCURVE",
"532 197 CURVE SMOOTH",
"532 234 OFFCURVE",
"467 281 OFFCURVE",
"385 295 CURVE",
"298 271 LINE",
"326 254 OFFCURVE",
"339 237 OFFCURVE",
"339 218 CURVE SMOOTH",
"339 175 OFFCURVE",
"287 122 OFFCURVE",
"212 99 CURVE",
"215 124 OFFCURVE",
"218 135 OFFCURVE",
"224 152 CURVE",
"181 191 OFFCURVE",
"107 201 OFFCURVE",
"31 178 CURVE",
"19 158 OFFCURVE",
"14 141 OFFCURVE",
"14 119 CURVE SMOOTH",
"14 74 OFFCURVE",
"121 0 OFFCURVE",
"228 0 CURVE SMOOTH"
);
},
{
closed = 1;
nodes = (
"298 264 OFFCURVE",
"393 283 OFFCURVE",
"564 321 CURVE",
"585 373 OFFCURVE",
"564 423 OFFCURVE",
"513 448 CURVE",
"382 397 OFFCURVE",
"200 357 OFFCURVE",
"48 340 CURVE",
"11 291 OFFCURVE",
"39 227 OFFCURVE",
"87 213 CURVE"
);
},
{
closed = 1;
nodes = (
"307 367 LINE",
"290 378 OFFCURVE",
"283 389 OFFCURVE",
"283 400 CURVE SMOOTH",
"283 436 OFFCURVE",
"367 467 OFFCURVE",
"478 482 CURVE",
"512 539 OFFCURVE",
"480 602 OFFCURVE",
"419 621 CURVE",
"241 611 OFFCURVE",
"89 524 OFFCURVE",
"89 458 CURVE SMOOTH",
"89 419 OFFCURVE",
"163 367 OFFCURVE",
"239 348 CURVE"
);
}
);
};
layerId = "A42EC7F1-375B-457A-94C5-E0F20BC42287";
name = "Bold Italic Jul 28 15, 16:14";
paths = (
{
closed = 1;
nodes = (
"367 0 OFFCURVE",
"529 101 OFFCURVE",
"529 195 CURVE SMOOTH",
"529 233 OFFCURVE",
"463 277 OFFCURVE",
"386 291 CURVE",
"305 275 LINE",
"333 251 OFFCURVE",
"345 234 OFFCURVE",
"345 216 CURVE SMOOTH",
"345 169 OFFCURVE",
"285 114 OFFCURVE",
"208 93 CURVE",
"211 120 OFFCURVE",
"214 132 OFFCURVE",
"220 150 CURVE",
"178 187 OFFCURVE",
"109 196 OFFCURVE",
"36 175 CURVE",
"25 156 OFFCURVE",
"20 138 OFFCURVE",
"20 117 CURVE SMOOTH",
"20 72 OFFCURVE",
"124 0 OFFCURVE",
"229 0 CURVE SMOOTH"
);
},
{
closed = 1;
nodes = (
"283 261 OFFCURVE",
"376 282 OFFCURVE",
"554 315 CURVE",
"581 363 OFFCURVE",
"563 414 OFFCURVE",
"517 439 CURVE",
"381 393 OFFCURVE",
"220 355 OFFCURVE",
"53 340 CURVE",
"17 299 OFFCURVE",
"36 233 OFFCURVE",
"83 217 CURVE"
);
},
{
closed = 1;
nodes = (
"304 368 LINE",
"289 378 OFFCURVE",
"281 388 OFFCURVE",
"281 400 CURVE SMOOTH",
"281 443 OFFCURVE",
"358 472 OFFCURVE",
"477 484 CURVE",
"509 537 OFFCURVE",
"483 606 OFFCURVE",
"421 621 CURVE",
"241 608 OFFCURVE",
"98 523 OFFCURVE",
"98 457 CURVE SMOOTH",
"98 420 OFFCURVE",
"168 369 OFFCURVE",
"242 350 CURVE"
);
}
);
width = 607;
}
);
unicode = 0A95;
},
